<?xml version="1.0" encoding="utf-8"?>
<!-- Generator: Adobe Illustrator 26.1.0, SVG Export Plug-In . SVG Version: 6.00 Build 0)  -->
<svg version="1.2" id="map-france" baseProfile="tiny" xmlns="http://www.w3.org/2000/svg" xmlns:xlink="http://www.w3.org/1999/xlink" x="0px"
	 y="0px" viewBox="291.25 173.4 257.48 247.24" overflow="visible" xml:space="preserve">
<g id="Background_x27_">
</g>
<g id="France">
	<path fill="none" stroke="#242a3a" stroke-linecap="round" stroke-linejoin="round" d="M543.44,419.57l-0.07,0l-0.16,0.02
		l-0.02,0.13l0.06,0.02l0.06,0.03l0.1,0.06l0.02-0.05l0.03-0.02l0.07-0.03l0.01-0.07l-0.09,0.03L543.44,419.57z M543.26,420.26
		l-0.08-0.03l-0.05,0.13l0.17,0.15l0.01-0.1l-0.05-0.07V420.26z M548.61,397.97l-0.07-0.46l-0.33-0.92l-0.08-0.49l0-0.44l0.05-0.37
		l0.08-0.33l0.11-0.31l-0.22-0.5l-0.06-0.71l0.04-1.37l-0.08-0.45l-0.17-0.41l-0.51-0.76l0.27,0.62l0.07,0.16l0.05,0.34l-0.47-0.21
		l-0.14-0.11l-0.11-0.2l-0.05-0.19l-0.06-0.15l-0.14-0.12l0.08-0.19l0.01-0.13l-0.04-0.13l-0.05-0.21l-0.04,0l-0.08-0.03l-0.08-0.05
		l-0.05-0.06l0.01-0.11l0.05-0.08l0.05-0.06l0.02-0.06l-0.02-0.69l0.04-0.33l-0.02-0.29l0.57-2.22l0.03-0.72l-0.33-2.17l0.08-0.45
		l-0.2-0.24l-0.09-0.27l0.03-0.26l0.14-0.19v-0.18l-0.34-0.19l-0.16-0.14l-0.23-0.32l-0.31,0.13l-0.72,0l-0.29,0.19l-0.08,0.31
		l0.03,0.42l0.11,0.39l0.19,0.19l-0.06,0.2l-0.02,0.1l0.02,0.07l0.06,0.12l-0.41,0.43l-0.12,0.16l-0.07,0.23v0.21l0.11,0.22v0.21
		l-0.47,0.66l0.28,0.36l0.24,0.39l0.1,0.42l-0.14,0.46l0.17,0.52l-0.26,0.69l-0.63,1.07h-0.12l-0.16-0.46l-0.09-0.19l-0.11-0.16
		l-0.12-0.12l-0.37-0.2l-0.9-0.26l-0.16,0.02l-0.19-0.06l-0.42,0.01l-0.41,0.07l-0.19,0.14l-0.94,1.06l-0.06,0.46l-0.55,0.29
		l-1.96,0.42l-1.11,0.58l-0.65,0.04l0.13,0.16l-0.1,0.34l-0.15,0.32l-0.21,0.23l-0.27,0.09l-0.21-0.09l-0.16-0.17l-0.19-0.08
		l-0.29,0.16l-0.04-0.21l-0.02-0.04l-0.05,0l-0.14-0.07v0.17l0.12,0.23l-0.1,0.52l0.1,0.22l-0.33,0.08l-0.29,0.14l-0.23,0.27
		l-0.14,0.59l-0.04,0.11l0.05,0.07l0.21,0.03l0.08,0.08l-0.07,0.19l-0.2,0.29l0.01,0.29l-0.04,0.24l-0.15,0.15l-0.56,0.09
		l-0.08,0.08l-0.04,0.11l-0.09,0.11l-0.06,0.16l-0.02,0.2l-0.07,0.11l-0.22-0.13l-0.12,0.16l-0.16,0.1h-0.17l-0.15-0.12l-0.05,0.23
		l0.01,0.27l0.06,0.25l0.11,0.2l-0.13,0.17l0.69-0.29l0.37-0.03l0.38,0.32l-0.52,0.32l-0.09,0.08l0.02,0.17l0.07,0.11l0.1,0.01
		l0.24-0.21l0.08,0.09l0.05,0.16l0.04,0.09l0.65,0.32l0.04,0.04l0.26,0.21l-0.02,0.19l-0.05,0.03l-0.07-0.02l-0.1,0.05l-0.18,0.14
		l-0.24,0.11l-0.7,0.14l-0.17,0.1l-0.13,0.1l-0.13,0.07l-0.46-0.02l-0.19,0.05l-0.07,0.22l0.12,0.09l0.24,0.08l0.14,0.14l-0.14,0.26
		l0.21,0.1l0.07,0.23l-0.07,0.23l-0.21,0.09v0.16h0.49v0.17l-0.28,0.2l-0.14,0.08l-0.18,0.04l0.17-0.02l0.15,0.02l0.14,0.06
		l0.13,0.12l-0.05,0.09l-0.08,0.22l0.36,0l0.4,0.08l0.32,0.19l0.13,0.3l0.1,0.09l0.48-0.14l0.19,0.05l0.12,0.21l0.3,0.67l0.27,0.21
		l0.11,0.16l-0.03,0.29l-0.1,0.01l-0.46,0.25l-0.09,0.07l-0.38,0.11l-0.35,0.26l-0.15,0.27l0.22,0.15l-0.24,0.42l-0.35,0.14
		l-0.86,0.09l0.5,0.58l0.07,0.32l-0.2,0.39l0.12,0.3l0.28-0.18l0.31-0.07l0.72-0.05l0.38-0.12l0.6-0.33l0.35-0.04l0.19,0.05
		l0.11,0.08l0.08,0.14l0.1,0.21l0.2,0.15l0.04,0.01l-0.04,0.15l-0.15,0.2l-0.05,0.11l-0.03,0.01l-0.21,0.33l0.06-0.02l0.07,0.13
		l0.06,0.16l0.05,0.05l-0.14,0.13l-0.58,0.19l0.2,0.03l0.18,0.09l0.13,0.15l0.09,0.23l-0.57,0.34l-0.35,0.12h-0.4v0.17l0.19,0.13
		l0.04,0.22l-0.08,0.24l-0.15,0.2l-0.23,0.13l-0.49,0.07l-0.23,0.12l0.22,0.06l0.18,0.08l0.18,0.05l0.25-0.02l-0.08,0.22l-0.04,0.08
		l0.41-0.03l0.72-0.28l0.43,0l-0.15,0.47l0.22,0.23l0.41,0.07l0.42,0.01l1.1,0.31l0.41,0.02l-0.21,0.25l-0.24,0.13l-0.2,0.16
		l-0.08,0.32l-0.15,0.14l-0.94,0.43l-0.3-0.15l-0.17,0.32l-0.12,0.48l-0.13,0.3l0.27,0.1l0.06,0.16l-0.08,0.46l0.1,0.09l0.22,0.1
		l0.24,0.07l0.17-0.02l0.12,0.08l0.22,0.08v0.15l-0.24,0.16l0.15,0.11l0.14,0.02h0.14l0.16,0.04l0.1,0.09l0.03,0.11l0.05,0.08
		l0.4,0.09l0.18,0.13l0.14,0.16l0.19,0.13l0.27-0.06l0.43,0.06l0.44,0.14l0.19,0.16l0.12,0.17l0.1-0.07l0.07-0.04l0.19-0.05
		l-0.04,0.07l-0.02,0.03l-0.02,0.02l-0.05,0.05l0.12,0.16l0.51-0.41l0.2-0.07v0.15l-0.23,0.33l0.25,0.2l0.43,0.18l0.28,0.25
		l-0.16,0.05l-0.08,0.08l-0.19,0.6l0.45,0.2l0.54,0.08l0.28,0.12l0.43,0.4l0.22,0.08l0.29-0.16l0.12-0.19l0.15-0.35l0.14-0.4
		l0.06-0.34l-0.22,0.13l-0.27,0.26l-0.21,0.08v-0.14l0.17-0.14l0.05-0.18l-0.05-0.18l-0.17-0.13v-0.17l0.3-0.04l0.48-0.32l0.27-0.12
		l-0.11-0.17l0.17-0.16l0.08-0.21l-0.05-0.18l-0.2-0.08l0.07-0.16l0.02-0.16l-0.02-0.16l-0.07-0.16l0.3-0.06l0.18-0.23l0.13-0.24
		l0.16-0.12l0.31-0.07l0.25-0.19l0.17-0.28l0.06-0.33l-0.16-0.22l-0.36,0.06l-0.57,0.24l-0.23-0.16l0.1-0.22l0.17-0.23l-0.04-0.2
		l0.21-0.04l0.25,0.01l0.27,0.06l0.23,0.12l-0.07-0.35l0.05-0.13l0.14-0.01l0.18,0.02l0.16-0.12l0.09-0.26l0.05-0.41h-0.24
		l0.09-0.23l0.16-0.21l0.18-0.15l0.12-0.05l0.06-0.12l0.02-1.71l-0.15-1.6l0.15-1.63l0.01-0.83l0.09-0.22l0.26-0.26l1.21-1.74
		l0.27-0.58l0.18-0.3l0.47-0.44l0.13-0.22l0.04-0.19l0.04-0.41l0.04-0.19l-0.13-0.55L548.61,397.97z M349.2,233.78l0.05-0.02
		l0.03,0.07l-0.04-0.17l-0.05-0.04l-0.08-0.07l-0.03-0.04l-0.02,0.15l0.05,0.11L349.2,233.78z M494.85,379.97l-0.29,0.06l-0.17,0.17
		l-0.14,0.26l-0.36,0.13l-0.05,0.18l0.02,0.23l0.11,0.02l0.16-0.14l0.32-0.11l0.27-0.45l0.15-0.14l0.27-0.05l0.02-0.13l-0.09-0.1
		L494.85,379.97z M341.01,289.61l-0.68-0.29l-0.34-0.06l-0.32,0.05l-0.14,0.23l0.2,0.47l1.4,0.01l0.39,0.16l-0.19-0.33
		L341.01,289.61z M343.69,283.56l-0.19-0.19l-0.59-0.32l-0.18-0.21l-0.02-0.37l0.07-0.34l-0.05-0.29l-0.36-0.23l-0.31-0.05l-1,0.05
		l0.3,0.39l0.27,0.98l0.28,0.4l0.47-0.25l0.44,0.31l0.37,0.58l0.26,0.57l0.29,0.17l0.09-0.34l-0.04-0.52L343.69,283.56z
		 M292.89,244.22l-0.03-0.07l-0.04-0.06l-0.33-0.17l-0.4,0.11l-0.72,0.41v0.18l0.45-0.14l0.17,0.06l0.1,0.26l-0.06,0.01l-0.12-0.02
		l-0.06,0.01v0.18l0.31-0.07l0.9-0.47v-0.2l-0.11,0.02L292.89,244.22z M355.44,301.83l0.11-0.15l-0.01-0.15l-0.09-0.14l-0.13-0.1
		l-0.31-0.07l-1.01,0.26v0.15l0.19,0.15l0.71,0.81l0.27,0.11l0.98-0.18l1.7,1.09l0.79,0.15l0.08,0.03l0.08,0.1l0.19-0.1l0.13-0.04
		l0.16-0.01l-0.2-0.47l-0.33-0.39l-0.41-0.26l-1.76-0.29l-0.29-0.14V302h0.25v-0.18l-0.43,0.11l-0.5,0.23l-0.46,0.01l-0.31-0.53
		l0.18,0.01L355.44,301.83z M490.4,380.7l-0.14,0.13l-0.11,0.04l-0.05-0.01l-0.06,0.02l-0.06,0.08l-0.15,0.08l-0.49-0.02l-0.18,0.09
		l0.02,0.13l0.42,0.22l0.22,0.07l0.24-0.07l0.24-0.12l0.2-0.26l0.01-0.34l-0.07-0.13L490.4,380.7z M326.92,274.07l-0.21-0.11
		l-0.6-0.61l-0.05-0.08l-0.44-0.34l-0.79-0.41l-0.22-0.05l-0.15-0.15h-0.12l-0.07,0.16l-0.15,0.14l0.1,0.38l0.19,0.42l0.13,0.42
		l-0.06,0.41l0.31,0.22l0.9,0.27l1.37,0.13l0.47-0.14l0.07-0.48l-0.17-0.21L326.92,274.07z M359.64,308.04l-0.24-0.25l-0.24,0.03
		l-0.22,0.08l-0.2-0.1l-0.41-0.47l-0.55-0.44l-0.59-0.31l-0.54-0.07l0.38,0.87l0.2,0.59l-0.04,0.26l-0.08,0.23l0.29,0.48l0.38,0.45
		l0.37,0.26l1.03,1.16l0.19,0.35l0.14,0.33l0.25,0.87l0.31,0.14l0.25-0.39l0.18-0.66l0.14-1.06l-0.03-0.21l-0.13-0.22l-0.5-0.3
		l-0.18-0.18l0.09-0.22v-0.17l-0.19-0.19l-0.01-0.24l0.03-0.29L359.64,308.04z M522.88,230.83l-2.77-1.48l-0.32-0.04l-1,0.11
		l-1.46-0.42l-0.19,0.05l-0.41,0.22l-0.22,0.06l-0.17-0.03l-0.37-0.13l-0.2-0.03l-0.22,0.05l-0.21,0.09l-0.21,0.05l-0.24-0.05
		l-0.16-0.14l-0.17-0.35l-0.13-0.16l-0.39-0.2l-0.77-0.14l-0.38-0.24l-0.23-0.3l-0.4-0.64l-0.24-0.26l0.03-0.09l0.04-0.06l0.13-0.08
		l-0.12-0.39l-0.32-0.12l-0.76-0.05l-0.07-0.3l-0.34-0.03l-0.41,0.13l-0.29,0.16l-0.08,0.13l-0.13,0.39l-0.09,0.15l-0.13,0.06
		l-0.35,0.05l-0.16,0.05l-0.11,0.13l-0.19,0.38l-0.1,0.11l-0.11-0.02l-0.47-0.22l-1.51-0.02l-0.28-0.09l-0.27-0.15l-0.67-0.49
		l-0.09-0.01l-0.16,0.16l0.01,0.15l0.06,0.14l-0.03,0.14l-0.54,0.34l-0.38-0.31l-0.2-0.73l0.01-0.94l-0.38-0.02l-1.09-0.62
		l-0.2-0.03l-0.51,0.05l-0.73-0.16l-0.18,0.04l-0.1,0.37l0.13,0.43l0.06,0.44l-0.3,0.4l-0.22,0.05l-0.68-0.25l-0.78-0.01l-0.21-0.08
		l-0.22-0.37l0.05-0.33l0.09-0.34l-0.11-0.42h-0.08l-0.23,0.15l-0.08,0.01l-0.05-0.1l-0.03-0.21l-0.02-0.06l-0.06-0.12l-0.14-0.49
		l-0.07-0.08l-0.24-0.09l-0.09-0.07l-0.02-0.11l0.03-0.27l-0.03-0.12l-1.16-1.12l-0.29-0.36l-0.11-0.31l0.1-0.24l0.31-0.02
		l0.08-0.22l-0.06-0.16l-0.85-0.9l-0.12-0.18l0.03-0.01l-0.01-0.15l-0.05-0.22l-0.1-0.22l-0.3-0.29l-1.61-0.8l-0.2-0.03l-0.14,0.05
		l-0.33,0.23l-0.19,0.04l-0.15-0.01l-0.35-0.04l-0.46-0.25l-0.87-0.65l-0.48-0.19l-0.5-0.05l-1,0.11l0.11,0.25l-0.49,0.05
		l-0.13,0.05l-0.09,0.16v0.17l-0.04,0.14l-0.21,0.08l-0.17,0.26l-0.26,0.1l-1.49,0.09l-0.3,0.11l-0.24-0.77l-0.34-0.33l-1.11-0.26
		l-0.44-0.21l-0.3-0.29l-0.55-0.73l-0.19-0.05l-0.02-0.01l-0.38-0.23l-0.19-0.03l-0.18,0.1l-0.23,0.3l-0.2,0.08l-0.02,0.01
		l-0.38-0.07l-0.38-0.19l-0.39-0.09h-0.01l-0.43,0.22l-0.21,0.29v0.01l-0.04,0.19l-0.02,0.02l-0.04,0.08l-0.12,0.01l-0.14,0.02
		l-0.15-0.04l-0.55-0.25l-0.23,0.1l-0.1,0.05l-0.21,0.16l-0.23,0.18l-0.35,0.2l-0.11,0.06l-0.38-0.1l-0.09-0.19l-0.02-0.05
		l0.02-0.24l0.06-0.25v-0.28l-0.07-0.25l-0.84-1.53l-0.33-0.29l-0.54-0.2l-0.08-0.05l-0.11-0.07l-0.11-0.02h-0.01l-0.06,0.07
		l-0.07,0.15l-0.1,0.14l-0.03,0.01l-0.09,0.03l-0.29-0.06l-0.09-0.11v0l-0.02-0.12l-0.02-0.12l0.05-0.38v-0.01l0.02-0.01l0.12-0.08
		l0.03-0.04l0.05-0.06l-0.12-0.4l-0.34-0.41l-0.37-0.37l-0.21,0.01l-0.16,0l-0.28,0.08l-0.51,0.14l-0.4-0.12l-0.32-0.24l-0.09-0.08
		l-0.17-0.17l-0.43-0.63l-0.31-0.46l-0.21-0.2l-0.14-0.04l-0.48-0.14l-0.35-0.2l-0.65-0.64l-0.29-0.15l-0.03-0.02l-0.18,0.01
		l-0.19,0.01l-0.34,0.12l-0.42,0.14l-0.29,0.05l-0.1,0.01l-0.28-0.04l-0.18-0.03v-0.01l-0.16-0.2l0-0.47v-0.54l-0.04-0.15v-0.01
		l-0.17-0.28l-0.04-0.14l0.03-0.16l0.16-0.18l0.01-0.03l0.05-0.11l0.02-0.08l0.08-0.25l0.04-0.1l0.05-0.12l0.04-0.23l-0.02-0.16
		l-0.02-0.19l-0.26-0.49l-0.01,0v0l-0.48-0.2l-0.34-0.14h-0.01l-0.23-0.38l0.08-0.43l0.48-1.2l0.19-0.48l0.01-0.05l0.01-0.24
		l-0.03-0.23l0.02-0.17l0-0.07l0.09-0.21l0.24-0.51v-0.01l0.11-0.03l0.18,0.2l0,0l0.03-0.28l0.02-0.2l0.09-0.56l0.01-0.13l0.02-0.35
		l-0.16-0.21l-0.54,0.11l-0.2-0.08l-0.07-0.39l0-0.02l-0.47,0.21l-1.87,1.89l-0.1,0.22l-0.05,0.27l0.03,0.12l0.01,0.05l0.03,0.06
		l0.04,0.07l0.01,0.09l0.01,0.1l-0.05,0.29l-0.09,0.58l-0.12,0.43l-0.03,0.05l-0.13,0.26l-0.13,0.08l-0.06,0.04l-0.73,0.12
		l-0.61,0.31l-1.83,0.9l-0.52,0.09l-2.31-0.63l-0.45-0.13l-0.51,0.07l-0.83,0.12l-0.19-0.05l-0.05-0.01l-0.98-0.53h0.01l0.13,0.01
		l-0.01-0.25l-0.01-0.15l-0.05-0.21l-0.05-0.21l-0.08-0.03h0l0.07-0.32l0.08-0.17l0.01-0.02l0,0l0.13-0.16l0.19-0.18l0.13-0.12
		l0.28-0.2l0.12-0.08l0.23-0.12l0.19-0.09l0-0.13v-0.05l-0.12-0.22l-0.06-0.15l-0.04-0.11l-0.29-1.18l-0.18-0.09l-0.19,0.03
		l-0.35,0.16l-0.11-0.05l-0.14-0.07l0.04-0.41l0.01-0.08l0.21-0.69l0.12-0.41l0.09-0.5l0.07-0.2l0.01-0.02l0.19-0.27l0.42-0.32
		l0.03-0.03l0.14-0.16l0.02-0.14l0.02-0.14l-0.11-0.18l-0.22-0.19l-0.15-0.09l-0.09-0.05l-0.16-0.06l-0.22,0.09h0l-0.01,0.17
		l0.01,0.1l0.01,0.09h0l-0.05,0.05l-0.08,0.08l-0.21-0.1l-0.11-0.05l-0.37-0.79l-0.11-0.24l0-0.01l-0.36-0.32l-0.24-0.14l-0.13-0.08
		l-0.58-0.64l-0.02-0.01l-0.33-0.16l-0.16,0.02l-0.21,0.02l-0.74,0.31l-0.38,0.16h-0.39l-0.07-0.03l-0.24-0.12l-0.17-0.11l-0.13-0.1
		l-0.36-0.18l-0.73-0.09l-0.76,0.05l-0.1,0.04l-0.13,0.05l-0.14,0.16l-0.31,0.53l-0.06,0.17l-0.02,0.06l-0.02,0.03l-0.03,0.05
		l-0.08,0.05l-0.03-0.03l-0.03,0.02l-0.07,0.18l-0.62-0.58l-0.15-1.11l0-1.28l-0.15-1.06l-0.29-0.52l-0.35-0.33l-0.38-0.19
		l-0.4-0.09l-1.06,0h-0.07l-0.21-0.16h0l0.16-0.28l0.02-0.03l0.03-0.22l-0.12-0.14l-0.07-0.02l-0.18-0.05l-0.17,0.01l-0.08,0.01
		l-0.15,0.1l-0.03,0.02l-0.06,0.06l-0.11,0.11l-0.06,0.05l-0.18,0.13l-0.6,0.22l-0.17,0.06l-0.16,0.02l-0.26,0.03l-0.3-0.09
		l-0.77-0.4l-0.23-0.18l-0.24-0.31l-0.04-0.04l-0.09-0.31l-0.03-0.88l-0.46-1.55l-0.14-0.8l0.13-0.24l0.12-0.22l-0.08-0.26
		l-0.12-0.4l-0.13-0.23l-0.02-0.03l-0.23-0.08v0l-0.25-0.03l-0.14-0.16l-0.22-0.52l-0.19-0.36l-0.08-0.15l-0.26-0.46l-0.3-0.28
		l-0.36-0.11l-0.09-0.02l-0.84,0.26l-0.54,0.17l-0.18,0.05l-0.75,0.24l-0.21,0.14l-0.19,0.12l-0.15,0.17l-0.16,0.17l-0.22,0.38
		l-0.31,0.53l-0.23,0.18l-0.08-0.02l-0.16-0.03l-0.04,0l-0.05-0.03l-0.03-0.02l-1.22-0.56l-0.18-0.08l-0.1-0.08l-0.23-0.19
		l-0.04-0.07l-0.06-0.11l-0.23-0.56l-0.1-0.18l-0.07-0.07l-0.58-0.56l-0.12-0.21l-0.05-0.19h0l-0.09-0.16l-0.23-0.12l-0.04-0.01
		l-0.12-0.01l-0.32,0.04l-0.14-0.01l-0.26-0.05l-0.11-0.05l-0.02-0.01l-0.09-0.16l-0.07-0.16l-0.08-0.18l-0.04-0.05l-0.04-0.04
		l-0.05-0.03l-0.16-0.08l-0.04-0.07l-0.01-0.02v-0.01l0.01-0.06l0.01-0.06l0.13-0.31l0.02-0.18l-0.17-0.6l-0.18-0.62l0.1-0.25
		l0.15-0.15l0.26-0.25l0.06-0.1l0.04-0.07l-0.05-0.55l-0.28-0.42h0l-0.62-0.69l-0.17-0.54l-0.03-0.22l-0.14-1.01l-0.03-0.07
		l-0.23-0.56l-0.26,0.18l-0.71,0.34l-1.43,0.37l-1.05-0.13l-0.15,0.03l-0.18,0.1l-3,0.98l-2.81,0.35l-0.6,0.35l-0.31-0.06
		l-3.36,1.47l-0.54,0.51l-0.51,0.71l-0.29,0.3l-0.33,0.13l-0.36,0.03l-0.15,0.06l-0.43,0.34l0.01,0.14l0.04,0.39l0.28,1.02
		l0.11,0.63l-0.1,0.52l-0.2,0.41l-0.37,1.09l-0.09,0.49l0.01,0.57l0.18,1.18l0.07,1.29l0.1,0.38l0.47,0.73l-0.54,0.41l-0.09,1.12
		l-0.01,1.29l-0.32,0.92v0.19l0.96,0.77v0.17l-0.67-0.14l-0.36,0.73l-0.15,1.07l-0.03,0.88l0.17,0.23l0.75,0.36l0.17,0.35l0.11,0.31
		l0.27,0.22l0.35,0.12l0.34,0v0.21h-0.36l0.1,0.21l0.09,0.12l0.12,0.04l0.18-0.02v0.19l-0.14,0.14l-0.17,0.02l-1.73-0.85l-0.6,0.08
		l-0.59,0.81l-0.39,1.44l-0.15,0.23l-0.21,0.17l-0.92,1.14l-2.28,1.84l-0.7,0.78l-0.42,0.15l-0.43,0.34l-7.21,2.33l-1.51-0.02
		l-1.37,0.5l-0.69,0.47l-0.61,0.18l-2.19,1.31l-0.18,0.26l-2.29,1.06l-0.18,0.17l-0.19,0l-0.88,0.71l-0.26,0.31l-0.7,2.38l-0.9,1.65
		l-0.05,0.2l-0.02,0.29l0.06,0.23l0.25,0.17l0.05,0.16l0.15,0.26l0.35,0.21l0.4,0.13l0.31,0.02h0.36l1.25,0.43l1.45,0.2l1.44-0.21
		l1.24-0.78l-0.29,0.4l-0.34,0.3l-0.81,0.41l-4.36,0.99l-1.17,0.84l-0.42,0.66l-0.16,0.13l-0.4,0.11l-0.48,0.43l-0.82,0.39
		l-2.8,0.67l-0.45,0.4l-1.64-0.99l-0.88-0.21l-0.53-0.35l-0.31-0.13h-1.2l-0.75-0.33l-0.43-0.1l-0.64,0.35l-0.43-0.04l-0.75-0.23
		l-3-0.18l-2.07-0.8l-2.31-0.12l-0.3,0.14l-0.29,0.32l-0.13,0.37l0.18,0.26v0.18l-0.34,0.1l-0.19-0.11l-0.13-0.19l-0.19-0.16
		l-0.2,0.03l-0.19,0.12l-0.14,0.02l-0.06-0.27l0.04-0.08l0.08-0.14l0.08-0.21l0.03-0.29l-0.06-0.58l-0.17-0.41l-1.33-1.69
		l-0.26-0.74l-0.3-0.48l-0.22-0.53l0.09-0.64l0.11-0.14l0.15-0.05l0.39-0.01l0.07-0.12l0.04-0.25l0.08-0.25l0.44-0.32l-0.08-0.47
		l-0.39-0.82l-0.08-0.45l-0.07-0.19l-0.15-0.08l-2.1-0.38l-0.32,0.03l-0.81,0.26l-0.25,0.2l-0.45,0.61l-0.27,0.26l-0.3,0.14
		l-0.21-0.01l-0.36-0.14l-0.21-0.03l-0.19,0.06l-0.24,0.26l-0.16,0.06l-0.13-0.06l-0.04-0.13l-0.01-0.13l-0.01-0.06l-0.28,0.02
		l-1.31-0.45l-1.16-0.17l-0.38-0.13l-0.09-0.01l-0.19,0.04l-0.08-0.03l-0.08-0.13l-0.07-0.33l-0.09-0.12l-0.17-0.08l-0.49,0.08
		l-0.2-0.06l-0.35-0.25l-0.17-0.06l-0.47,0.06l-0.08,0.21l0.03,0.4l-0.14,0.64l0.77,0.33l0.56,0.11l0.16,0.19l0.1,0.27l0.14,0.3
		l0.13,0.38l0.01,0.45l-0.08,0.84l-0.11,0.27l-0.5,0.45l-0.11,0.38l0.09,0.16l0.45,0.55l0.17,0.29l0.06,0.21l0.01,0.14l0.03,0.13
		l0.25,0.47l0.07,0.17l0.05,0.19l0.01,0.39l-0.07,0.91l0.06,0.35l0.17,0.19l0.21-0.02l0.23-0.11l0.24-0.06l-0.05,0.11l-0.03,0.08
		l-0.05,0.19l0.35,0.21l0.39,0.43l0.32,0.21l0.14-0.46h0.13l0.23,0.55v0.17h-0.36l0.13,0.42l0.21,0.3l0.5,0.39l-0.08,0.04
		l-0.05,0.04l-0.11,0.12l0.26,0.32l0.29,0.98l0.28,0.33l0.14-0.51l0.37,0.01l0.45,0.22l0.37,0.11v0.16l-0.63-0.18l-0.32,0.02
		l-0.14,0.26l0.03,0.48l0.08,0.52l0.12,0.5l0.15,0.43l0.09-0.13l0.04-0.04l0.22,0.17l-0.34,0.24l-0.12,0.16l-0.13,0.34l-0.08,0.35
		l-0.02,0.29l0.09,0.2l0.25,0.05l-0.08,0.27l-0.04,0.28l-0.01,0.64l0.06,0.23l0.12,0.26l0.12,0.15l0.06-0.11l0.14-0.41l0.33-0.19
		h0.39l0.33,0.16v0.16l-0.43-0.21l-0.23,0.13l-0.11,0.4l-0.19,1.54l0.07,0.15l0.21,0.05l0.09,0.15l-0.01,0.24l-0.1,0.3l-0.15-0.22
		l-0.12,0.27l-0.14,1.27l-0.12,0.31l-0.19,0.24l-0.24,0.12v0.2l0.42,0.11l0.21,0.41l0.07,0.63l0.01,0.73l0.15,0.63l0.65,0.58
		l0.15,0.62l0.09,0.16l0.22,0.14l0.6,0.17l0.09,0.11l0.06,0.15l0.02,0.17l0.05,0.12l0.09-0.04l0.08-0.1v-0.06l0.67,0.06l0.39,0.2
		l0.28,0.46l-0.64-0.24l-1.88,0.42l-1.39-0.18l-0.28,0.06l-0.84,0.46l-1.38,0.22l-1.28-0.02l-0.74-0.2l-0.4-0.45l-0.01-0.62
		l0.43-0.71l-0.13-0.19l-0.06-0.14l0-0.12l0.05-0.12l-1.78,0.36l0.11,0.19h-0.66l-0.16,0.09l-0.03,0.18v0.19l-0.06,0.08l-0.27,0.08
		l-0.2,0.2l-0.13,0.24l-0.05,0.21l0.17,0.32l0.33,0.79l0.16,0.15l0.2,0.01l0.18,0.06l0.16,0.16l0.13,0.31l-0.21-0.16l-0.07-0.08
		l-0.07-0.12h-0.12l0.07,0.42l0.26,0.47l-0.1,0.21l0.49,0.34l-0.55,0.36l-0.17,0.18l0.07-0.58l-0.11-0.35l-0.45-0.69l0.06-0.1
		l0.07-0.26l-0.22-0.08l-0.15-0.19l-0.09-0.26l-0.03-0.29l-0.37-0.69l-0.04-0.12l-0.84,0.08l-0.78,0.27l0.14,0.38l0.09,0.18
		l0.12,0.16l-0.22-0.24l-0.21-0.02l-0.21,0.15l-0.19,0.3l0.16,0.14l0.07,0.03v0.18l-0.26,0.15l-0.16-0.15l-0.09-0.33l-0.08-0.39
		l0.01,0.33l-0.06,0.27l-0.12,0.2l-0.19,0.11l-0.03-0.28l-0.06-0.3l-0.12-0.23l-0.2-0.1l-0.06-0.14l-0.09-0.62l-0.08-0.14l-0.4,0.19
		l-0.35,0.37l-0.33,0.23l-0.31-0.25l0.49-0.54l0.09-0.15l0.06-0.15l0.08-0.14l0.13-0.11v-0.19l-0.23,0.04l-0.18-0.08l-0.12-0.2
		l-0.07-0.3l-0.24,0.48l-0.46,0.45l-0.53,0.35l-0.46,0.18l-0.15-0.36l-0.38-0.05l-0.78,0.24l0.34,0.16l0.15,0.02v0.18l-0.24,0.28
		l-1.18,0.74l-0.31,0.11l-0.18,0.14l-0.13,0.16l-0.41,0.65l-0.34,0.37l-0.29,0.13l-0.69-0.04l-0.07,0.2l0.01,0.38l-0.04,0.25
		l-0.25-0.2l-0.15-0.2l-0.15-0.15l-0.17-0.09l-0.21-0.01l0.14-0.13l0.1-0.15l0.07-0.18l0.05-0.24l-1-0.49l-0.42-0.32l-0.23-0.11
		l-0.09-0.09l-0.06-0.16l0.04-0.13l0.05-0.12l-0.03-0.14l-0.07-0.21l-0.18-0.79l-1.14-0.99l-0.11-0.26l-0.27-0.31l-0.32-0.28
		l-0.26-0.17v-0.16l0.07-0.04l0.17-0.14l-0.02-0.18v-0.16l0.02-0.22l-0.35-0.13l-0.89-0.05l-0.45-0.17v-0.2h-0.23v-0.16l0.29-0.23
		l0.13-0.08l0.17-0.05v-0.13l-0.02-0.03h-0.04l-0.07-0.03l0.13-0.18l-0.17-0.14l-0.18-0.05l-0.18,0.05l-0.17,0.15l-0.29-0.07
		l-0.34,0.51l-0.58,1.19h-0.13v-0.19l0.38-0.5l0.11-0.21l0.23-0.69l0.13-0.21l-0.24-0.2v-0.16l0.12-0.26l-0.01-0.28l-0.12-0.24
		l-0.22-0.14l-0.22,0.07l-0.32,0.39l-0.18-0.09l-0.16,0.2l-0.43,0.37l-0.52,0.66l-0.14,0.25l-0.06,0.33l-0.09-0.17l-0.02-0.07
		l-0.02-0.12l0.23-0.27l0.13-0.48l0.01-0.52l-0.11-0.38l-0.28-0.07l-0.52,0.65l-0.16-0.04h-0.12l-0.2,0.15l-1.48,0.56l-0.12,0.08
		l-0.18,0.21l-0.16,0.11l-0.22,0.02l-0.41-0.03l0.06-0.13l0.03-0.09l0.05-0.07l0.1-0.08l-0.24-0.02l-0.6-0.36l-0.55-0.03l-0.16-0.13
		h-0.11l-0.09,0.22l-0.38,0.68l-0.5,0.23l-0.18,0.23l0.07,0.43l0.6,0.75l0.25,0.16l-0.91,0.16l-0.07,0.18l0.07,0.4l0.17,0.61
		l-0.25,0.14l-0.51,0l-0.43-0.14l0.01-0.45l-0.62,0.17l-0.22,0l-0.2-0.11l-0.4-0.36l-0.19-0.08l-0.81,0.04l-0.33-0.1l-0.23-0.32
		l0,0.17l-0.01,0.14l-0.04,0.13l-0.08,0.12l-0.21-0.17l-0.14,0.3l-0.05,0.51l0.04,0.46l-0.14-0.14l-0.05-0.08l-0.05-0.15h-0.11
		l0.1,0.53l0.06,0.22l0.08,0.16l-0.13,0.18l0.13,0.18l-0.13,0.18l-0.23-0.3l-0.52-0.33l-0.21-0.28v-0.16l0.08-0.04l0.17-0.16
		l-0.35-0.09l-0.25,0.13l-0.5,0.5l0.09-0.32l-0.03-0.27l-0.11-0.19l-0.18-0.11v-0.19h0.12v-0.17l-0.21-0.07l-0.02-0.14l0.06-0.19
		l0.04-0.25l-0.11-0.08l-0.62,0.19l-0.37,0.23l-0.21,0.08l-0.24,0.05l0.07,0.24l-0.01,0.2l-0.07,0.16l-0.12,0.13h-0.11l-0.07-0.2
		l-0.09-0.13h-0.1l-0.1,0.16l-0.31-0.19l-0.4-0.02l-0.41,0.08l-0.34,0.14l-0.3,0.21l-0.3,0.31l-0.09,0.27l0.34,0.1v0.2h-0.24
		l-0.4-0.16l-0.21-0.04l-0.18,0.05l-0.53,0.32l-0.41,0.04l0.13-0.58l-0.32-0.38l-0.46-0.02l-0.47,0.18l-0.49,0.29l-0.5,0.09v0.2
		l0.11,0.03l0.24,0.15l-0.41,0.01l-0.58,0.28l-0.4,0.07h-1.37v0.16l0.15,0.1l0.04,0.09l-0.03,0.08l-0.05,0.11l0.48,0.2l-0.33,0.01
		l-0.8-0.21l-0.23,0.16l0.12,0.36l0.4,0.56l-0.22,0.06l-0.58-0.33l-0.34-0.09l-0.54,0.06l-0.33,0.11l-0.28,0.19l0.13,0.2l-0.19-0.08
		l-0.18-0.12l-0.31,0.46l-0.43,0.81l-0.18,0.76l0.45,0.34v0.16l-0.33,0.11l-0.21,0.36l-0.09,0.49l0.03,0.5l0.3,0.71l0.03,0.33
		l-0.33,0.04l0.11,0.54l0.15,0.27l0.23,0.09l0.88,0.01l0.16-0.09l0.03-0.19l0-0.19l0.06-0.08l0.34,0.05l0.61,0.25l0.31,0.07
		l0.34-0.05l0.52-0.26l0.86-0.21l1.1-0.7l0.54-0.23l1.18-0.19l0.35-0.13l0.55-0.32l0.31-0.09l-1.67,0.99l-0.2,0.16l-1,1.21v0.16
		l0.24-0.03l0.24-0.07l0.2-0.11l0.15-0.14l0.13,0.18l-0.06,0.05l-0.02,0.01l-0.05,0.1l0.39-0.07l0.55-0.39l0.26,0.12l0.06-0.12
		l0.11-0.13l0.06-0.13h0.13v0.2h-0.13v0.18l0.27-0.09l0.4-0.29h0.3l-0.34,0.37l-0.17,0.13l-0.08,0.11l-0.01,0.11l-0.15,0.06
		l-0.07,0.06l-0.15,0.23l0.75-0.05l0.11-0.03l0.09,0.26l0.22,0.09l0.24-0.06l0.16-0.21l0.07,0.31l0.21,0.1l0.55-0.04v0.2l-1.43,0.31
		l-0.36-0.14l0.26-0.01l0.11-0.05l0.11-0.11l-1.18,0.09l-0.83,0.24l-0.21,0.02l-0.23-0.04l-0.13-0.1l-0.12-0.12l-0.18-0.09
		l-1.56,0.11l-0.48-0.23l0.23-0.97l-0.29-0.14l-0.22,0.21l-0.31,0.82l0.03,0.09l0.04,0.19l-0.04,0.18l-0.22,0.08l-0.19-0.04
		l-0.15-0.06l-0.15-0.01l-0.19,0.1l0.05,0.26l-0.05,0.28l1.05,0.04l0.22,0.05l0.12,0.27l-0.07,0.11l-0.14,0.12l-0.08,0.31l0.04,0.2
		l0.11,0.22l0.2,0.3l-0.09,0.17l-0.15,0.55l0.45-0.15l0.31-0.5l0.24-0.59l0.25-0.47l0.49-0.17l0.93,0.6l0.44-0.16l0.04,0.17
		l0.08,0.16l0.11,0.13l0.14,0.08l0.74,0.17l0.24,0.24l0.09,0.59l0.05,0.18l0.25,0.32l0.08,0.29l-0.17,0.74l-0.08,0.19l-0.26,0.11
		l-1-0.31l-5.63,1.26l-0.1-0.04l-0.14-0.16l-0.06,0l-0.06,0.09l-0.02,0.1l-0.01,0.09l-0.11,0.2l-0.07,0.16l-0.09,0.16l-0.12,0.09
		l1.31,0.38l0.59-0.04l0.3,0.06l0.52,0.51l0.23-0.13l0.22-0.26l0.24-0.15l0.17,0.09l1.55,1.23l0.83,1.08l0.26,0.48l0.17,0.71
		l0.26,0.67l0.06,0.47l-0.06,0.17l-0.15,0.04h-0.17l-0.11,0.06l-0.03,0.15l0.04,0.36l-0.01,0.19l2.57,0.12l0.43-0.12l0.27-0.16
		l0.57-0.55v-0.19h-0.48v-0.16l0.06-0.08l0.05-0.1l-0.26-0.18l0.05-0.32l0.24-0.07l0.33,0.57l0.18-0.17l0.16-0.12l0.17-0.06
		l0.22-0.02v-0.16l-0.21-0.2l-0.24-0.35l-0.1-0.4l0.18-0.31l0.06,0.42l0.17,0.41l0.23,0.31l0.21,0.12l0.28,0.03l0.23,0.09l0.5,0.41
		l0.09-0.23l0.13-0.06l0.17,0l0.21-0.08l-0.06,0.23l-0.1,0.12l-0.14,0.04l-0.18-0.02l0.36,0.1l0.39-0.44l0.13-0.39l-0.16-0.53
		l0.46,0.09l0.47,0.31l0.33,0.38l0.06,0.28l0.22,0.14l0.11,0.05l0.15,0l-0.07,0.3l0.06,0.16l0.12,0.1l0.12,0.14l0.33,0.62l0.03,0.08
		l0.32,0.03l0.39-0.08l0.37-0.01l0.25,0.25l0.91-0.51l0.15,0.07l0.15,0.35l0.34,0.12l0.66-0.03l0.08,0.05l0.2,0.22l0.14,0.08
		l0.15,0.02l0.45-0.02l0.62,0.15l0.29,0l0.19-0.16l0.07,0.19l0.08,0.11l0.19,0.23l0.25,0.53l0.52,0.68l0.08,0.14l0.25,0.07
		l1.44-0.36v-0.16l-0.08-0.13l-0.11-0.11l-0.13-0.08l0.37-0.09l0.53-0.32l0.48-0.45l0.38-0.44v0.19l-0.23,0.18l-0.16,0.31
		l-0.22,0.58l-0.11,0.03l-0.3-0.04l-0.06,0.1v0.24l-0.02,0.13l-0.07,0.05l-0.16,0.01v0.2l0.74,0.07l0.31,0.11l0.28,0.17v0.16
		l-0.7-0.25l-0.31-0.03l-0.32,0.12l0.47,0.02l0.77,0.21l0.45,0.13l0.53,0.6l0.13,0.11l0.16-0.11l0.05-0.24l0.08-0.24l0.24-0.12
		l-0.18-0.27l-0.07-0.08l0.25-0.07l0.14-0.17l0.12-0.1l0.21,0.16l0.02-0.1l0-0.04l0.02-0.02l0.09-0.01l-0.08-0.36l-0.11-0.27
		l-0.17-0.19l-0.24-0.09l0.28-0.06l0.23,0.12l0.19,0.05l0.14-0.28h0.11l-0.01,0.18l0.01,0.54l0.08-0.05l0.21-0.08l0.08-0.06v0.26
		l0.02,0.19l0.04,0.14l0.07,0.14l-1.31,0.61l-0.21,0.73l-0.04,0.33l0.07,0.16l0.17,0.1l0.2,0.08l0.17,0.11l0.25,0.29l0.19,0.34
		l0.12,0.45l0.04,0.6l-0.04,0.35l-0.16,0.44l-0.04,0.28l0.03,0.24l0.21,0.74h0.11l0.11-0.12l0.37,0.1l0.24,0.02l-0.39-0.45
		l-0.29-0.6l-0.1-0.74l0.19-0.87l-0.08-0.05l-0.08-0.09l-0.08-0.04l0.15-0.27l0.2-0.02l0.2,0.13l0.17,0.16l-0.11,0.11l-0.11,0.07
		l0.25,0.15l0.28-0.02l0.55-0.3l0.11,0.12l0.1,0.04l0.25,0.01l-0.11-0.34l0.06-0.29l0.12-0.04l0.06,0.4l0.09,0.34l0.16,0.07
		l0.1-0.16l-0.1-0.34l0.23,0.22l0.19,0.26l0.16,0.17l0.15-0.1l0.18,0.26l0.05,0.09l0.05-0.1l0.03-0.07l0.04-0.17l-0.18-0.18
		l-0.2-0.26l-0.15-0.29l-0.06-0.26v-0.62l-0.02-0.18l-0.08-0.32l-0.02-0.21h0.13l0.05,0.32l0.12,0.24l0.18,0.14l0.25,0l-0.15,0.12
		l-0.05,0.2l0.02,0.26l0.07,0.32h0.12l0.07-0.11l0.06-0.04l0.23-0.04v0.19h-0.12v0.16l0.58-0.14l0.34-0.16l0.15-0.31l0.18-0.18
		l0.9-0.09l0.36-0.17l-0.24-0.16l0.54,0.09l0.21,0.14l0.21,0.29l-0.35-0.12l-0.37-0.05l0.88,0.56l0.09,0.15l0.2-0.01l0.08-0.05
		l0.08-0.13l-0.25-0.17l0.22-0.06l0.11-0.13l-0.03-0.16l-0.17-0.18v-0.16l0.39,0.51l-0.08,0.48l-0.68,0.95l0.13,0.17l-0.37,0.25
		l-0.48,0.05l-0.44-0.15l-0.27-0.32l-0.1,0.38l-0.02,0.17l-0.16-0.16l-0.12-0.04l-0.1,0.06l-0.1,0.14h-0.12l-0.26-0.52h-0.48
		l-0.29,0.21l0.3,0.12l0.01,0.13l-0.03,0.04l0.05,0.03l0.2,0.03l0.17,0.08l0.07,0.14l0.07,0.03l0.27,0.51l0.03,0.1l0.24,0.22
		l0.23,0.12l0.26,0.03l0.34-0.03l0.91-0.32l0.3-0.02l0.58,0.21l0.24-0.14l0.02-0.62l0.19,0.14l0.2,0.05l0.44-0.01l-0.04-0.17
		l-0.07-0.1l-0.11-0.05l-0.15-0.03l0.3-0.08l0.26,0.03l0.25-0.04l0.27-0.27l-0.13,0.35l-0.26,0.29l-0.31,0.2l-0.27,0.05l0.18,0.16
		l0.11-0.02l0.1-0.09l0.16-0.06h0.66l0.57-0.19l0.23-0.03l0.28,0.05l1.34,0.53l0.32,0l0.47-0.08l0.28,0.08l-0.36-0.03l-0.64,0.18
		l-1.09,0.06l-0.19,0.17l0.25,0.34l-0.15,0.49l0.22,0.14l0.37,0.04l0.28,0.19l-0.16,0.37l0.29,0.11l0.43,0.01l0.27,0.05l-0.05,0.17
		l-0.6,0.34l-0.17,0.2l-0.13-0.16l0.08-0.05l0.02,0l0.03-0.14l-0.29-0.06l-0.18-0.07l-0.19-0.01l-1.39,0.83l0.72,0.48l0.2,0.39
		l0.03,0.75h0.13l0.09-0.25l-0.01-0.11l-0.09-0.18l0.05-0.06l0.06-0.04l0.13-0.07l0.27,0.36l0.35,0.34l0.16,0.35l-0.3,0.35
		l-0.4,0.08l-0.75-0.36l-0.4-0.06v0.17l1.64,0.86l0.51,0.02l0.02-0.07l0.03-0.16l0.06-0.17l0.14-0.12l0.13-0.03l0.16,0l0.29,0.04
		l0.28,0.17l0.43,0.5l0.26,0.23l0.32,0.13l0.35,0l0.33-0.13l0.41-0.41l0.52-0.15l0.18-0.16l0.09-0.16l0.07-0.17l0.12-0.19l0.55-0.33
		l2.42-0.17l0.66,0.2l0.24,0.25l0.16,0.06l0.41,0.04l0.35,0.12l0.6,0.37l0.62,0.51l0.53,0.63l0.3,0.25l0.72,0.15l0.35,0.24
		l-0.94-0.03l-0.4-0.19l-0.39-0.42l-0.18-0.12l-0.73-0.15l-0.72-0.52v-0.2h0.36l-0.16-0.16l-0.17-0.11l-0.19-0.06h-0.2l0.12,0.17
		l-0.27,0.01l-0.9-0.24l-0.13-0.12l-0.14-0.17l-0.13,0.03l-0.12,0.06l-0.12,0.09l-1.61,0.17l-0.42,0.18l-0.15,0.22l-0.11,0.31
		l-0.07,0.33l-0.02,0.29l0.05,0.39l0.19,0.4l-0.01,0.35l-0.05,0.38l-0.05,0.21l-0.13,0.09l-0.57,0.08l-0.2,0.15l-0.19,0.18
		l-0.23,0.16l0.62,0.34l2.02,0.35l1.06,0.59l0.27,0.27l0.19,0.3l0.19,0.46l0.03,0.43l-0.31,0.23l-0.21,0.45l-0.3,0.92l-0.21,0.38
		l-0.67,0.42l-0.25,0.27l0.1,0.36l-0.45,0.33l-0.12,0.26l-0.04,0.55l0.02,0.44l0.07,0.49l0.13,0.4l0.2,0.16l0.46,0.16l0.54,0.39
		l0.98,1.02l0.52,1.06l0.15,0.15l0.29,0.03l0.3,0.1l0.23,0.19l0.18,0.65l0.21,0.25l0.27,0.23l0.26,0.31l0.11,0.29l0.08,0.34
		l0.14,0.29l0.28,0.12l-0.08,0.44l0.39,1.86l0.16,0.23l0.17,0.09l0.07-0.11l-0.02-0.22l-0.1-0.42l-0.01-0.31l0.17,0.27l0.2,0.55
		l0.13,0.21l0.22,0.14l0.49,0.14l0.59,0.52l0.93,0.16l0.29,0.27l-0.15,0.31l0.48,0.15l1.17,0.05l0.48,0.1l0.41,0.28l0.28,0.46
		l0.1,0.63l0.19,0.54l0.44,0.02l0.93-0.29l0.23,0.09l0.4,0.35l0.54,0.32l0.17,0.03l0.28,0.08l0.32,0.48l0.33,0.41l0.47,0.13
		l-0.02-0.8l0.65-0.39l0.78,0.05l0.38,0.54l0.05,0.35l0.08,0.22l0.01,0.2l-0.14,0.32l-1.2,0.75l-0.19,0.33l0.09,0.49l-0.16,0.11
		l-0.17,0.21l-0.11,0.25l0.02,0.21l0.17,0.17l0.15,0.03l0.16-0.01l0.18,0.05l0.26-0.02l0.09,0.02l0.02,0.07l-0.02,0.12l-0.01,0.12
		l0.07,0.05l0.13,0.04l0.41,0.31l-0.21,0.21v0.11l0.11,0.08l0.1,0.12l0.06,0.04l0.22,0.07l0.07,0.04l0.02,0.1l-0.01,0.24l0.13,0.34
		l0.02,0.25l0.06,0.21l0.33,0.13l0.12,0.09l0.1,0.12l0.08,0.11V307l-0.19,0.43l-0.23,0.21l-0.29-0.02l-0.37-0.25l0.25,0.83
		l0.19,0.33l0.29,0.2l-0.09,0.07l-0.18,0.18l-0.09,0.09l0.11,0.13l0.13,0.22l0.1,0.26l0.02,0.26l-0.07,0.29l-0.11,0.06l-0.14-0.03
		l-0.16,0.03l-0.27,0.16l-0.19,0.18l-0.08,0.11l-0.09,0.15l-0.12,0.15l-0.19,0.11l0.15,0.26l0.12,0.37l0.08,0.38l0.03,0.29
		l0.09,0.22l0.45,0.54l1.58,1.27l0.39,0.45l-1.23-0.57l-0.21-0.2l-0.2-0.13l-1.12-1.32l-0.34-0.02l-1.16,0.36l0,0.32l-0.3,1.74
		l0.31,0.13l0.61-0.14l0.32,0.25l0.21,0.28l0.25,0.25l0.29,0.18l0.33,0.06l0.53,0.22l0.94,0.94l0.58,0.21l0.11,0.11l0.07,0.47
		l0.06,0.11l2.48,1.8l0.81,0.93l0.39,0.62l0.35,0.7l0.58,1.57l0.23,0.96l0.67,4.74l0.22,0.79l0.32,0.64l0.62,0.48l0.76,0.25
		l0.7,0.35l0.44,0.78l-0.39-0.33l-0.4-0.21l-0.45-0.1l-0.54-0.03l0.41,0.25l0.39,0.4l0.2,0.54l-0.17,0.67l0.11,0.3l0.06,0.7
		l0.07,0.34l-0.23-0.19l-0.15-0.4l-0.07-0.51l-0.02-0.51l0.05-0.4l-0.03-0.23l-0.14-0.31l-0.15-0.18l-0.56-0.33l-0.67-0.66
		l-0.6-0.78l-0.59-1.44l-0.07-0.28l-0.33-2.3l-0.23-0.92l-0.04-0.5l-0.2-0.75l-0.49-0.73l-2.12-2.36l-0.27-0.09l-0.74-0.42
		l-1.18-0.91l-0.15-0.2l-0.19-0.3l-0.05-0.13l0-0.14l0.04-0.13l0.05-0.08l0.01-0.29l0.01-0.18l-0.04-0.11l-0.19-0.09l-0.28,0.11
		l-0.25,0.38l-0.6,1.21l-0.11,0.37l-0.31,5.24l-0.73,3.92l-1.07,12.15l0.12-0.27l0.15-0.59l0.2-1.08l0.79-1.21l0.11-0.23l0.04-0.04
		l0.02-0.1l0.03-0.11l0.07-0.08l0.12-0.01l0.08,0.06l0.07,0.08l0.08,0.05l0.19,0.09l1.32,1.24l0.17,0.36h-0.24l0.43,0.45l0,0.38
		l-0.35,0.25l-0.62,0.09l-1.07-0.26l-0.44,0.02l-0.35,0.43l-0.31,1.12l-0.04,0.29l-0.07,0.16l-0.46,0.67l-0.02,0.21l0.15,0.7
		l0.04,0.36l-0.12,1.51l-0.48,3.43l-1.13,6.88l-0.62,3.14l-0.41,1.38l-0.72,3.96l-0.42,1.38l-0.12,0.75l-0.28,0.9l-0.13,0.28
		l-0.92,0.72l-0.15,0.19l-0.08,0.27l-0.38,0.74l-0.15,0.21l-0.33,0.24l-0.39,0.21l-0.41,0.15l-1.55,0.25l-0.32,0.13l-0.13,0.18
		l-0.28-0.2l-0.1,0.67l-0.01,0.5l0,0.29l0.5,0.24l0.22,0.29l0.06,0.47l0.09,0.19l0.19-0.03l0.21-0.1l0.38-0.05l0.35-0.15l0.16,0.02
		l0.33,0.16l0.17,0.12l0,0.12l-0.05,0.14l0.03,0.21l0.13,0.41l0.09,0.11l0.21,0.1l0.19,0.03l0.22-0.03l0.19-0.11l0.1-0.21l0.14-0.41
		l0.26-0.16l0.35,0.01l0.55,0.16l0.73,0.38l0.19-0.03l0.19-0.07h0.21l0.5,0.52l0.07,0.87l-0.19,0.96l-0.27,0.76l-0.22,0.3
		l-0.72,0.78l-0.14,0.2l0.22,0.52l0.32,0.36l0.39,0.23l0.43,0.11l0.48,0.04l0.3-0.1l0.15-0.32l0.04-0.62l0.12-0.48l0.3-0.34
		l0.39-0.15l0.39,0.11l-0.37,0.32l-0.14,0.31l0.08,0.32l0.29,0.34l0.33,0.2l1.01,0.18l0.6,0.33l0.57,0.46l0.66-0.06l0.15,0.06
		l0.29,0.19l0.13,0.11l0.6,0.08l0.29,0.08l0.21,0.25l0.61,0.46l0.67,0.22l1.4,0.12l1.35-0.25l0.47,0.17l0.33,0.84l-0.01,0.17
		l-0.06,0.11l-0.02,0.13l0.1,0.22l0.18,0.18l0.17,0.02l0.17-0.03l0.18,0.03l0.6,0.37l0.31,0.26l0.68,0.91l0.03,0.11l-0.03,0.1
		l0,0.09l0.11,0.05h0.29l0.08,0.03l0.1,0.14l-0.02,0.15l0,0.14l0.17,0.11l0.14-0.02l0.29-0.2l0.15-0.05l0.03-0.56l0.45,0.01
		l0.95,0.45l0.53-0.04l0.42-0.25l0.84-0.67l0.15,0.16l0.14-0.05l0.12-0.18l0.09-0.23l0.27,0.25l1.06,0.64l0.21,0.44l0.47,0.06
		l0.51-0.14l0.31-0.13l-0.04,0.41l0.1,0.41l0.21,0.35l0.29,0.24l0.11,0.13l0.02,0.17l0.05,0.15l0.19,0.08l0.22,0.06l0.12,0.11
		l0.08,0.12l0.1,0.11l0.69,0.28l0.6-0.06l1.35-0.5l1.07-0.16l0.33-0.22l0.28-0.04l0.93,0.24l0.28,0.14l0.38,0.67l0.27,0.33
		l0.26-0.04l0.49-0.69l0.31-0.31l0.32-0.12l0.48,0.41l0.04,0.08l-0.01,0.1l0.01,0.09l0.09,0.09l0.35,0.07l0.34-0.02l0.67-0.17
		l0.29,0.12l2.18-0.06l0.62,0.08l0.23-0.08l0.15-0.25l0.02-0.39l-0.12-0.36l-0.21-0.27l-0.25-0.09l0.11-0.24l0.07-0.1l0.13-0.1
		l-0.19-0.27l0.25-0.66l-0.04-0.51l0.08-0.34l0.4-0.16l0.48-0.04l0.31,0.03l0.6,0.24l0.31,0.07l0.34-0.03l0.3,0.05l0.76,0.44
		l0.52,0.2l0.15,0.12l0.28,0.27l0.19,0.08l0.17-0.08l0.16-0.14l0.18-0.06l0.15,0.06l0.29,0.24l0.13,0.08l1.49,0.1l0.37,0.12
		l0.31,0.28l0.17,0.34l0.13,0.37l0.18,0.33l0.3,0.22l0.19,0.02l0.59-0.19l2.16,0.01l0.41,0.11l-0.08,0.34l0.09,0.1l0.17,0.01
		l0.15,0.08l0.31,0.55l0.34,0.46l0.29,0.81l0.25,0.33l0.39-0.16l0.27-0.93l0.55,0.03l0.51-0.2l0.27-0.02l0.95,0.65l0.19,0.09
		l1.99,0.2l-0.15,0.48l0.28,0.18l0.41,0.13l0.22,0.31l-0.44,0.04l-0.32,0.31l-0.19,0.49l-0.06,0.59l0.05,0.03l0.04,0.05l0.01,0.06
		l-0.01,0.08l0.32,0.13l1.09,0.15l0.37,0.15l0.98,0.68l0.41,0.09l0.33,0.02l0.27,0.12l0.24,0.39l0.23,0.89l0.16,0.36l0.35,0.3
		l0.21,0.14l0.24,0.04l0.46-0.05l0.29-0.07l0.2-0.13l0.29-0.31l0.42-0.32l0.08-0.14l0.13-0.35l0.08-0.12l0.28-0.13l0.83,0.1
		l1.08-0.34l0.55-0.06l0.49,0.28l0.21,0.17l1.02,0.48l0.54,0.12l0.28,0.01l0.13,0.38l0.27,0.37l0.34,0.27l0.32,0.09l0.36,0.2
		l0.19,0.06l0.18-0.01l0.12-0.11l0.14-0.38l0.14-0.12l0.34-0.01l0.81,0.28l0.39,0.07l0.47-0.02l-0.01-0.11l-0.22-0.24l-0.16-0.45
		l0.14-0.21l0.74-0.58l0.31-0.16l0.36-0.03l0.68,0.11l0.37-0.06l0.28-0.17l0.53-0.52l0.28-0.16l0.28-0.03l0.3,0.01l0.29-0.05
		l0.58-0.45l0.56,0.22l0.3-0.2l0.19,0.04l0.51,0.02l0.12,0.03l0.11,0.26l0.14,0.22l0.17,0.18l0.21,0.13l0.36,0.12l0.45,0.05
		l0.46-0.02l1.19-0.21l0.03-0.14l-0.01-0.58l-0.57-0.79l-1.22-1.23l-0.18-0.47l-0.2-1.79l0.01-0.28l-0.05-0.13l-0.1-0.06l-0.24,0.01
		l-0.08-0.04l-0.12-0.18l-0.08-0.18l0.02-0.21l0.17-0.24l0.22,0.33l0.1,0.09l0.06-0.17l0.2-1.2l0.02-0.43l-0.03-0.42l-0.08-0.41
		l-0.11-0.2l-0.2-0.09l-0.49-0.16l-0.28-0.03l-0.15-0.08l-0.12-0.15l-0.11-0.33l-0.13-0.16l0.69-0.73l0.21-0.11l0.07-0.13
		l-0.02-0.54l0.07-0.13l0.15,0.04l0.25,0.13l0.12-0.02l0.28-0.27l-0.08-0.23l-0.48-0.4l-0.2-0.35l-0.04-0.38l0.15-0.28l0.38-0.06
		l-0.23,0.43l-0.06,0.21l0.08,0.19l0.2,0.07l0.1-0.19l0.08-0.26l0.14-0.13l0.07-0.14l0.06-0.3l0.05-0.62l0.07-0.25l0.34-0.37
		l0.08-0.29l-0.13-0.22l-0.29-0.18l-0.29-0.33l-0.13-0.66l0.08-0.17l0.21-0.07h0.49l0.07,0.08l-0.16,0.17l-0.34,0.25v0.15l0.24,0.13
		l0.11,0.16l0.08,0.09l0.17-0.04l0.49-0.75l0.1-0.29l0.22-0.25l0.41-0.37l0.13-0.23l0.17-0.46l0.12-0.21l0.29-0.37l2.41-1.84
		l0.63-0.32l0.42-0.08l0.7,0.35l0.37-0.16l1.44-1.77l0.57-0.48l1.97-1.07l3.49-2.88v-0.18l-0.59,0.2l-0.53,0.44l-0.92,1.02
		l-0.9,0.79l-0.57,0.31l-0.59,0.04v-0.15l1.48-0.62l0.23-0.29l0.05-0.37l0.13-0.23l1.14-0.96l0.48-0.29l1.08-0.33l0.79-0.57
		l0.52-0.18l0.98-0.14l-0.17,0.36l-0.21,0.23l-0.29,0.14l-0.41,0.1l-0.82,0.07l-0.39,0.12l-0.23,0.29l0.59-0.28l1.06-0.11l1.01,0.11
		l0.45,0.37l0.03,0.09l0.35,1.27l0.1,0.21l0.13,0.15l0.37,0.19l0.43,0.09l5.42,0.18l0.77,0.16l0.46,0.37l0.03,0.42l-0.13,0.49
		l-0.16,0.41l-0.04,0.17l0.47,0.24l0.71,0.2l2.57,0.12l0.62-0.24l-0.42-0.46l-0.53-0.38l-0.48-0.49l-0.24-0.81v-1.73l-0.07-0.25
		l-0.52-0.83v-0.15l0.3,0.18l0.25,0.35l0.18,0.42l0.11,0.37l0.04,0.41l-0.04,1.41l0.27,0.63l0.59,0.56l0.73,0.41l0.68,0.2
		l-0.13-0.39l-0.17-0.15l-0.08-0.13l0.15-0.33l0.16-0.15l0.43-0.1l0.19-0.15l0.44-0.2l0.96,0.55l0.34-0.12l0.44,0.12l0.42-0.29
		l0.19-0.54l-0.21-0.6l-0.26-0.21l-0.21-0.12l-0.16-0.2l-0.1-0.46l0.03-0.18l0.08-0.33l0.12-0.32l0.12-0.16l0.11,0.07l0.25,0.34
		l0.07,0.08l0.41-0.02l0.14,0.02l0.36,0.12l0.09,0.12l0.01,0.21l0.13,0.37l0.38,0.44l0.45,0.08l0.49-0.18l0.51-0.34l0.07,0.57
		l-0.23,0.54l-0.36,0.44l-0.33,0.27l-0.48,0.15h-1.56l-0.54,0.31l-0.24,0.49l0.09,0.54l0.46,0.48l0.43,0.12l1.1-0.02l0.25-0.1
		l0.77,0.11l2.34-0.53l0.49,0.34v1.24l0.08,0.14l0.12,0.13l0.12,0.08l0.05-0.02l-0.02,0.18l-0.04,0.15l-0.15,0.39l-0.13,0.24
		l-0.05,0.24l0.13,0.24l0.22,0.08l0.51-0.03l0.24,0.13l0.27-0.1l0.45-0.03l0.42,0.06l0.19,0.15l0.1,0.11l0.21-0.05l0.23-0.13
		l0.3-0.23l0.15,0.08l0.43,0.58l0.13,0.12l0.24,0.09l0.09,0.08l0.1,0.06l0.11,0.03l0.11-0.05l0.05-0.11l0.04-0.12l0.06-0.05
		l0.9,0.04l0.34,0.18l-0.11,0.43l0.65,0.36l0.34,0.11l0.39,0.04l0.16,0.07l0.04,0.33l0.16,0.07l0.32,0.02l0.12,0.05l0.11,0.09
		l-0.57,0.29l-0.13,0.21l0.1,0.33l0.17,0.12l0.85,0.37l0.41,0.02l0.17-0.12l0.07-0.33l0.12-0.18l0.29,0.01l0.55,0.11v-0.16
		l-0.29-0.13l-0.38-0.42l-0.29-0.12l0.51-0.26l0.28-0.08l0.29,0.01l-0.05,0.12l-0.03,0.23l-0.04,0.14l0.42-0.18l0.54-0.01l0.51,0.12
		l0.33,0.23l0.12,0.08l1.27,0.08l0.16,0.11v0.24l-0.11,0.39l-0.09,0.08l-0.62,0.01v0.15l0.33,0.07l1.17,0.01l0.3-0.08v-0.15h-0.15
		l-0.12-0.04l-0.22-0.12l0.17-0.5l0.05-0.41l0.12-0.33l0.38-0.24l0.2-0.04l1.19,0.04l0.14,0.03l0.27,0.11l0.19,0.03l0.19,0.1
		l0.08,0.23l0.04,0.22l0.06,0.11l0.63,0.02l0.16-0.14l-0.26-0.38l0.09-0.18l-0.01-0.15l0.01-0.19l0.14-0.3l0.16-0.12l0.56-0.04
		l0.35-0.19l0.36-0.14l0.21-0.01l0.43,0.05l0.2-0.04l0.26-0.21l0.28-0.28l0.33-0.21l0.45,0.05l0.18,0.15l0.07,0.2l0.04,0.19
		l0.07,0.11l0.19,0.04l0.34-0.16l0.19-0.05l-0.12-0.33l0.73-0.58l0.11-0.15l-0.04-0.07l-0.09-0.09l-0.08-0.11l-0.03-0.14l0.04-0.23
		l0.06-0.09l0.07-0.06l0.07-0.12l0.16-0.4l-0.04-0.14l-1.68,0.08l-0.11-0.04l0.04-0.2l0.27-0.22l0.46-0.25l0.39-0.06l0.16-0.18
		l0.08-0.26l0.15-0.32l0.28-0.24l0.27-0.1l0.2-0.15l0.13-0.71l0.13-0.44l0.19-0.42l0.23-0.25l0.34,0.27l0.44,0.12l0.9-0.04l0-0.09
		l0.08-0.18l0.11-0.11l0.05,0.13l0.04,0.07l0.11,0.04l0.12,0l0.1-0.02l0.09-0.11l0.04-0.33l0.05-0.07h0.13l0.07-0.02l0.04-0.05
		l0.63-1.11l0.03-0.06l0.01-0.01l0.02-0.39l-0.03-0.01l0.23-0.38l0.27-0.22l0.28-0.16l0.29-0.23l0.4,0.17l0.43-0.14l0.45-0.24
		l0.46-0.12l0.05,0.08l0.03,0.17l0.07,0.13l0.16-0.05l0.08-0.09l0.02-0.1l-0.01-0.13l0.02-0.18l-0.01-1.14l0.06-0.18l0.13-0.1
		l0.13-0.23l0.18-0.23l0.29-0.1l0.25-0.02l0.2-0.07l0.16-0.1l0.16-0.14l0.34-0.5l0.2-0.18l0.24,0.1l0.17,0.03l0.85-0.11l-0.08,0.23
		l-0.04,0.09l0.34-0.05l0.08-0.23l0.02-0.29l0.16-0.24l0.29-0.07l0.05-0.32l0.26-0.29l0.34-0.14l0.4,0.23l0.12-0.18l0.17-0.07
		l0.18,0.02l0.12,0.04l0.1,0.01l0.14-0.07l0.01-0.09l-0.03-0.31l0.02-0.09l0.07-0.03l0.07,0.01h0.08l0.23-0.16l-0.35-1.17
		l-0.09-0.61l0.27-0.5l0.76-0.83l0.35-0.57l0.9-0.76l0.39-0.43l0.14-0.28l0.14-0.54l0.11-0.3l0.19-0.22l0.25-0.2l0.2-0.26l0.03-0.42
		l-0.28-0.59l-0.38-0.38l-0.22-0.46l0.24-0.79l-0.54-0.09l-0.72,0.47l-0.51,0.04l-3.04,0.88l-0.71-0.02l-0.17-0.04l-0.16-0.16
		l-0.1-0.21l-0.12-0.18l-0.23-0.09l-0.46-0.08l-0.33-0.13l-1.86-1.15l-0.7-0.26l-1.03-0.55l-0.22-0.06l-0.24,0.02l-0.21,0.07
		l-0.21,0.04l-0.23-0.1l-0.16-0.18l-0.08-0.21l-0.06-0.23l-0.11-0.24l-0.16-0.19l-0.34-0.25l-0.16-0.16l-0.1-0.19l-0.21-0.49
		l-0.14-0.24l-0.39-0.46l-0.07-0.11l-0.06-0.23l0.01-0.12l0.04-0.15l0.15-0.76l0.12-0.21l0.59-0.32l-0.46-0.39l-0.53-0.56
		l-0.39-0.69l-0.06-0.76l0.19-0.33l0.89-0.69l0.6-1.04l0.25-0.19l-0.2-0.52l0.13-0.49l0.32-0.4l0.4-0.22l0.32-0.01l0.63,0.19
		l0.31-0.01l-0.1-0.32l-0.53-1l-0.07-0.21l-0.1-0.61l-0.2-0.54l0.01-0.03l0.09-0.38l0.03-0.02l-0.01-0.12l0.02-0.06l0-0.08
		l-0.04-0.14l-0.07-0.12l-0.32-0.35l-0.88-0.36l-0.31-0.03l-0.86,0.18l-0.33-0.09l-1.21-0.7l-0.58-0.5l-0.3-0.52l0.03-1.38
		l-0.11-0.71l-0.46-0.34l-0.61-0.05l-0.19-0.16l-0.21-0.37l-0.05-0.23l0.02-0.2l-0.03-0.18l-0.29-0.25l-0.31-0.47l0.21-0.28
		l0.32-0.26l0.61-0.35l0.16-0.03l0.32,0.01l0.14-0.03l0.15-0.09l0.32-0.24l0.13-0.07l0.61,0.1l0.64,0.35l0.63,0.22l0.57-0.27
		l0.04-0.15l-0.11-0.11l-0.08-0.14l0.09-0.21l0.14-0.06l0.41-0.01l0.16-0.04l0.26-0.23l0.3-0.53l0.23-0.22l0.63-0.29l0.62-0.17
		l0.14,0.06l0.22,0.26l0.1,0.04l0.12-0.12l0.33-0.61l0.47-0.4v-0.39l-0.19-0.5l-0.09-0.72l0.09-0.15l0.57-0.68l0.36-0.65l0.15-0.38
		l0.02-0.31l-0.14-0.11l-0.75-0.33l-0.23-0.17l-0.14-0.28l-0.12-0.31l-0.17-0.28l-0.77-0.57l-0.8-0.45l-0.13-0.36l-0.1-1.03
		l-0.07-0.18l-0.19-0.29l-0.03-0.2l0.05-0.21l0.2-0.44l0.04-0.14l-0.11-0.37l-0.22-0.15l-0.57-0.14l-0.23-0.18l-0.4-0.4l-0.24-0.08
		l-0.46-0.1l-0.47-0.35l-0.36-0.53l-0.19-1.04l-0.05-0.45l0.02-0.45l0.09-0.41l0.23-0.37l0.27-0.16l0.52-0.07v-0.04l0.05-0.11
		l0.08-0.12l0.08-0.07l0.06,0.01l0.14,0.1l0.06,0.01l0.12-0.02l0.43,0.01l0.38-0.11l0.4-0.2l0.35-0.3l0.24-0.4l0.11-0.34l0.14-0.3
		l0.19-0.23l0.25-0.12l-0.12-0.21l-0.1-0.25l-0.12-0.46l-0.2-0.52l-0.06-0.27l-0.08-0.06l-1.18-1.34l-0.4-0.17l-0.15,0.06
		l-0.12,0.12l-0.14,0.1l-0.16-0.02l-0.15-0.12l-0.01-0.08l0.04-0.11l-0.01-0.2l0.03-0.02l0-0.26l-0.03-0.25l-0.05,0.02l0.08-0.13
		l0.14-0.18l0.12-0.19l0.02-0.2l-0.26-0.26l-1.4-0.3l-0.15-0.42l0.16-0.87l0.3-0.9l0.62-1.2l-0.4-0.69l-0.62-0.65l-0.34-0.58
		l0.1-0.29l0.46-0.54l0.12-0.42l-0.04-0.48l-0.16-0.25l-0.26-0.13l-2.61-0.67l-1.16-0.04l-1.12,0.22l-1.49,1.02l-0.57,0.15
		l-0.58,0.03l-0.54,0.17l-0.56,0.49l-0.5,0.66l-0.37,0.5l-0.09,0.34l0.07,0.25l0.16,0.43l0.01,0.1l0.17,0.42l0.07,0.11l0.19,0.1
		l0.29-0.14l0.13,0.05l0.09,0.59l-0.45,0.47l-1.12,0.75l-0.89,1.04l-0.57,0.29l-0.6-0.27l-0.8,0.03l-0.79,0.19l-0.42,0.25l0.23-0.55
		l0.13-0.25l0.06-0.22l-0.31-0.39l-0.18-0.35l0.06-0.3l0.43-0.27l1.05-0.52l0.03-0.01h0.06l0.14,0.05l0.11,0.01l0.1-0.01l0.39-0.12
		l0.07-0.16l-0.01-0.24l0.01-0.27l0.12-0.72l0.06-0.2l0.57-1.27l-0.03-0.28l-0.21-0.38l-0.26-0.28l-0.94-0.58l0.2-0.19l0.03-0.17
		l-0.03-0.17v-0.2l-0.02-0.08l-0.04-0.1l-0.04-0.12v-0.13l0.07-0.15l0.2-0.22l0.61-1.05l0.62-0.78l-0.42-0.47l-0.05-0.34l0.24-0.31
		l2.35-2.16l1.26-0.69l0.17-0.15l0.46-0.52l0.58-0.31l0.19-0.14l0.19-0.25l0.07-0.21l0-0.43l-0.13-0.14l-0.09-0.13l-0.05-0.14
		l0.03-0.13l0.27-0.83l0.12-0.22l0.1-0.25l0.03-0.36l-0.05-0.28l-0.24-0.44l-0.07-0.23l0.26-0.9l0.85-0.49l1.88-0.59l1.17-0.89
		l0.39-0.57l-0.21-0.48l0.23-0.41l0.16-0.16l0.44-0.16l0.06-0.16l0.06-0.04l0.25-0.13l-0.02-0.44l0.52-0.18l1.14-1.06l0.34-0.55
		l0.51-0.52l1.19-0.88l-0.07-0.63l0.11-0.53l0.33-0.34l0.16-0.02l0.09-0.04l0.25-0.35l0.19-0.11l0.18-0.05l0.16-0.11l0.14-0.29
		l-0.19-0.26l-0.26-0.24l-0.26-0.21l-0.32,0.16l-2.08,0.2l0.09-0.33l0.22-0.4l0.26-0.34l0.46-0.27l0.03-0.48l0.46-0.1l0.29-0.16
		l0.26-0.22l0.13-0.22l-0.08-0.31l-0.18-0.35l-0.05-0.29l0.33-0.1l0.16-0.12l0.15-0.04l0.16,0.04l0.16,0.12l0.46,0.07l0.87-0.15
		l0.41,0.08l0.23,0.13l0.23,0.04l0.48-0.05l-0.32,0.73l0.1,0.42l0.38,0.23l0.51,0.17l0.07,0.06l0.05,0.09l0.07,0.1l0.13,0.06
		l0.12-0.03l0.66-0.29l0.46-0.1l1.21,0.05l0.49-0.19l0.35-0.46l0.05-0.24l-0.03-0.15l-0.08-0.12l-0.06-0.06l-0.09-0.16v-0.16
		l0.2-0.06l0.28,0.09l0.22,0.14l0.23,0.03l0.27-0.24l0.03-0.05l0.03-0.07v-0.07l-0.02-0.06l-0.13-0.18l-0.04-0.1l0.02-0.08
		l0.11-0.05l0.18,0.04l0.14-0.05l0.07-0.15l-0.01-0.26l-0.06,0.01l-0.29-0.23l-0.04-0.01l0.76-0.62l0.42-0.24l0.62-0.22l-0.04,0
		l0.04-0.02l0.07-0.26l0.04-0.09l-0.04-0.25l-0.09-0.13l-0.11-0.1l-0.11-0.13l-0.39-0.79l-0.24-0.33l-0.26-0.13l-0.07-0.12
		l-0.06-0.28l-0.05-0.55l0.06-0.16l0.29-0.3l0.1-0.17l0.01-0.42l-0.22-0.91l0.05-0.37l0.25-0.84l0.09-0.13l0.24-0.13l0.04-0.29
		l-0.1-0.49l0.01-0.12l-0.02-0.06l-0.01-0.07l0.02-0.11l0.05-0.12l0.12-0.11l0.07-0.13l0.11-0.26l0.03-0.12l-0.02-0.42l0.09-0.35
		l0.47-0.5l0.16-0.31l-0.04-0.81l-0.76-1.34l-0.05-1.08l0.11-0.51l0.12-0.4l0.12-0.23l0.12-0.16l0.09-0.21l0.04-0.38l0.12-0.32
		l1.1-1.55l0.18-0.38l0.11-0.44l0.04-0.53l0.12-0.55l0.28-0.23l0.32-0.17l0.24-0.39l0.02-0.37l-0.09-0.35l-0.11-0.34l-0.06-0.32
		l0.02-0.34l0.13-0.7l0.09-0.3l0.12-0.25l0.12-0.17l0.08-0.25l0.04-0.5l0.09-0.24l0.21-0.22l0.44-0.35v-0.18l-0.21-0.56v-0.92
		l0.15-0.86l0.74-1.15l0.21-0.15l0.29-0.09l0.27-0.23l0.47-0.57l0.21-0.14l0.23-0.23l0.18-0.25l0.08-0.21l0.02-0.51l0.1-0.23
		l0.19-0.07l0.5,0l0.13-0.05l0.1-0.09l0.04-0.14l0.04-0.25l0.08-0.14l0.08-0.08l0.04-0.07l0.15-0.01l0.64-0.34l0.11-0.09l0.22-0.37
		l0.8-2.19l0.54-1.03l0.37-0.42l-0.21-0.19L522.88,230.83z M416.18,394.46l-0.17,0.04h-0.05l-0.4-0.06l-0.23-0.18l-0.03-0.3
		l0.19-0.42l0.2-0.09l0.18,0.26l0.18,0.4l0.19,0.34L416.18,394.46z"/>
</g>
<g id="copyright">
</g>
</svg>
