<?xml version="1.0" encoding="utf-8"?>
<!-- Generator: Adobe Illustrator 26.1.0, SVG Export Plug-In . SVG Version: 6.00 Build 0)  -->
<svg version="1.2" baseProfile="tiny" xmlns="http://www.w3.org/2000/svg" xmlns:xlink="http://www.w3.org/1999/xlink" x="0px"
	 y="0px" viewBox="306.32 134.67 218.09 322.4" overflow="visible" xml:space="preserve">
<g id="Background">
</g>
<g id="Scotland">
	<path fill="none" stroke="#FFFFFF" stroke-miterlimit="10" d="M347.13,304.18l0.49-0.57l-0.25-0.55l-0.52,0.12l-1.17,1.28
		l0.65,0.09L347.13,304.18z M355.32,277.68l0.35,0.2v0.33l-0.09,0.02l-0.29-0.02v0.36h2.25l-0.12-0.47l-0.17-0.38l-0.21-0.31
		l-0.25-0.26l-0.28,0.18l-0.89-1.02l-0.52-0.24l-0.17,0.53l0.11,0.59L355.32,277.68z M380.2,314.3l0.01-0.83l0.35-1.97l-0.18-0.25
		l-0.19,0.04l-0.19,0.22l-0.19,0.3l0.06,0.2l0.01,0.05l0.12,0.14l-0.32,0.64l-0.07,0.68l0.17,0.54L380.2,314.3z M377.55,323.03
		l-0.09,0.21l-0.04,0.15l-0.07,0.37l0.47,0.3l0.44-0.17l0.43-0.33l0.45-0.18l0.47-0.38l-0.16-0.84l-0.38-0.84l-0.22-0.37l-0.02-1.56
		l0.4-1.77l0.45-1.5l0.12-0.77l-0.13-0.29l-0.17-0.21l-0.21-0.14l-0.24-0.07l0.39,0.7v0.37l-0.56-0.34l-0.28,0.03l-0.31,0.32
		l0.23,0.54l0.15,0.27l0.19,0.24v0.35l-0.79,0.1l-0.45,0.4l-0.21,0.85l-0.22,3.28l0.05,0.85L377.55,323.03z M307.63,298.45
		l-0.43-0.35l0.29,1.06l0.55,0.41l0.6-0.14l0.46-0.59l-0.47-0.25L307.63,298.45z M345.68,324.86l-0.26-0.42l-0.32-0.33l-0.43-0.14
		l-0.85-0.01l-0.41-0.2l-0.35-0.62l-0.11-0.11l-0.67-0.32l-0.22-0.05l-0.25,0.03l-0.2-0.1l-0.08-0.43l-0.06-0.22l-0.15-0.25
		l-0.18-0.23l-0.17-0.16l0.62-0.35l0.55,0.55l0.54,0.81l1.14,0.68l0.51,0.51l0.59,0.29l0.76-0.4v-0.35l-0.61-0.09l-0.86-0.83
		l-0.61-0.12v-0.34l0.53,0.2l0.19-0.02l0.23-0.18l-2.46-1.74l-0.27,0.01l-1.26,0.62l-0.54,0.41l0.74,2.3l0.32,1.54l-0.2,0.71
		l-0.35,0.11l-0.14,0.3l-0.06,0.44l-0.13,0.54l-0.36,0.96l-0.21,0.36l-0.35,0.41l0.36,0.1l0.3,0.27l0.47,0.67V330l-0.16,0.59
		l0.1,0.82l0.72,2.66l0.24,0.54l0.8,0.95l0.86-0.52l2.27,0.47l0.64-0.68v-0.32l-0.55-0.05l-0.34-0.42l-0.32-0.54l-0.48-0.4
		l-0.42-0.05l-0.99,0.14l-0.49-0.09v-0.35l1.06-0.06l0.53,0.1l0.48,0.3l0.31-0.6l0.06-1.01l-0.12-1.07l-0.24-0.78l-0.49-0.5
		l-1.77-0.54v-0.32l2.12,0.57l0.53-0.25l0.2-0.41l0.29-1.04l0.16-0.46l0.33-0.39l0.32-0.17l0.26-0.28l0.14-0.74l-0.45,0.04
		L345.68,324.86z M352.54,303.24l0.51-0.54l1.68-1.17l0.57-0.59l-0.13-0.1l-0.13-0.15l-0.13-0.1l0.72-0.6l0.3-0.34l0.3-0.5
		l-0.18-0.2l-0.23-0.36l-0.15-0.12l0.19-0.38l1.28,0.96l0.61,0.1v-0.32h-0.21v-0.36l0.49,0.06l0.49-0.1l0.38-0.26l0.14-0.41
		l-0.11-0.29l-0.64-1.18l-0.25-0.17l-0.59-0.26l-0.31-0.22l0.23-0.36l0.14-0.33l0.15-0.26l0.26-0.17l0.96,0.56l2.25,0.56l-0.11-1.09
		l-0.07-0.35l-0.13-0.12l-0.22-0.08l-0.24-0.14l-0.19-0.33l0.2-0.04l0.14-0.11l0.12-0.13l0.15-0.1l-0.26-0.36l-0.27-0.48l-0.32-0.42
		l-0.39-0.19l-0.3-0.32l-0.58-1.56l-0.36-0.56l0.54-0.35l0.78-0.74l0.64-0.83l0.12-0.59v-0.33h2.65v0.33l-1.03,0.07l-1,0.33
		l-0.79,0.76l-0.41,1.36l0.05,0.74l0.22,0.7l0.75,1.55l0.17,0.63l0.14,0.27l0.27,0.25l0.88,0.46l0.19-0.33l-0.21-0.36l-0.26-0.62
		l-0.15-0.59l0.14-0.26l0.26,0.11l0.15,0.28l0.24,0.7l0.34,0.56l0.42,0.4l0.51,0.11l0.61-0.32v-0.38l-0.12-0.11l-0.13-0.15
		l-0.12-0.09v-0.39l0.5,0.14l0.35,0.2l0.34,0.03l0.49-0.37l0.23-0.34l0.45-0.82l0.26-0.21v-0.36l-0.39-0.53l-0.98-0.29l-0.43-0.43
		l-0.59-0.26l-0.24-0.23l0.16-0.39l0.15,0.02l0.58,0.24l2.58,0.45l0.65-0.18l0.44-0.45l0.39-0.58l0.51-0.6l-0.35,0.04l-0.35-0.05
		l-0.33-0.12l-0.29-0.22l0.26-0.05l0.24-0.13l0.23-0.21l0.21-0.3l-0.27-0.3l-0.11-0.09l0.04-0.68l-0.15-0.66l-0.28-0.52l-0.36-0.26
		l-0.37,0.06l-0.84,0.52l-3.58,0.87l-1.05-0.03v-0.36l0.44,0.04l1.43-0.39l0.75-0.71l0.26,0.04l0.42,0.3l0.26,0.02l0.41-0.27
		l0.92-1.15l1.39-0.32l0.49-0.4l-0.12-0.39l-0.02-0.26l0.1-0.21l0.23-0.23l-0.3-0.59l-0.64-1.9l0.42,0.01l0.82,0.54l0.46,0.16
		l1.23-0.16l0.46,0.16l0.81,0.56l0.38,0.06l0.5-0.27l0.1-0.15l0.26-0.5l0.19-0.24l0.24-0.17l0.72-0.36l-0.13-0.52l-0.07-0.19
		l0.12-0.17l0.13-0.32l0.13-0.26h-0.17v-0.32l0.26-0.39l-0.29-0.04l-0.51,0.18l-0.42,0.25l-1.33,1.45l-0.76,0.34l-1.1,0.08
		l-1.01-0.32l-0.51-0.84l0.76-0.02l0.31-0.11l0.25-0.26l0.04-0.39l-0.08-0.46l0.06-0.38l0.81-0.33l0.26-0.74l0.33-0.16l0.36-0.07
		l0.2-0.22l0.04-0.35l-0.14-0.46l0.45-0.52l1.23-0.94l0.59-0.3v-0.39l-0.4,0.02l-0.37-0.14l-0.31-0.26l-0.23-0.34l0.63-2.17
		l0.21-0.3l0.5-0.25l-0.09-0.55l-0.49-0.85l-0.13-0.83l-0.34-1.01l-0.49-0.94l-0.56-0.62l-0.66-0.05l-0.8,0.77l-1.36,1.8l-4.89,3.8
		l-0.69,0.94l-0.25,0.22l-1.74,0.94l-0.73,0.22h-0.94l-0.23,0.16l-0.17,0.26l-0.21,0.13l-0.33-0.2l-0.59,0.84l-2.25,2.02l0.3-0.02
		l0.18,0.11l0.13,0.24l0.14,0.38l-0.18,0.02l-0.13,0.11l-0.11,0.13l-0.14,0.11l0.11,0.3l0.13,0.26l0.31,0.47l0.05,0.14l0.11,0.47
		l0.05,0.14l0.17,0.05l0.41-0.11l0.16,0.07l0.13,0.3l0.15,0.81l0.11,0.32l0.23,0.28l0.69,0.43l-0.75,1.1l-0.32-0.76l-0.67-0.65
		l-0.71-0.36l-0.46,0.14l-0.27,0.22l-1.23,0.31l-0.09,0.16l-0.04,0.37l-0.1,0.38l-0.27,0.2l0.16,0.5l0.42,0.91l0.19,0.33l-0.06,0.7
		l0.01,0.29l0.05,0.46l-0.37-0.52l-0.42-0.98l-0.29-1.09l0.03-0.8l-0.34-0.4l-0.57-0.89l-0.18-0.74l0.82,0.06v-0.36l-1.51-0.7
		l-0.2,0.18l-0.22-0.04l-1.07-0.59l-0.41-0.32l-0.53,0.64l-0.16,0.35l-0.06,0.64l0.12,0.63l0.29,0.28l0.72,0.34l-0.57,0.25
		l-2.07,0.14v0.32l0.15,0.08l0.2,0.21l0.2,0.09l-0.13,0.27l-0.07,0.19l-0.11,0.12l-0.24,0.09l0.02,0.52l-0.31,0.45l-0.09,0.66
		l0.13,0.28l0.24,0.11l0.15,0.22l-0.15,0.62l0.22,0.27l0.81,1.7l0.22-0.03l1.19-0.87l-0.13,0.38l-0.17,0.31l-0.21,0.23l-0.25,0.17
		h0.77v0.33l-0.32-0.08l-0.28,0.06l-0.22,0.25l-0.12,0.48l0.81,0.01l2.59-0.72l-1.67,0.96l-0.9,0.32l-0.83,0.13l0.06,0.16l0.01,0.06
		l0.02,0.05l0.08,0.11v0.33l-0.54-0.03l-0.36,0.31l-0.32,0.43l-0.45,0.38l1.3,1l0.23,0l0.35-0.3l0.23,0.82l0.73,0.28l1.59-0.08
		l0.42,0.17l0.72,0.75l0.37,0.17h1.6v0.35l-0.21,0.04l-0.52,0.34l0.08,0.17l0.09,0.15l0.21,0.24l-0.82-0.19l-0.82,0.19l-1.4,0.83
		v0.35l1.33,1.03l-1.32-0.04l-0.62,0.2l-0.34,0.58l-2.25,2.12l-0.11-0.64l-0.15-0.43l-0.23-0.24l-0.34-0.07l-0.43,0.13l0.02,0.32
		l0.2,0.39l0.12,0.38l0.3,0.22l1.66,2.11l0.27,0.16l1.4,1.67L352.54,303.24z M341.18,340.83l-0.08-0.42l-0.13-0.34l-0.25-0.22
		l-0.88-0.46l0.17-0.2l0.39-0.87l-0.12-0.15l-0.12-0.11l-0.14-0.06l-0.19-0.02l-0.18-0.27l-0.09-0.07l-0.13,0l-0.21,1.36l-0.51,0.44
		l-0.66,0.14l-0.67,0.5l0.28,0.37l0.07,0.57l-0.13,0.52l-0.32,0.23l-0.46,0.22l-0.31,0.48l-0.02,0.49l0.42,0.22l1.78,0.34l0.43-0.06
		l0.43-0.2l0.23-0.33l-0.15-0.47l0.2-0.11l0.21-0.17l0.22-0.24l0.22-0.32l0.24-0.19l0.8,0.03l-0.23-0.24L341.18,340.83z
		 M349.26,307.42l-0.61-0.01l-0.41-0.03l-0.36-0.27l-0.83,0.44l-0.45-0.28l0.49-0.33l0.17-0.43l-0.1-0.48l-0.35-0.48l-0.75,0.13
		l-1.29,0.98l-0.58,0.26l0.38,0.3l0.18,0.05v0.35l-0.58-0.07l-1.5-0.63l0.27-0.66l0.13-0.21l0.17-0.18v-0.32l-0.64,0.65l-0.87,1.26
		l-0.82,0.83l-0.49-0.66l0.54-0.32l0.21-0.03v-0.35l-1.87,0.33l-0.59-0.33l-0.45,0.85l-0.37,1.01l-0.43,0.88l-0.62,0.44v0.35
		l1.25,0.92l0.44,0.18l0.34,0.21l0.22,0.05l0.19-0.11l0.18-0.23l0.19-0.33l0.85,0.22l1.66,1.1l0.91,0.08l-0.53,0.36l-0.24,0.02
		l0.22,0.25l0.13,0.28l0.1,0.28l0.32,0.6l0.11,0.12l0.26,0.18l0.49,0.12l0.97-0.08l0.44,0.34l0.46-0.37l0.57-0.1l1.15,0.08
		l0.56-1.07l0.09-0.32l-0.1-0.34l-0.17-0.17l-0.47-0.18l-0.55-0.09l-1.62,0.47h-1.98v-0.38l1.16-0.95l0.36-0.1l0.13,0.17l0.24,0.67
		l0.19,0.21l0.17-0.02l0.39-0.25l0.2-0.07l1.61-0.15l0.67-0.48l0.54-1.12l-0.88,0.3l-0.45-0.02l-0.19-0.47l-0.09-0.69l-0.24-0.24
		l-0.8,0.06v-0.38l0.17-0.32l-0.03-0.21l-0.19-0.11l-0.32-0.03v-0.39h1.23l0.63,0.62l0.3,0.12l0.18,0.18l0.21,0.4l0.28,0.36
		l0.38,0.08l0.18-0.22l0.47-0.86l0.28-0.29l-0.25-0.63L349.26,307.42z M349.63,295.66l0.38-0.03l0.28-0.16l0.19-0.34l0.1-0.58
		l0.97,0.64l0.33-0.2l-0.01-1.11l-0.5-0.36l-0.61,0.29l-1.14,1.12l0.04,0.18l0.03,0.02l-0.01,0.11L349.63,295.66z M344.49,316.33
		l0.01-0.04l0.05-0.22l-0.3,0.04l-0.27-0.03l-0.22-0.12l-0.16-0.25l-0.31,0.3l-0.34,0.06l-0.34-0.11l-0.32-0.25l-0.65,0.04
		l-0.54,0.48l-0.37,0.8l-0.14,0.96l0.31,0.59l2.14,1.32l0.72,0.17l2.38-0.71l0.04-0.35l-0.22-0.35l-0.4-0.17l-0.64,0l-0.23-0.19
		l-0.15-0.51l0.52-0.04l0.62-0.58l0.38,0.23l0.17-0.31l-0.75-0.61l-0.19-0.09l-0.26,0.06l-0.23,0.12l-0.23,0.03l-0.23-0.21
		l0.11-0.09L344.49,316.33z M379.6,324.11l-0.66,0.41l0.17,0.7l0.63,0.67l0.73,0.3l0.91-0.37l-0.11-0.78l-0.73-0.73L379.6,324.11z
		 M470.46,226.73l0.16-0.33l0.07-0.73l0.48,0.15l0.57-0.58l1.02-1.43l0.2,0.29l0.22,0.03l0.53-0.32v0.36l-0.07,0.18l-0.14,0.56
		l1.2-1.45l0.47-0.05l0.04,1.17l0.28-0.17l0.2-0.31l0.54-1.27l0.29-0.29l0.22-0.58l0.52-0.28l1.3-0.07l-0.08-0.51l-0.26-1.15
		l-0.17-0.14l-0.38,0.46l-0.6,0.93l-0.4,0.13l-0.44-0.01l-0.42,0.08l-0.73,0.81l-0.9,0.18l-0.32,0.31l-0.09-0.19l-0.08-0.07
		l-0.21-0.07l0.69-0.86l0.41-0.37l0.41-0.27v-0.41l-0.69,0.06l-1.11,0.67l-0.66,0l0.41,0.61l0.16,0.16l-0.12,0.75l-0.2,0.18
		l-0.27-0.01l-0.33,0.17l-0.23,0.33l-0.45,0.82l-0.25,0.35l-0.36,0.27l-0.26,0.12l-0.19,0.28l-0.14,0.76l0.01,0.61L470.46,226.73z
		 M466.55,227.51l0.42,0.1l0.36,0.31l0.25,0.51l0.1,0.71l0.21,0.21l0.48-0.06l0.81-0.31v-0.37l-0.46-0.05l-0.22-0.44l-0.06-0.7
		v-0.85l0.13-0.27l0.61-0.94l0.18-0.46l-0.18-0.49l-0.26-0.26l-0.32-0.07l-0.36,0.08v-0.36h0.21v-0.4l-0.45-0.04l-0.29,0.31
		l-0.11,0.55l0.08,0.69l-0.03,0.36l0.15,0.92l-0.03,0.19l-0.31,0.1l-0.27,0.17l-0.28,0.03l-0.35-0.3V227.51z M472.48,231.18
		l0.41,0.61l0.06,1.21l0.58-0.36l1.2-0.19l0.49-0.55l-0.76-0.49l-0.17-0.32l0.17-0.62l0.08-0.07l0.08,0l0.04-0.06l-0.01-0.27
		l-0.64,0.38l-0.36,0.11l-0.33-0.09l-0.32-0.48l0.07-0.48l0.29-0.3l0.36,0.1l-0.24-0.27l-0.34-0.09l-0.76,0.03l0.08-0.2l0.09-0.17
		v-0.33l-0.39-0.05l-1.09,0.38l0.29,0.21l0.85,0.93l0.18,0.32l-0.13,0.62l-0.34,0.2l-0.44,0.06l-0.41,0.19l-0.57,1.02l0.43,0.4
		l0.59-0.21l-0.08-0.85l0.48-0.39L472.48,231.18z M486.98,175.98l0.66,0.3l0.41-0.62l-0.02-0.99l-0.12-0.46l-0.32-0.1l-0.64,0.1
		l-0.43,0.3l-0.19,0.26l-0.05,0.4l0.18,0.33L486.98,175.98z M512.67,154.63l0.65,0.69l0.92,0.21v-0.34l-0.29-0.37l0.03-0.34
		l0.16-0.22l0.09-0.03l0.14,0.44l0.34,0.13l0.67-0.04l0.65,0.29l0.22-0.13l0.08-0.69l-0.05-0.65l-0.12-0.48l-0.41-0.96l0.53-0.15
		l0.32-0.54l0-0.69l-0.48-0.56l0.15-0.11l0.01-0.05l0.05-0.18l-0.43-0.04l-0.43-0.17l-0.33-0.35l-0.13-0.62l0.38,0.31l0.39,0.08
		l0.39-0.12l0.36-0.28l-0.63-1.56l-0.38-0.71l-0.33-0.42l0.54,0.08l0.46,0.4l0.89,1.06l0.21-0.57l0.16-0.61l-0.48-1.09l-0.02-0.53
		l0.3-0.68l-0.13-0.1l-0.11-0.16l-0.14-0.08v-0.41l0.17-0.13l0.04-0.23l-0.01-0.76l-1.2-0.11l-0.57,0.19l-0.32,0.65l-0.29-0.97
		l-0.34,0.01l-0.33,0.54l-0.27,0.62l-0.12,0.42l-0.06,0.57l0.02,0.51l0.16,0.22l0.07,0.17l-0.26,0.83l-0.08,0.37l0.09,0.76
		l0.38,1.48l0.09,0.26l-0.31,0.15l-0.43-0.39l-0.3-0.66l0.09-0.67v-0.35l-0.91,0.18l-0.24,1.2l0.34,5.26L512.67,154.63z
		 M517.83,144.46l0.44,0.33l0.43,0.12l0.83-0.11l0.4-0.05l0.54,0.05l0.23,0.14l0.21,0.19l0.23,0.13l0.27-0.03l0.4-0.47l-0.19-0.55
		l-0.39-0.63l-0.19-0.68l0.2-0.32l1.13-1.17v-0.42l-0.17-0.16l-0.18-0.11l-0.19-0.08l0.54-0.03v-0.42l-0.18-0.68l0.35-0.4l0.55-0.33
		l0.42-0.48l-0.22-0.05l-0.53-0.34l0.53-0.32l0.22-0.03l-0.09-0.69l-0.22-0.45l-0.3-0.27l-0.35-0.17l-0.39-0.03l-0.16-0.08
		l-0.18-0.27l-0.26,0.43l-0.59,2.07l-0.25,0.3l-0.39,0.31l-0.33,0.17l-0.08-0.17l0.27-0.46l0.31-0.31l0.27-0.37l0.12-0.62
		l-0.11-0.76l-0.27-0.44l-0.31,0.01l-0.27,0.57l0.01,0.52l-0.37,0.65l-0.52,0.55l-0.43,0.23v0.42l0.35,0.45V140l-0.27,0.76
		l-0.46,0.21l0.18,0.67l0.07,0.8l-0.15,0.45l-0.49-0.39l0.12,0.4l0.05,0.48l-0.04,0.52L517.83,144.46z M384.04,230.55l0.32-0.2
		l-0.1-0.08V230l0.02-0.2l-0.16-0.07l-0.12,0l0.01,0.06l0.01,0.24l-0.21,0.15l-0.1,0.13l-0.06,0.16l-0.05,0.16l0.03,0.03
		L384.04,230.55z M450.25,243.61l0.28-0.05l0.27,0.23l0.13,0.06l0.33-0.31l0.19,0.07l0.14,0.32l-0.07,0.24l-0.11,0.23l0.03,0.3
		l0.56,1.08l0.25,0.26l0.32,0.23l0.27,0.29l0.12,0.47l0.53,1.37l0.14,0.25l2.57,0l1.36-0.41l0.68-1.04l-0.78-0.09l-1.61,0.79
		l-0.82,0.06l0.32-0.72l0.59-0.46l0.65-0.23l0.53-0.07v-0.33l-0.4-0.54l-0.23-0.16l-0.33-0.02v-0.4l0.39-0.33l-1.45-2.26l-0.54-0.31
		l-0.61-0.2l-0.94-0.95l-0.42-0.27l-0.34,0.01l-1.2,0.44l-0.64,0.64l-0.06,0.2l-0.41,1.04l0.09,0.54L450.25,243.61z M464.25,246.98
		l0.78-0.51l0.04-0.64l-0.64-0.31l-1.27-0.1l-1.21,0.25l-1.06,0.47v0.33h1.88v0.39l-0.32,0.24l-0.35,0.08l-0.34-0.08l-0.32-0.24
		l0.84,1.36l0.29,0.8l-0.37,0.38v0.4l1.31,1.41l0.61-0.4l0.18-0.54l-0.12-0.71l-0.3-0.9l0.34-0.3l-0.05-0.31l-0.15-0.36l0.05-0.47
		L464.25,246.98z M452.98,239.19l0.93,0.36v-0.33l0.66-0.67l0.23-0.49l-0.14-0.69l-0.05-0.09l0.03-0.42l-0.1-0.33l-0.26-0.22
		l0.23-0.19l0.23-0.05l0.24,0.07l0.26,0.17v-0.36l-0.17-0.36l0.04-0.31l0.2-0.25l0.3-0.18l0.09,0.4l0.12,0.37l0.15,0.36l0.21,0.33
		v0.33l-0.44,0.74l-0.33,1l-0.09,1.15l0.29,1.19l0.69,0.68l1.65-0.28l0.67,0.29l0.14-0.59l0.33-0.18l0.85,0.08l-0.39-0.76l0.35,0.06
		l0.28,0.12l0.25,0.03l0.28-0.22l0.51,0.13l0.44-0.45l0.38-0.53l0.35-0.06l0.21,0.34l1,2.16l0.29,0.45l0.32,0.3l2.08,0.88l0.43,0.05
		l0.43-0.34l0.63-1.2l0.36-0.27l1.05-0.24l0.53-0.28l0.22-0.37l0.01-0.8l-0.04-0.61l-0.17-0.42l-0.39-0.22l-0.45,0.09l-0.92,0.63
		l-0.5,0.04l0.18,0.36l0.39,1.13l-0.53,0.13l-0.47-0.16l-0.4-0.44l-0.31-0.7l0.41-0.43l1.11-0.82l0.18-0.53l-0.14-0.34l-0.26-0.11
		l-0.63,0.05l-0.51,0.2l-0.45,0.39l-0.47,0.29l-0.56-0.12l0.05-0.25l0.08-0.62l0.06-0.25l-0.47,0.38l-0.31-0.3l-0.3-0.51l-0.43-0.28
		l-0.39,0.2l-0.37,0.34l-0.39,0.11l-1.03-0.98l-0.47,0.38l-0.43,0.66l-0.42,0.35l-1.04-0.14l-0.53-0.22l-0.41-0.37l0.49-0.16
		l0.63-0.56l0.55-0.78l0.23-0.85l0.26,0.11l1.63-0.66l-0.13-0.1l-0.13-0.15l-0.12-0.11l0.09-0.2l0.08-0.08l0.21-0.08l-1.57-0.9
		l-0.52-0.6l0.18-0.04l0.4-0.33l-0.26-0.2l-0.43-0.64l-0.28-0.22l-0.32,0.03l-0.34,0.16l-0.36,0.02l-0.96-0.98l-0.73-0.27
		l-1.33-0.06l-1.33,0.26l-1.23,0.86l-0.73,1.59l0.17,2.41l-0.19,0.36l-0.44,1.59l0.37,1.78L452.98,239.19z M459.35,229.27l0.72,0.49
		l0.8,0.24l0.87,0.06l0.81-0.31l0.03-0.74l-0.08-0.85l0.46-0.67l0.1-0.05l0.08-0.01l0.04-0.08l-0.02-0.27l-0.41-0.23h-0.36
		l-1.13,0.27h-0.2l-0.18-0.04l-0.19-0.17l-0.1-0.24l-0.05-0.22l-0.03-0.1l-0.69-0.04l-0.78,0.39l-0.5,0.73l0.16,0.98L459.35,229.27z
		 M460.03,219.62l0.23-0.02l0.26,0.18l0.25,0.41l0.09,0.28l0.05,0.3l0.4,1.13l0.14,0.29l0.19,0.19l0.29,0.17l0.22,0.06l0.2-0.15
		l0.21-0.48l0.39,0.4l-0.25-0.57l-0.14-0.19v-0.41l0.76,0.1l0.74,0.43l1.36,1.33l-0.2,0.35l-0.11,0.31l-0.05,0.36l-0.03,0.48
		l0.63-0.9l0.33-0.27l0.56,0v-0.34l-0.25-0.36l-0.27-0.09l-0.29-0.03l-0.31-0.21l-0.15-0.3l-0.52-1.4l-0.38-0.22l-2.15-0.68v-0.37
		l0.18,0.04l0.57-0.04l-0.11-0.47l0.02-0.26l0.3-0.4l0.08-0.05l0.07,0.01l0.04-0.06l-0.02-0.23l-0.5-0.38l-0.42,0.31l-0.77,1.13
		l-0.45,0.2l-0.88-0.21l-0.58,0.01l0.1,0.51L460.03,219.62z M372.42,339.25l-0.6-0.69l-1.43-0.92l-1.08,0.14l-0.86,0.7l-1.65,1.92
		l0.51,0.27l0.87,0.91l0.41,0.19l0.39,0.27l0.45,1.2l0.49,0.28l1.05-0.11l0.76-0.46l0.53-1.04l0.37-1.83h-0.73v-0.37L372.42,339.25z
		 M386.47,386.59l0.55-0.57l0.42-0.74l0.43-0.44l0.04-0.6l-0.08-0.68l-0.1-0.47l-0.59-0.28l-0.84,0.56l-1.41,1.43l-2.09,2.09
		l-0.84,0.26l-0.56,0.43l-0.85,1.05l-0.77,1.27l-0.34,1.12l0.41,0.79l0.93-0.03l1.01-0.29l0.65,0.02l-0.9,0.78l-2.16,0.42
		l-0.81,0.68l-0.45,0.49l-0.47,0.26l-0.41,0.33l-0.27,0.76l-0.05,0.86l0.24,2.35l0.43,1.24l0.99,0.65l1.07,0.08l0.7-0.5l0.19-0.75
		l0.27-1.88l0.2-0.37l0.46-0.25l0.68-0.87l0.29,0.11l0.6-1.96l2.32-4.61L386.47,386.59z M392.08,370.99l0.5-0.58l0.42-0.86
		l-0.26,0.29l-0.39,0.08l-0.87-0.03l-0.44,0.57l-0.16,0.32l-0.13,0.47l0.73,0.02L392.08,370.99z M500.32,206.78l-0.62,0.24
		l-0.51,0.55l-0.21,0.91l0.16,0.8l0.39-0.15l0.49-0.52l0.46-0.29v-0.41h-0.38l0.07-0.43l0.12-0.19l0.39-0.09l0.08-0.06l0.07-0.01
		l0.04-0.07l-0.01-0.26L500.32,206.78z M403.6,417.66l0.71-0.31l0.38-0.45l-0.07-0.8l-0.28-0.75l-0.05-0.64l0.62-0.44l-1.13-0.51
		l-0.22-0.18l-0.15-0.64l0.25-0.18l0.4-0.02l0.27-0.15l-0.06-1.1l-1.19-1.24l0.32-0.66l-0.55-2.41l-0.38-1.03l-0.57-0.91l-0.49-0.46
		l-1.78-0.9l-0.23-0.05l-0.71,0.05l0.06,0.16l0.07,0.37l0.06,0.17l-0.93,0.17l-0.85,0.75l-0.66,1.05l-0.38,1.05l-0.14,1.57
		l0.24,1.17l0.51,0.97l0.68,0.96l-0.13,0.23l-0.05,0.15l-0.06,0.13l-0.14,0.13v0.32l0.11,0.37l0.25,1.29l0.01,0.33v0.32l1.13,1
		l1.14,0.72l1.26,0.45l1.48,0.16L403.6,417.66z M406.49,401.68l0.04-0.29l-0.29-1.53l-0.19-0.67l-0.26-0.64l-0.33-0.65l-0.24-0.22
		l-0.25-0.09l-0.19-0.24l-0.16-1.11l-0.18-0.15l-0.25-0.05l-0.25-0.15l-0.84-0.94l-0.85-0.74l-0.89,0.48l-0.04,0.77l0.33,0.85
		l0.22,0.75l0.18,0.37l0.95,0.65l0.06,0.63l0.32,1.37l0.28,0.82l1.8,1.7l0.32,0.87l0.27,0.42l0.35,0.03l0.19-0.32l-0.05-0.41
		l-0.21-0.38l-0.29-0.21l0.29-0.66L406.49,401.68z M495.41,316.21l-0.03-0.43l0.19-0.38l0.39-0.04l-0.78-0.9l-0.29-0.56l0.11-0.64
		v-0.32l-0.43-0.82l-0.15-0.9l-0.09-0.93l-0.25-0.88l-2.33-2.63l-0.31-0.68l-0.19-0.22l-0.33-0.02l-0.46,0.41l-0.33-0.04l-0.24-0.29
		l-0.24-0.47l-0.16-0.45l-0.02-0.2l-3.04-0.1l-0.44,0.1l-1.65,1.25l-0.71,0.16l-0.56-0.19l-1.21-0.76l-0.58-0.11l-0.24,0.1
		l-0.25,0.21l-0.2,0.27l-0.09,0.29l-0.15,0.25L480,306.2l-0.53-0.33l-0.25,0.09l-0.47,0.46l-0.31,0.18l-0.3-0.08l-0.25-0.23
		l-0.21-0.08l-0.2,0.39l-1.3-0.67l-0.5-0.06l-0.36,0.24l-0.19,0.39l-0.22,0.08l-0.44-0.7l-0.86,0.05l-2.35-0.82l-0.93,0.46
		l-0.29-0.32l-0.22,0.04l-0.23,0.17l-0.31,0.11l-0.28-0.11l-0.28-0.51l-0.19-0.12h-4.34l-0.46,0.17l-1.7,1.24l-1.12,0.35l-1.2-0.04
		l-3.61-1.26l-2.05-1.36l-3.42-0.14l-0.33,0.1l-0.73,0.46l-0.35,0.14l-0.34-0.07l-0.27-0.15l-0.25,0.04l-0.27,0.53l0.15,0.59
		l-0.26,0.65l-0.44,0.56l-0.4,0.3l-0.53,0.11l-0.55-0.07l-1-0.36l0.56,1.37l-0.42,0.1l-0.37,0.16l-0.35,0.04l-0.36-0.31l0.22-0.24
		l0.14-0.24l0.2-0.56l-1.64,0.38l-4.2,3.15l-0.85,0.26l-2.64-0.26l-2.52,0.4l-0.77-0.05l1.03,0.93l0.32,0.57l-0.5,0.25l-0.39,0.11
		l-0.43,0.28l-0.4,0.39l-0.51,0.77l-0.29,0.15l-0.62,0.05l-0.02,0.14l-0.21,0.34l-0.45,0.57l-0.58,0.3l-0.5-0.03l-1-0.26l0.32-0.41
		l0.31-0.52l0.5-1.17l-0.34-0.26l-0.37-0.09l-0.79,0.03v-0.38h1.5l0.63,0.2l0.19-0.07l-0.26-0.47l0.47-0.61l0.53-0.31l1.28-0.13
		l-0.11-0.11l-0.1-0.14l-0.09-0.19l-0.09-0.26l0.97-1.56l0.81-0.64l0.79-0.99l0.57-1.07l-0.14-0.65l-0.42,0.07l-1.2,0.76l-0.35,0.38
		l-0.44,0.35l-0.6,0.02l-1.39-0.31l-0.36-0.46l-0.32-0.14l-0.23,0.02l-1.17,0.61l-1.06,1.11l-1.25,0.77l-0.33,0.47l-0.28,0.51
		l-0.38,0.52l-0.41,0.4l-0.83,0.36l-0.37,0.29l-0.14-0.04l0.23-0.79l0.22-0.51l0.25-0.34l1.79-1.82l0.39-0.16l0.42-0.34l0.19-0.71
		l0.2-0.59l0.47-0.02l0.51,0.09l1.79-0.5l0.7-0.05l0.37-0.16l2.12-1.94l0.97-0.36l0.73,0.72l-0.34,0.8l0.13,0.51l0.44,0.21
		l0.54-0.11l0.36-0.37l0.73-1.12l0.63-0.51l3.74-4.94l0.22-0.45l0.07-0.84l-0.18-0.5l-0.34-0.05l-0.42,0.48l-0.78,1.15l-0.98,0.93
		l-1.02,0.47l-0.89-0.26l0.37-0.67l-0.49-0.65l-0.88-0.2l-1.55,1.25l-0.97-0.26l-1.76-1.22l0.15,0.86l-0.45,0.01l-0.66-0.47
		l-0.47-0.58l-0.48-0.46l-0.58,0.11l-1.11,0.54l-1.05-0.24l-0.88-0.74l-1.45-2.2l0.55,0.2l0.53,0.48l0.89,1.24l0.61,0.43l2.22-0.59
		l0.77,0.22l1.58,0.82l0.77,0.02l0.22-0.19l0.48-0.67l0.26-0.2l0.42-0.01l0.82,0.32l0.43,0l-0.12-0.58l0.13-0.54l0.57-0.96
		l-0.58-1.01l-0.19-0.23l-0.42-0.21l-0.86-0.04l-0.41-0.32l-0.24-0.46l-0.08-0.42l0.12-0.21l0.79,0.48l0.71,0.09l0.38,0.21
		l-0.18,0.31l0.12,0.13l0.45,0.26l0.02-0.54l0.1-0.43l0.19-0.3l0.26-0.16l1.76-1.24l0.87-0.21l0.69-0.39l0.25-0.26l0.15-0.38
		l0.27-1.05l0.24-0.55l0.5-0.52l2.04-1.04l6.04-5l1.15-1.31l0.51-0.87l0.22-0.86l0.25-0.49l1.46-1.49l0.97-0.6l2.41-0.87l1.15-0.67
		l1.03-1.2l1.46-2.13l1.2-2.36l0.25-1.85l0.29-0.09l0.25-0.3l0.12-0.47l-0.09-0.62l-0.21-0.28l-0.26,0.06l-0.31,0.18l-0.34,0.04
		l-0.58-0.36l-0.29-0.63v-0.85l0.31-1.03l0.2-0.35l0.72-0.69l0.25-0.45l0.41-0.95l0.31-0.44l0.13-0.78l0.52-1.08l0.17-0.96
		l-0.93-0.42l-1.81,0.38l-0.92,0l-1.43-1.05l-1.11,0.11l-1.8,0.57h-0.85l-0.2-0.2l-0.1-0.47l-0.07-0.49l-0.11-0.28l-0.46-0.08
		l-0.41,0.27l-0.63,0.85l0.29,0.72l0.45,0.54l0.5,0.37l0.47,0.2l-0.36,1.05l-0.75,0.01l-1.53-0.7l-1.57,0.56l-0.77,0.07l-0.67-0.63
		l0.11-0.08l0.27-0.28l-0.63-0.3l-0.88-0.03l-1.71,0.33l-1.06,0.51l-1.89,1.44l-1.18,0.57l-2.35,0.39l-2.36-0.39l-0.62,0.13
		l-0.15-0.14l-0.51-1.03l-0.04-0.13l-0.04,0.06l-0.25,0.06l-0.25,0.17l-0.36,0.89l-0.23,0.37l-0.31,0.2l-0.24-0.01l-0.57-0.19h-1.05
		l-0.31,0.16l-0.21,0.69l-0.24,0.16l-0.38-0.07l-0.52-0.27l-0.31,0.06l-0.18,0.2l-0.13,0.3l-0.16,0.32l-0.3,0.22l0.39,0.39
		l-0.62-0.18l-0.82-0.79l-0.55-0.18l-0.28,0.03l-0.74,0.36l-1.06,0.75l-0.08,0.12l-1.12,1.22l-0.12,0.06l-0.11,0.09l0.01,0.21
		l0.03,0.25l-0.03,0.21l-0.75,1.11l-0.46,0.47l-0.48,0.21l0.49-1.15l0.35-1.08l0.41-0.96l0.65-0.76l-0.06-0.53l0.02-0.03l0.04-0.19
		v-0.39l-1.35-1.01l-1.15-0.52l-1.18-0.23l-0.67,0.3l-0.28,0.74l-0.16,0.95l-0.3,0.91l-0.51,0.51l-0.56,0.27l-0.45,0.37l-0.18,0.82
		l-0.26,0.15l-1.63,1.84l-0.51,0.08l0.26-0.72l0.53-0.99l0.49-1.32l0.98-0.96l0.32-0.43l0.11-0.33l0.11-0.48l-0.03-0.44l-0.29-0.19
		l-0.35-0.1l-0.77-0.61l-0.46-0.24l-0.85-1.14l-0.49-0.42l0.14,0.89l-0.15,0.37l-0.24,0.33l-0.12,0.77l0.01,0.57l-0.05,0.53
		l-0.22,0.48l-0.5,0.41l0.18-0.39l0.12-0.4l0.07-0.46l0.02-0.59l-0.08,0.06l-0.17-0.71l-0.14-0.82l0-0.28l-0.49-0.64l-0.65-0.43
		l-3.54-0.8l-0.46,0.56l-0.18,0.9l-0.1,1.08l-0.21,1.09h0.19l-0.32,0.81l-0.41,0.45l-1.46,0.87l-0.22,0.25l-0.06,0.45l0.01,0.95
		l3.02,2.67l-0.82-0.58l-0.68-0.32l-1.52,0.9l0.26,0.27l0.12,0.09l0.19,0.04v0.35l-0.09,0.02l-0.27-0.02v0.39l0.31,0.05l0.29-0.03
		l0.28-0.14l0.25-0.27l0.19,0.39l-0.09,0.42l0.26,0.35l0.76,0.63l-1.15,0.04l-1.6-1.11l-0.17-0.05l-0.36-0.23l-0.21-0.05l-0.1,0.12
		l0,0.3l0.04,0.35l-0.03,0.27l-0.26,0.55l-0.19,0.52l-0.01,0.52l0.27,0.55h-0.55l0.06,0.38l0.09,0.4l0.21,0.66l0.1,0.1l0.52,0.8
		l0.04,0.2l0.28,0.28l0.81,1.23l0.41,0.28l0.3,0.11l0.56,0.49l0.28,0.11l0.29-0.1l0.31-0.46l0.22-0.15l0.54,0l1.75,0.36l-0.37,0.27
		l-0.79,0.14l-0.36,0.31l0.75,0.58l0.31,0.32l0.27,0.56l-1.9-1.45l-0.42-0.12l-1.37,0.12l-0.37-0.17l-0.84-0.74l-0.49-0.16
		l-0.25,0.09l-0.38,0.25l-0.37,0.35l-0.21,0.38l-0.58-0.47l-0.6-0.08l-0.58,0.2l-1.09,0.74l-0.46,0.13l-0.47-0.13l-1.16-0.81
		l-0.64-0.28l-0.45,0.15l-0.02,0.87l1.27,1.97l0.27,0.2h0.36l-0.06,0.24l-0.09,0.61l-0.06,0.24l0.26,0.09l0.24,0.15l0.23,0.21
		l0.21,0.26l-0.21,0.32l0.38,0.3l0.44,0.09l0.9-0.04v0.39l-0.37,0.22l-0.79,0.19l-0.36,0.28l0.56,0.39v0.36h-0.38l0.19,0.37
		l0.13,0.43l0.02,0.47l-0.14,0.51h0.17l-0.66,0.85l-0.61-0.08l-0.59-0.2l-0.6,0.5l-0.66-1.36l-1.05-0.3l-0.52,0.71l0.91,1.67v0.35
		l-0.15,0.18l-0.08,0.16l-0.05,0.18l-0.09,0.22l1.13-0.07l0.54,0.19l0.41,0.59l-0.12,0.14l-0.02,0.04l-0.06,0.14l0.7,0.14l1.13,1.45
		l0.82,0.2l0.39,0.37l0.88,0.18l0.33,0.3l0.25,0.64l0.04,0.6l-0.22,0.38l-0.54-0.01v0.38l0.67,0.18l2.76,2.42l0.14,0.34l0.07,0.36
		l0.16,0.5l0.19,0.47l0.16,0.27l-0.56-0.37l-0.79-1.43l-1.16-0.54l-1-0.99l-0.34-0.22l-0.27-0.1l-0.62-0.45l-0.35-0.11l-0.29,0.05
		l-0.52,0.28l-0.31,0.02l-0.6-0.33l-0.77-1.14l-0.52-0.33l-0.15,0.62l-0.2-0.04l-0.21-0.23l-0.18,0.04l-0.12,0.35l0.01,0.14
		l0.07,0.12l0.04,0.29l0.22,0.22l1.77,0.8l1.21,1.26l0.81,0.37l0.31,0.32l0.4,0.72l-1.99-0.78l-0.93-0.58l-0.78-0.93l-0.38-0.33
		l-1.25-0.55l-0.35-0.01l-0.26,0.55l-0.33,1.48l-0.33,0.45l0.17,0.35l-0.88-0.11l-1.12-0.61l-0.78-1.04l0.16-1.41h-1.01l-0.3-0.21
		l-0.4-0.5l-0.22,0.41l-0.64,0.86l-0.26,0.49l0.08,0.2l0.08,0.09l0.21,0.06l-0.29,0.52l0.36,0.59l1.06,1.01l0.38,0.8l-0.05,0.66
		l-0.11,0.73l0.18,1.01l-0.51-0.32l-0.27-0.08l-0.35,0.02l0.21,0.62l0.13,0.26l0.21,0.24l-0.45,0.02l-0.42-0.21l-0.36-0.39
		l-0.27-0.54l-0.21-0.75l-0.19-1.04l-0.08-1.02l0.1-0.7l-0.68-0.45l-0.72-0.23l-0.73,0.01l-0.7,0.27l-0.36,0.31l-0.29,0.43
		l-0.2,0.51l-0.1,0.55l0.03,0.65l0.24,1.04l-0.07,0.42l0.05,0.61l-0.13,1.33l0.09,0.55l2.29,0.54l0.32,0.2l0.27,0.33l0.18,0.34
		l0.19,0.26l0.3,0.09l-0.21,0.56l-0.29,0.4l-0.35,0.05l-0.81-0.92l-0.53,0.03l-1.02,0.58v0.38l0.16,0.47l-0.56,0.63l-0.16,0.62
		l0.15,0.64l0.34,0.21l0.43,0.06l0.42,0.18l0.51,0.82l0.35,1.01l0.48,0.8l0.92,0.17l-0.23,0.51l-0.14,0.16l0.94,1.11l0.76-0.67
		l1.22-0.18l1.24,0.29l0.84,0.71l-0.12,0.33l-0.64,0.02l-1.14-0.2l-1.98,0.34l0.08,0.25l0.06,0.25l0.08,0.27l0.15,0.28l-0.3-0.08
		l-0.83-0.59l-0.24-0.19l-0.48-0.74l-0.24,0.21l-0.47-0.35l-1.48-1.54l-0.47-0.31l-0.49-0.09l-0.49,0.2l0.06,0.23l0.09,0.58
		l0.06,0.23l-0.43-0.01l-0.12,0.4l0.01,0.65l-0.03,0.73l-0.11,0.32l-0.37,0.86l-0.08,0.37l0.06,0.66l0.26,0.89l0.06,0.54l0.18,0.12
		l0.85,0.25l0.28,0.17l-0.29,0.33l-0.1,0.34l0.01,0.69l0.04,0.16l0.26,0.4l0.07,0.17l-0.04,0.16l-0.13,0.15l-0.13,0.08l-0.07-0.04
		l0.47,2l0.64,0.32l1.44-0.21l0.69-0.36l1.85-2.46l0.44-0.42l0.12-0.02l0.05,0.34l0.23,0.63l0.06,0.44l-0.24,0.34l-0.67,0.44
		l0.8,0.13l0.66,0.32l0.64,0.1l0.71-0.54l1.25-1.78l0.74-0.77l0.47,0.11l-0.24,1.44l-1.22,1.15l-3.08,1.47l-0.64,0.12l-0.14-0.18
		l-0.16-0.34l-0.19-0.21l-0.25,0.22l-0.23,0.27l-0.59,0.37l-0.23,0.24l-0.64,1.57l-0.11,0.17l0.24,0.69l0.56,0.05l1.19-0.4
		l0.54,0.12l1.05,0.49l0.58,0.08l0.55-0.19l0.96-0.7l0.47-0.15l0.32-0.32l0.35-0.62l0.46-0.42l0.67,0.29v0.38l-0.67,0.26l-0.67,0.72
		l-0.35,0.75l0.26,0.35l0.27,0.14l0.27,0.34l0.41,0.74l0.25,0.23l1.15,0.28v0.34l-1.08,0.35l-0.93-0.71l-0.87-1.05l-0.88-0.67
		l-0.95,0.21l-1.15,0.74l-0.66,0.96l0.51,0.86l-0.36,0.7l-0.96,1.39l-0.2,0.86l0.34,0.52l2.3,0.7l0.31,0.3l0.7,0.9l0.19,0.19
		l0.36-0.06l0.65-0.26l2.31-0.41l0.54,0.35v0.38h-0.19l-0.2-0.09l-0.45-0.12l-0.46,0.03l-0.21,0.36l-0.14,0.16l-2.71-0.04l-0.55-0.3
		l-1.17-0.89l-0.69-0.28l-0.49,0.29l-0.28,0.24l-0.81-0.09l-0.34,0.03l-0.19,0.19l-0.33,0.56l-1.15,1.5l-0.41,0.83l0.3,0.38
		l0.29,0.1l0.47,0.47l0.28,0.12l0.3-0.05l0.56-0.26l0.25-0.03l0.6,0.44l-0.05,0.7l-0.1,0.64l0.42,0.28l0.56,0.21l0.58,0.39l0.6,0.17
		l0.62-0.43l0.37,0.2l0.41-0.14l0.44-0.26l0.47-0.14v0.34l-1.32,0.67l-1.5,0.36l-0.9-0.14l-0.43-0.21l-0.39-0.31l-0.32-0.42
		l-0.55-0.98l-0.26-0.31l-0.71-0.14l-0.85,0.31l-0.77,0.55l-0.48,0.62l-0.3,1l-0.24,1.17l-0.31,1.04l-0.48,0.59l0.55,0.57l0.21,0.14
		v0.38l-0.97,0.06l-0.92,0.25l1.27,0.35l2.59-0.59l1.24,0.24l-1.1,1.22l-0.24,0.5l1.08,0.29l0.55,0.01l0.44-0.84l0.45-0.24
		l0.51-0.06l0.36,0.18l-0.89,0.91l-1.13,0.5l-2.85,0.42l-0.38,0.38l0.01,0.56l0.53,0.63l2.06,1.03l-0.55-0.16l-0.7-0.19l-0.62,0.21
		l-0.4,0.5l-0.3-0.25l-0.32-0.13l-0.34-0.03l-0.34,0.04v0.37l0.49,0.08l0.28,0.37l0.13,0.53l0.03,0.54l-0.24-0.19l-1.45-0.65
		l-0.41-0.31l-0.26-0.35l-0.28-0.28l-0.47-0.12l-0.4,0.16l-0.97,0.73l-0.33,0.17l-4.23,0.46l-0.36,0.3l-0.6,0.95l-0.21,0.12
		l-0.19-0.09l-0.14,0.02l-0.05,0.48l0.03,0.33l0.08,0.3l0.12,0.28l0.15,0.28l0.36,0.35l0.64,0.37l0.68,0.15l0.5-0.34l0.55-0.54
		l0.69-0.07l2.03,0.57l1.91-0.15l0.35,0.09l0.61,0.44l0.35,0.14l0.29,0l1.04-0.31l3-1.67l1.13,0.3l1.38,0.88l0.61,0.11l2.55-0.34
		l-0.58,0.39l-0.81,0.22l-1.47,0.11l-0.69-0.15l-1.73-0.91l-0.68,0.08l-2.91,1.97l0.01,0.5l0.27,0.34l0.66,0.53l-0.21,0.37
		l-0.76-0.75l-0.89-0.46l-0.95-0.2l-1.37,0.09l-0.4,0.15l-0.28,0.39l-0.05,0.78l0.17,0.39l4.1,3.4l1.67,0.36l1.02-1.43h0.2
		l-0.05,0.49l-0.11,0.4l-0.42,0.81l0.33,0.39l0.48,0.34l0.52,0.23l0.45,0.09l0.3,0.14l0.32,0.66l0.25,0.19l0.19-0.08l1.86-1.52
		l1.82-2.19l1.1-1.67l0.3-0.35l0.33-0.25l0.35-0.1l0.25-0.21l0.4-0.91l0.28-0.21l0.56-0.11l0.44-0.3l0.79-0.99l0.3-0.62l0.23-0.29
		l0.58-0.22l0.26-0.45l0.24-0.1l0.49-0.04l0.41-0.19l0.36-0.43l0.36-0.74l0.09-0.4l0.05-0.45l0.1-0.37l0.23-0.15l0.29-0.08l0.34-0.2
		l0.29-0.28l0.12-0.32l0.23-0.41l1.63-1.46l-0.46,0.98l-0.5,0.83l-1.86,2.04l-0.17,0.26l-0.28,0.69l0.01,0.3l2.14,1.04l4.53-1
		l-0.47,0.33l-2.22,0.51l-1.08,0.72l-0.57,0.17l-1.19-0.37h-0.62l-0.81,0.73l-0.36,0.03l-0.7-0.08l-0.61,0.54l-0.24,0.14v0.37
		l0.53,0.37l-0.34,0.64l-1.13,1.04l-0.24,0.33l-0.71,1.37l-0.08,0.2l-0.09,0.42l-0.11,0.24l-0.17,0.21l-0.13,0.11l-0.1,0.16
		l-0.08,0.37l0.37,0.05l0.45,0.51l0.33,0.15l0.33-0.09l0.6-0.5l0.3-0.12l0.46-0.37l0.11-0.04l0.55,0.04l0.31-0.07l0.92-0.58
		l-0.29,0.44l-0.34,0.26l-0.7,0.32l-1.31,1.03l-0.51,0.22l-0.62,0.02l-0.67-0.27l-0.66-0.66l-0.16,0.71l-0.97,2.38l0.38,0.31
		l0.52-1.08l0.32-0.44l0.37-0.18l0.45,1.9l0.44,0.32l0.77-0.69l2.93,0.68l1.17-0.14l0.3-0.32l0.64-1.07l1.13-1.02l0.42-0.77
		l0.3-0.88l0.36-0.74l0.61-0.34l-0.58,0.82l-0.9,2.04l-1.74,2.39l-0.74,0.64l-0.92,0.23l-2.22-0.63l-2.77,0.24l-0.92,0.45l-0.7,0.98
		l0.12,0.41l-0.22,0.24l-0.36,0.17l-0.29,0.2l-0.21,0.4l-0.56,1.64l0.61,0.14l1.19-0.4l0.66-0.05v0.31l-1.38,0.55l-0.74,0.09
		l-0.51-0.31l-0.53,0.59l-0.27,0.64l-0.34,1.85l-0.3,1.03l-0.07,0.56l0.16,0.44l0.27,0.05l0.27-0.25l0.26-0.32l0.25-0.16l1.15-0.36
		l0.37,0.16l0.17,0.36l-0.05,0.36l-0.31,0.16l-0.54,0.13l-0.6,0.35l-0.33,0.52l0.25,0.65l-0.52,0.79l-0.47,0.94l-0.35,1.01
		l-0.18,1.02l0.64-0.52l0.55-0.86l0.62-0.77l0.83-0.24l-0.17,0.68l-0.19,0.44l-0.88,1.4l-0.11,0.33l0.05,0.42l0.18,0.77l0.08,0.08
		l0.17,0.12l0.19,0.19l0.13,0.32l-0.04,0.29l-0.22-0.03l-0.23-0.16l-0.07-0.1l-0.01-0.07l-0.16-0.12l-0.22-0.11l-0.18-0.05
		l-0.18,0.1l-0.07,0.21l-0.04,0.23l-0.08,0.17l-2.07,3.03l-1.01,2.01l-0.15,1.3l-0.11,0.29l-0.04,0.35l0.08,0.29l0.28,0.11l0.1-0.16
		l0.46-0.88l-0.02-1.08l1.19-1.39l0.17-0.91l0.44-0.27l0.37-0.34l0.35-0.19l0.35,0.16l-0.15,0.25l-0.16,0.17l0.12,0.22l-0.23,0.61
		l-3.01,4.71l0.06,0.54l0.17,0.57l0.19,0.33l0.25-0.01l0.5-0.52l0.72-0.38l0.94-1.11l0.62-0.32l-0.42,0.55l-0.49,0.47l-0.41,0.51
		l-0.17,0.65l-0.17,0.4l-1.16,1.76l0.14,0.38l0.03,1.31l0.21,0.67l0.38,0.49l0.37,0.23l0.75,0.29l-0.19,0.63l0.36-0.01l0.33-0.14
		l0.98-0.81l2.67-3.04l-0.51,1.47l-0.86,1.29l-0.95,0.89l-0.79,0.35l-0.36,0.31l-0.47,0.71l-0.4,0.84l-0.17,0.67l-0.2,0.55
		l-1.49,1.27l0.31,0.67l-0.11,0.97l-0.59,1.71l-0.65,1.44l-0.1,0.55l0.08,0.35l0.19,0.32l0.12,0.36l-0.39,1.43l0.05,1.09l0.13,1.1
		l-0.01,1.01l-0.27,0.5l-1.05,1.24l-0.77,0.65l-0.15,0.94l0.06,1.1l0.32,2.07l0.29,0.59l0.48,0.19l0.8,0.01l0.32-0.09l0.62-0.46
		l0.29-0.13l0.32,0.02l0.54,0.27l0.26,0.07l0.65-0.13l0.61-0.32l0.54-0.43l0.45-0.47l0.91-1.29l0.28-0.73l-0.32-0.32l-0.02-0.2
		l-0.45-1.1l-0.26-0.36l-0.25-0.26l-0.28-0.12l-0.34,0.05v-0.3l0.64-0.4l0.44-0.66l0.61-1.63l0.12-0.11l0.12,0.06l0.09-0.02
		l0.04-0.39l-0.03-0.92l0.03-0.26l0.17-0.47l0.58-1.16l-0.18-0.91l0.32-0.28l0.44-0.18l0.17-0.64l-0.21-0.5l-0.33-0.09l-0.25-0.28
		l0.04-1.12l-0.06-0.14l-0.11-0.22l-0.05-0.21l0.59-0.46l0.07-0.4l0.07-0.86l0.07-0.4l0.2-0.61l0.26-0.54l0.3-0.46l1.26-1.42
		l0.42-0.3l0.94-0.31l0.38-0.32l0.19-0.67l-0.25-1.25l-0.69-1.16l-1.53-1.66l0.13-0.1l0.13-0.16l0.13-0.1l-0.27-0.25l-0.12-0.05
		v-0.34h0.19v-0.3l-0.34-0.33l-0.1-0.38l-0.02-0.46l-0.11-0.57l-0.27-0.97l-0.16-0.04l-0.41-0.22l-0.1-0.11l0.2-2.64l-0.02-0.32
		l0.01-0.31l0.1-0.26l0.2-0.11l0.06,0.31l0,0.43l0.02,0.23l0.52,0.17l0.68,0.06l0.6-0.18l0.25-0.56l0.08,0.05l0.17-0.6l0.14-0.69
		l-0.01-0.25l0.21-0.14l0.5-0.04l0.25-0.15l2.28-3.5l3.28-2.25l0.27-0.35l0.66-1.73l0.3-0.62l0.41-0.38l0.46-0.21l1.12-0.09
		l0.47-0.24l1.02-1.14l0.48-0.33l-0.54,1.3l-0.96,0.71l-1.05,0.46l-0.83,0.56l-0.44,0.65l-0.98,2.26l-0.26,0.29l-1.15,0.91
		l-1.6,0.68l-3,5.26l-0.68,0.78l0.34,1.44l0.05,0.42l-0.06,0.42l-0.27,0.55l-0.06,0.38l-0.02,0.9l0.02,0.45l0.09,0.35l0.21,0.25
		l0.22,0.12l0.17,0.18l0.17,1.22l0.29,0.38l0.93,0.34l1.2,0.7h0.5l-0.19-0.87l-0.27-0.75l-0.66-1.38l0.81-1.19l0.13-0.37l0.06-0.49
		l0.17-0.69l0.24-0.65l0.28-0.37l0,1.03l0.25,0.63l1.82,1.5l0.52,0.18l0.23-0.47l-0.21-1.03l-1.05-2.67l-0.43-0.81l0.44-0.35
		l0.21,0.41l0.14,0.62l1.11,1.48l0.1,0.98l0.28,1.4l0.39,1.25l0.44,0.54l0.87,0.19l0.32-0.06l0.39-0.43l0.26-0.5l0.12-0.45
		l0.08-0.48l0.13-0.58l0.23-0.43l0.32-0.39l0.27-0.48l0.1-0.71l-0.13-0.56l-0.29-0.38l-0.36-0.25l-0.35-0.17v-0.33l0.47,0.13
		l0.44,0.26l0.41,0.14l0.38-0.2l-0.15-0.56l-0.06-0.66l0-0.96l-0.12-1l0.07-0.37l0.35-0.15l0.08-0.77l-0.25-1.69l-0.38-1.73
		l-0.31-0.88l0.37-0.45l0.37,0.13l0.29,0.51l0.12,0.67l-0.05,1.51l0.21,0.39l0.59-0.03l0.39-0.58l1.58-3.31l0.38-0.52l0.29-0.22
		l0.13,0.19l-0.12,0.71l-1.95,3.16l-1.07,2.83l-0.04,0.41l0.04,1.87l0.08,0.89l0.3,0.69l0.65,0.28l0.67,0.01l0.5-0.09l0.18-0.4
		l-0.31-0.89l-1.3-1.98l-0.17-0.61l-0.02-0.5l0.14-0.37l0.41,0.1l0.02,0.24l0.36,1.48l0.32,0.63l0.43,0.65l0.51,0.52l1.12,0.43
		l1.4,1.79l1.2,0.76l4.08,0.88l-0.67,0.45l-4.58-0.72l-0.59-0.37l-0.31,0.14l-0.46-0.08l-1.75-0.83l-0.37-0.05l-0.52,0.11
		l-0.86,0.36l-0.63,0.54l-0.4,0.86l-0.17,1.31l0.28,3.5l0.13,0.5l0.16,0.42l0.18,0.59l0.12,1.65l-0.42,1.05l-1.22,1.29l0.54,0.79
		l0.89,0.81l1.59,1.05v0.37l-0.2,0.45l0.25,0.18l0.89,0.03l1.5,0.66l0.8,0.68l0.59,1.01l0.14,1.08l-0.58,0.89l1,0.33l0.66,0.84
		l0.25,1.17l-0.24,1.32l-0.66,0.96l-1.83,0.87l-0.89,0.81l-0.26,0.55l-0.23,1.12l-0.16,0.46l-0.22,0.29l-0.5,0.42l-0.91,1.14
		l-0.15,0.29l-0.05,0.46l0.07,1.05l-0.02,0.47l-0.11,0.43l-0.63,1.63l-0.02,0.24l0.01,0.51l-0.05,0.16l-0.28,0.08l-0.13,0.11
		l-1.79,2.44l-1.13,0.74l-0.54,0.55l-0.23,0.89l-0.07,0.98l-0.19,0.65l-0.49,1.17l-0.11,0.42l-0.06,0.32l-0.01,1.06l0.09,0.57
		l0.39,0.95l0.09,0.46l0.15,0.44l0.99,2v0.32l-0.11,0.17l-0.09,0.19l-0.48,0.51l-0.49-0.08l-0.46-0.43l-0.36-0.52l-0.13-0.44
		l0.04-1.15l-0.02-0.53l-0.14-0.5l-0.2-0.46l-0.41-0.67l-0.1-0.27l-0.26-0.53l-0.27-0.25l-0.13,0.56l-0.13,0.15l-0.31,0.04
		l-0.58-0.04l-0.39,0.38l-0.19,0.86l-0.08,1.73l0.14,1.9l0.51,1.7l0.79,1.45l2.62,3.17l0.55,0.26l0.27,0.28l0.17,0.61l0.12,0.66
		l0.12,0.43l0.18,0.17l0.23,0.09l0.52,0.06l-0.12,0.36l0,0.33l0.11,0.32l0.21,0.3l-0.32,0.43l-0.02,0.79l0.17,0.74l0.26,0.34
		l0.57,0.15l1.18,0.64l0.59,0.16l-0.36-0.77l-0.01-0.23l0.01-0.44l0.15-0.86l-0.01-0.41l-0.79-0.69l-0.44-1.12l-0.31-1.13
		l-0.19-0.52l-0.28-0.21l-0.21-0.49l-0.13-0.55l-0.05-0.4l0-0.35l0.03-0.25l0.11-0.29l0.24-0.42l0.42-0.61l0.55-0.59l0.63-0.49
		l0.66-0.3l1.05-0.02l0.59,0.26l0.51,1.34l0.59,0.37l1.24,0.35l3.24,2.03l0.91,0.89l1.59,2.46l0.24,0.19l0.98-0.03l0.26,0.11
		l0.7,0.54l0.58,0.26l0.63,0.09l0.29-0.1l0.18-0.22l0.14-0.23l0.15-0.1l0.19-0.39l-0.14-0.9l-0.09-0.99l0.35-0.7l-0.39-0.69
		l0.14-0.58l0.24-0.54l-0.08-0.61l-0.33-0.45l-0.35-0.25l-0.39-0.11l-0.44-0.02l-0.18-0.32l-0.22-0.69l-0.25-1.12l0.08-0.51
		l0.19-0.6l0.22-0.49l0.17-0.2l0.44,0.11l0.19,0.33l0.13,0.52l0.26,0.68l0.24,0.34l0.32,0.25l2.05,0.99l0.41,0.05l0.44-0.22
		l0.67-0.85l0.41-0.26l-0.24,1.91l0.97,1.62l1.41,0.92l1.07-0.19l-0.26-0.75l0.09-0.81l0.31-0.68l0.4-0.35l0.01,0.22l0.38,0.17
		l0.06,0.49l-0.11,0.62l0.05,0.48l-0.01,0.04l-0.08,0.17l-0.08,0.13l0.06,0.12l0.09,0.07l0.09,0.02l0.11,0.05v0.36l0.86,0.07
		l1.31-0.19l2.16-1.64l1.43-0.65l0.27-0.22l-0.94-0.95l0.38-0.31l0.18-0.05l-0.06-0.18l-0.13-0.5l0.43-0.42l0.33-0.53l0.1,0.15
		l0.05,0.14l0.04,0.36l-0.14-0.22l-0.14-0.07l-0.31,0.59l0.14,0.3l0.17,0.2l0.21,0.03l0.25-0.17l-0.1-0.09l-0.03-0.01l-0.06-0.25
		l1.95,0.32l0.6-1.01l0.71-0.11l2.57,0.25l0.45-0.27l0.32-0.77l0.05-0.78l-0.05-1.03l-0.14-0.95l-0.22-0.51l0.36-1.31l0.79,0.71
		l0.43,0.17l0.47-0.22l-0.05-0.21l-0.01-0.04l-0.03-0.01l-0.08-0.1l0.4-0.16l0.41,0.14l0.43,0.24l0.46,0.13l8.76,0.65l2.33-0.63
		l0.12-0.89l0.36-0.75l0.02-0.21l0.05-1.26l0.11-0.23l0.14-0.09l0.16,0.05l1.04,0.55l0.19,0.04l0.45-0.08l0.14-0.12l0.11-0.15
		l0.46-1.03l0.15-0.16l0.88-0.41l0.2-0.16l0.21-0.25l0.1-0.18l1.36-2.04l0.4-0.31l0.48-0.13l1.22-0.57l0.76-0.53l0.59-0.59
		l0.99-1.59l0.48-0.37l0.35-0.16l0.16-0.17l0.1-0.21l0.08-0.4l0.02-0.16l-0.01-0.12l-0.05-0.12l-0.07-0.15l-0.07-0.21v-0.34
		l0.07-0.19l0.11-0.16l0.37-0.3l1.48-1.86l2.45-2.22l0.29-0.14l0.69-0.13l0.39,0.08l0.15,0.08l0.26,0.2l0.1,0.12l0.17,0.06
		l0.24-0.02l0.55-0.34l0.22-0.24l0.14-0.26l0.11-0.44l0.1-0.26l0.2-0.37l0.17-0.16l0.81-0.37l0.29-0.34l0.36-0.3l0.78-0.16
		l0.32-0.15l0.57-0.38l0.35-0.38l0.27-0.38l0.12-0.24l0.05-0.21l0-0.19l-0.04-0.16l-0.07-0.14l-0.1-0.11l-0.61-0.92l-0.06-0.16
		l-0.03-0.14v-0.15l0.01-0.07l0.01-0.08l-0.01-0.15l-0.04-0.16l-0.28-0.58l-0.36-0.54l-0.46-0.86l-0.46-1.24l-0.09-0.33l-0.02-0.19
		l-0.04-0.17l-0.07-0.15l-0.33-0.34l-0.09-0.12l-0.06-0.16l-0.02-0.19l-0.05-0.17l-0.11-0.1l-0.44-0.26l-0.09-0.12l-0.07-0.14
		l-0.04-0.19l-0.01-0.2l0.03-0.25l0.11-0.12l0.14-0.11l0.33-0.1l1.08,0l0.4-0.09l0.27-0.14l0.2-0.23l1.49-2.28l0.15-0.3l0.13-0.39
		l0.1-0.2l0.13-0.14l0.26-0.21l0.29-0.32l0.14-0.12l0.45-0.21l0.13-0.09l0.68-0.74l0.13-0.26l0.07-0.24l0.08-0.75l0.09-0.38
		l0.13-0.17l0.16-0.1l1.25-0.48l-1.57-3.1l-0.53-0.61l-0.59-0.24l-0.22-0.15l-0.06-0.37l-0.04-0.45l-0.15-0.4l-0.25-0.12l-4.43-0.87
		l-1.18-0.64l-1.75-1.48l-1.05-0.34l-1.12-0.8l-0.4-0.43l-0.18,0.23l-0.28,0.25l-0.12,0.2l-0.41-0.3l-0.7,0.14l-0.39-0.14l0.14-0.26
		l0.25-0.8l-0.5-0.32l-0.79-1.1l-0.52-0.23l-4.61-0.34l-0.56,0.25l-0.81,0.98l-0.51,0.45l0.12,0.19l0.08,0.22l0.15,0.59l-0.68,0.09
		l-0.47,0.61l-0.46,0.77l-0.64,0.56l-2.08,0.92l-1.72,0.18l-0.34-0.06l-0.17-0.18l-0.49-0.7l-0.2-0.15l-4.99-0.41l-0.47-0.41
		l-0.29-0.39l-0.28-0.02l-0.48,0.23h-1.3l-4.73-1.34l-0.62-0.01l-1.56,0.34l-0.33-0.12l-0.18-0.29l-0.13-0.33l-0.2-0.26l-0.19-0.02
		l-0.53,0.11l-0.24-0.08l-0.14-0.36l-0.95-1.69l-0.23-0.13l-0.24-0.38l-1.65-1.17v-0.3l0.57,0.02l0.38,0.25l0.58,0.74l1.01,0.98
		l0.97,0.69l1.06,0.36l2.44-0.04l4.45,1.32l1.08,0.08l1.07-0.19l1.09-0.51l0.96-0.66l0.55-0.25l1.93-0.1l0.41-0.28l0.31-0.73
		l0.39-1.66l0.29-0.53l0.55-0.2l0.45-0.26l1.53-1.76l1.46-1.04l0.21-0.46l0.29-0.36l0.67-0.18l1.31,0.03l1.7,0.9l0.67,0.11
		l0.62-0.18l1.75-1.2l1.33-0.3l0.65-0.31l0.5-0.98l1.47-1.44v-0.31l-1-0.88l-0.22-0.13l-0.94-0.87l-0.6-0.31l-2.51-0.2l-0.19-0.35
		l-0.2-0.11l-0.25-0.04l-0.31-0.15l-0.06-0.18l-0.12-0.68l-0.11-0.15h-0.68l0.44-0.51l0.37-0.74l0.2-0.89l-0.05-0.95l-0.33-0.62
		l-0.98-0.08l-0.49-0.48l-0.48-0.31l-0.67,0.12l-0.59,0.37l-0.25,0.47l-0.28,0.33l-5.49,2.8l-1.07,0.26l-1.16,0.7l-0.58,0.16h-1.17
		l-0.48-0.18l-0.33-0.46l1.19,0.4l1.16-0.49l2.87-2.94l0.95-0.74l1.07-0.49l8.14-1.19l0.34,0.11l0.21,0.2l0.19,0.13l0.27-0.12
		l0.53-1.32l0.25-0.39l1.05-0.52l0.57-0.41l0.47-1.05l2.57-1.86l0.43-0.54l0.29-0.86l0.49-0.53l0.15-0.35l-0.02-0.29l-0.17-0.68
		v-0.39l0.27-0.74l0.38-0.51l0.33-0.61l0.3-2.2l0.39-0.82l0.49-0.58l0.46-0.41l1.53-0.99l0.45-0.54l0.66-1.19l0.74-1.06l0.94-0.76
		l0.41-0.56l0.17-0.91l0.11-0.26l0.5-0.66l0.13-0.28l0-0.61l-0.14-0.37l-0.16-0.31l-0.07-0.43l0.36-1.81l0.84-1.82l2.49-4l0.45-0.96
		l-0.08-0.44l-0.53-0.41l-0.07-0.95l0.15-1.03l0.65-2.64l1.77-4.71l0.71-1.11l2.88-2.71l0.07-0.71l0.48-0.91l1.12-1.55l0.64-0.55
		l0.19-0.32l-0.34-0.14L495.41,316.21z M411.25,340.13l-0.07,0.11l-0.09,0.14l-0.27,0.31l-0.26,0.36l-0.5,0.89l-0.25,0.32
		l-0.63,0.42l-0.46,0.61l-0.5,0.41l-0.24,0.33l-0.3,0.24l-0.16-0.34l0.02-0.5l0.25-0.26l0.86-0.69l0.95-1.42l0.96-1.13l0.79,0.15
		L411.25,340.13z M425.05,321.63l-1.62,1.64l-0.53,1.13l-2.8,4.27l-0.99,0.58l-1.4,2.15l-1.82,1.98l-0.17-0.31l-0.06-0.42l0.51-0.39
		l4.54-5.39l0.94-1.77l0.31-0.88l0.21-0.34l0.34-0.14l0.53-0.4l1.84-2.76l0.11,0.23l0.06,0.24l0.01,0.27L425.05,321.63z
		 M523.55,149.09l-0.29-0.32l-0.43-0.1l-0.1,0.08l-0.14,0.18l-0.19,0.14l-0.24-0.02l-0.06-0.22l0.03-0.39l-0.04-0.37l-0.3-0.16
		h-3.21v0.42l0.92,1.93l0.6,0.91l0.75,0.19l-0.1-0.21l-0.06-0.18l-0.08-0.17l-0.15-0.17v-0.42l0.78-0.03l0.8,0.44l0.77,0.23
		l0.67-0.64l0.16-0.62L523.55,149.09z M519.12,161.42l-0.08,0.09l-0.29,0.1l-0.97,0.1l-0.19,0.28l-0.26,0.2l-0.32,0.04l-0.31,0.15
		l-0.28,0.39l-0.14,0.42l-0.05,0.28l-0.15,0.21l-0.14,0.3l0.52,0.33l1.08-0.34l0.75-0.86l0.47-0.7l0.37-0.45l0.18-0.32l-0.04-0.24
		L519.12,161.42z M507.2,178.94l-0.13,0.63l-0.36,0.49l0.05,0.24l0.39-0.35l0.43-0.71l0.07-0.34l0.03-0.34l0.05,0.14l-0.02,0.66
		l-0.12,0.58l-0.03,0.4l0.15,0.02l0.18-0.38l0.25-0.86l0.21-0.56l0.14-0.56l-0.1-0.41l-0.19,0.02l-0.22,0.31l0.04-0.27l0.19-0.73
		l-0.02-0.5l-0.15-0.01l-0.18,0.23l-0.5,0.14l-0.03,0.24l0.18,0.27l0.07,0.34l-0.27,0.56L507.2,178.94z M515.16,173.73l-0.19-0.01
		l-0.09-0.48l-0.04-0.55l-0.13-0.3l-0.19,0.1l-0.09,0.46l-0.22,0.13l-0.5-0.24l-0.52,0.08l-0.02,0.6l0.45,0.68l-0.08,1.79l0.25,0.38
		l0.79,0.61l0.28-0.14l0.19-1.19l0.2-0.46l0.19-0.59l0.07-0.79l-0.01-0.38L515.16,173.73z M515.42,157.86l-0.52,0.33l-0.42,0.64
		l-0.25,0.92l-0.03-0.43l-0.05-0.19l-0.09-0.18l-0.24,0.4l-0.13,0.45l-0.08,0.42l-0.11,0.33l-0.23,0.23l-0.13-0.08l-0.09,0.04
		l-0.11,0.57h-0.21l-0.05-1.07l-0.33-0.23l-0.94,0.55v-0.41l0.29-0.25l0.11-0.14l-0.65,0.32l-0.33,0.09l-0.1-0.13l0.28-0.2
		l0.27-0.28l0.23-0.38l0.28-0.25l0.6,0.34l0.34-0.3l-0.36-0.35l0.05-0.12l0.14-0.25l-0.12-0.64l-0.21-0.44l-0.28-0.28l-0.35-0.17
		l0.17-0.62l-0.35-0.57l-0.5-0.3l-0.25,0.14l-0.11,0.37l-0.57,1l-0.25,0.33l-0.04-0.93l-0.27-0.15l-0.35,0.31l-0.29,0.42l0.39,0.52
		l1.3,1.01l-1.74,0.32l-0.75,0.58l0.04,1l-0.29,0.26l-0.32,0.15l-0.34,0.05l-0.35-0.04v-0.41l0.51-0.48l0.65-1.94l0.53-0.24v-0.41
		l-0.08-0.33l0.08-0.35l0.38-0.84l-0.17-0.34l-0.21,0.3l-0.24,0.23l-0.25,0.14l-0.26,0.06l0.56-1.87l-0.21-0.05l-0.11-0.1
		l-0.09-0.12l-0.15-0.11l0.31-0.04l0.12-0.1l0.13-0.27h-0.56l0.33-0.75l0.4-0.43l0.22-0.6l-0.21-1.28l0.27-0.08l0.15-0.23l0.04-0.36
		l-0.09-0.49l0.12-0.38l-0.01-0.46l-0.27-1.11l-0.63,1.22l-0.06,0.57l0.48,0.54l-0.11,0.18l-0.08,0.24l-0.67-0.59l-0.75-0.42
		l-0.75-0.12l-0.67,0.33l0.08,0.26l0.04,0.21l-0.07,0.28l-0.24,0.41l0.11,0.09l0.29,0.33l-0.84,0.65l-0.31,0.08l-0.14,0.19
		l-0.38,0.97l-0.24,0.4l0.45,0.11l0.32,0.4l0.25,0.43l0.2,0.2l0.69,0.02l0.42,0.11l0.3,0.25l-0.91,0.56l-1.04-0.37l-0.91-0.95
		l-0.34-1.18l-0.37-0.61l-0.36,0.05l-0.33,0.44l-0.26,0.54l-0.07,0.34l0.01,0.39l-0.01,0.4l-0.14,0.39l-0.15,0.08l-0.68-0.08
		l-0.24,0.3l-0.25,0.65l-0.15,0.65l0.08,0.3l0.95,0.06l0.4-0.21l0.25-0.65l0.45,0.51l0.42,0.03l0.45-0.15l0.56-0.01l-0.36,0.39
		l-0.16,0.52l0.1,0.46l0.43,0.19l0.28-0.26l0.29-0.59l0.37-1.08l0.21,1.77l0.05,0.97l-0.08,0.69l0.27,0.31l0.37,0.11l0.86-0.01v0.38
		l-0.29,0.41l-0.09,0.53l0.1,0.53l0.28,0.43l0.3,0.07l0.3-0.2l0.52-0.63l0.17,1.2l0.65,0.42l0.81,0.18l0.66,0.48l-1.37-0.05
		l-0.5,0.18l0.34,0.63l-0.41-0.03l-0.17-0.08l-0.19-0.23l-0.56,1.48l0.77,0.79l-0.39,0.5l-0.38,0.64l-0.28-1.23l-0.61-0.74
		l-0.73-0.24l-0.63,0.29l0.11,0.56l0.08,0.22h-0.57l0.09,0.25l0.15,0.58l0.14,0.31l-0.12,0.13l-0.31,0.22l-0.14,0.06l-0.04-1.65
		l-0.37-0.44l-1.3,0.16v0.38h0.2v0.38l-0.95-0.38l0.21,0.76l-0.47,0.02l-0.33-0.33l-0.31-0.46l-0.4-0.36l-0.45-0.04l-0.53,0.16
		l-0.51,0.29l-0.4,0.36l-0.4,0.49l-0.11,0.32l0.31,1.08l0.26,1.44l0.24,0.32l0.56,0.1l0.22,0.1l0.04,0.24l0.03,0.28l0.16,0.2
		l0.26,0.09l0.6-0.09l0.84-0.56l0.39-0.13l0.17,0.49l0.14,0.55l0.33-0.08l0.33-0.52l0.14-0.75l0.12-0.45l0.68,1.16l0.35,0.28
		l-0.36,0.18l-0.82,0.22l-0.32,0.32l-0.15,0.37l-0.02,0.26l0.17,0.51l0.09-0.04l0.59,0.67l0.05,0.12l1.07,0.77l0.26,0.02l0.22-0.42
		l0.08-0.61l0.11-0.57l0.33-0.31l0.14,0.75l0.24-0.14l0.2-0.73l-0.02-1.02l0.35,0.03l0.25,0.19l0.54,0.57l0.19-0.79l-0.36-0.83
		l-0.37-0.66l-0.43-0.47l-0.53-0.27v-0.41l0.9,0.23l0.58,0.58l0.4,0.93l0.38,1.29l0.76-1.74l0.41-0.58l0.53,0.06v0.37l-0.28,0.29
		l-0.25,0.44l-0.22,0.55l-0.4,1.46l-0.09,0.46l0.09,0.2l0.3,0.04l0.11-0.19l0.4-0.3l0.28-0.01l-0.43,1.15l-0.08,0.27l-0.02,0.21
		l0.12,0.55l0.16,0.05l0.17-0.06l0.14,0.22l0.14,1.5l-0.29,1.09l-0.41,1.08l-0.42,2.62l-0.42,0.93l-0.3,0.86l0.16,0.98h-0.73v0.37
		l0.24,0.17l0.5,0.62v0.3l-0.32-0.06l-0.31,0.09l-0.27,0.27l-0.22,0.44l0.16,0.86l-0.49,0.71l0.33,0.68l0.44,0.24l0.87-0.22
		l0.42,0.38v0.37l-0.32,0.49l0.05,0.42l0.22,0.07l0.21-0.56l0.46,0.85l0.1,0.27l0.27-0.26l0.11-0.42l-0.08-0.46l-0.3-0.4l0.24-0.73
		l0.07-0.64l-0.09-0.6l-0.22-0.64l0.08,0.12l0.12,0.26l0.39-0.76l0.24-1.04l0.06-1.15l-0.12-1.14l0.87,0.59l0.4,0.03l0.24-0.61
		l-0.61-1.57l-0.12-0.75l0.43,0.18l0.51-0.1l0.41-0.42l0.15-0.78l-0.26-0.01l-0.5-0.53l-0.26-0.73l0.47-0.62l-0.55-0.32l-0.22-0.06
		v-0.34l0.29,0.03l0.2-0.1l0.15-0.26l0.12-0.46l-0.4-0.41l0.49-0.01l0.29-0.38l0.28-0.28l0.46,0.33v-0.38h-0.21v-0.42h0.77v-0.34
		l-0.94-0.79l0.39-0.97l-0.31-0.27l-0.59,0.26l-0.44,0.63l0.15-0.82l0.8-1.85l-0.36,0.12l-0.28,0.26l-0.51,0.75l0.24-0.78l0.15-0.39
		l0.18-0.37h-1.11v-0.35l0.44-0.31l0.23-0.08l0.27,0.01v-0.35l-0.21-0.2l-0.15-0.31l-0.03-0.35l0.18-0.31l0.27,0.04l0.23,0.4
		l0.27,0.73l0.47,0.14l0.5-0.22l1.1-1.09l-0.17-0.14l-0.37-0.06l-0.21-0.14l-0.14-0.03l-0.2,0.29l-0.13-0.09l-0.08-0.23l-0.04-0.33
		l0.01-0.28l0.1-0.13l0.31-0.19l1.31-1.36l-0.72-0.56l-1.38-0.35l-0.57-0.57l0.41-0.18l2.15-0.23l0.24-0.25l0.14-0.55l0.07-0.58
		l0.02-0.31l-0.17-0.6l-0.36,0.01l-0.36,0.26l-0.16,0.16l-0.27,0.55l-0.2,0.27l-0.17-0.09l-0.03-0.46l0.16-0.42l1.94-2.34l0.39-0.96
		L515.42,157.86z M365.85,358.64l0.19-0.39l0.38-1.01l0.26-0.49l0.18-0.52l-0.27-0.14l-0.75,0.13l-0.45,0.16l-0.82,0.72l-0.65,0.28
		l-0.89,0.67l-0.32,0.41l-1.24,2.04l-0.73,0.72l-0.75,0.14l0.15,0.48l0.26,0.61l0.24,0.28l0.11-0.51l0.14-0.46l0.32,0l0.67,0.29
		l0.46-0.16l1.44-1.17l1.02-1.39l0.35-0.04l0.26-0.13l0.21-0.21L365.85,358.64z M388.5,379.38l0.52,1.34l0.28,0.3l0.26-1.54
		l0.27-0.72l0.21-0.71l-0.06-0.7l-0.15,0.27l-0.14,0.03l-0.13-0.12l-0.14-0.18l-0.34,0.38l-0.3,1.18L388.5,379.38z M390.59,374.88
		l0.16-0.59l-0.36,0.18l-0.63-0.12l-0.34,0.28l-0.38,0.99l0.18,0.79l0.51,0.33l0.63-0.39l-0.17-0.64l0.15-0.42L390.59,374.88z
		 M375.65,384.81l-0.13-0.59l-0.31-0.02l-0.43,0.21l-0.46,0.07l0.07,0.32l0.04,0.14l0.08,0.18l-0.23,0.2l-0.43-0.19l-0.2,0.18
		l-0.17,0.28l-0.58,0.76l-0.25,0.6l-0.14,0.65l-0.2,0.57l-0.43,0.34l0.57,0.3l0.76,0.02l0.75-0.22l0.55-0.41l-0.08-0.87l0.32-0.99
		L375.65,384.81z M386.97,381.14l-0.44,0.47l-0.3,0.81l0.66-0.09l0.85-0.28l0.56-0.52l-0.2-0.77l-0.21-0.37L386.97,381.14z
		 M377.67,358.87l0.05-0.23l-1.29-0.42l-0.38-0.27l-0.89,0.11l-1.09,0.33l-0.81,0.63l-0.07,0.97l-0.2,0.22h-0.23l-0.24-0.2
		l-0.24-0.39l-0.44,0.41l-0.45,0.21l-1.01,0.1l0.16,0.6l0.56,0.63l0.23,0.46l-1.32,0.99l0.38,0.39l0.46,0.35l0.53,0.24l2.58,0.45
		l0.56,0.33l0.34,0.37l0.25,0.46l0.45,1.02l0.25,0.26l0.25-0.09l0.23-0.22l0.21-0.12l0.58-0.1l1.77-0.93l0.26,0.3l0.11,0.41
		l-0.02,0.48l-0.16,0.51l-0.33,0.26l-1.64,0.78l-0.97-0.11l-0.27,0.11l-0.23,0.3l-0.12,0.35l-0.08,0.36l-0.4,1.02l-0.21,0.24
		l-0.37,0.09l-0.31,0.15l-0.26,0.37l-0.12,0.5l0.12,0.53l0.54,0.48l0.69,0.05l1.34-0.34l1.61-0.9l0.55-0.15l0.17,0.25l-0.53,0.55
		l-1.24,0.9l-1.9,0.4l-0.47,0.44l-0.43,0.22l-1.24-0.28l-0.51,0.22l0.15,0.11l0.1,0.1l0.12,0.08l0.22,0.06v0.34l-0.5,0.35
		l-0.38-0.43l-0.37-0.72l-0.44-0.52l-0.55-0.09l-0.69,0.13l-0.6,0.41l-0.25,0.71l0.17,0.91l0.4,0.76l0.5,0.55l0.75,0.45l0.57,0.2
		l0.34,0.02l0.29-0.15l0.17-0.35l0.13-0.35l0.16-0.16h2.55l0.29-0.14l0.65-0.46l0.28-0.1l0.32,0.13l0.34,0.23l0.34,0.1l0.32-0.27
		l0.47-0.53l2.19-1.13l0.93-0.22l0.26-0.16l0.19-0.34l0.15-0.35l0.14-0.16l0.67-0.25l0.34-0.03l0.23,0.27l-0.04,0.45l-0.25,0.42
		l-0.3,0.33l-0.18,0.15l0.88,0.59l1.08-0.26l2.45-1.68l0.48-0.57l0.18-0.54l-0.45-0.23l-1.04,0.15l-0.49,0.22l-0.44,0.34v-0.37
		l0.9-0.8l0.33-0.58l-0.09-0.65l0.21-0.02l0.19,0.02l0.17,0.1l0.17,0.21l-0.05,0.53l0.4,0.2l0.9-0.02l0.35-0.31l-0.21-0.69
		l-0.39-0.7l-0.25-0.33l0.51,0.08l0.22,0.08l0.23,0.17l0.14-0.98l-0.29-0.19l-0.4,0.1l-0.2-0.11l-0.13-0.61l-0.31-0.58l-0.37-0.45
		l-0.32-0.26l-0.18-0.01l-0.51,0.09l-0.27-0.08l-0.23-0.21l-0.61-0.96l-0.19-0.16l-0.27-0.05l-0.27,0.06l-0.42,0.29l-0.2-0.19
		l-0.2-0.3l-0.22-0.17h-2.75l-0.29-0.1l-0.07-0.25l0-0.33l-0.08-0.35l-1.12-2.69l-0.68-1.01l-0.85-0.08l0.05-0.22L377.67,358.87z
		 M360.82,322.56l2.53,0.87l0.45-0.39l0.06-0.58l-0.31-0.92l0.04-0.59l0.26-0.4l0.33-0.13l0.31-0.22l0.23-0.67l0.26,0.39l0.1,0.45
		l-0.03,0.48l-0.14,0.45l0.36-0.25l0.55-0.69l0.41-0.11l-0.13,0.57l0.05,0.42l0.18,0.27l0.25,0.14l-0.08,0.19l-0.08,0.08l-0.2,0.07
		l0.54,0.3l0.22,0.05v0.38l-0.4,0.32l0.35,0l0.59-0.25l0.31-0.07l0.31,0.06l0.18,0.16l0.36,0.44l1.72,1.45l0.36,0.67l-0.74-0.17
		l-0.57-0.52l-0.49-0.61l-0.49-0.44l-0.61-0.11l-0.54,0.24l-1.26,0.92l0.08,0.36l0.1,0.17l0.12,0.12l0.14,0.22l0.08,0.22l0.14,0.48
		l0.07,0.17l1.3,1.74l0.46,0.14l1.26-0.12l-0.17,0.41l-0.21,0.27l-0.26,0.18l-0.3,0.14l0.41,0.94l0.53,0.83l0.43-0.34l0.46-0.25
		l0.49-0.12l0.51,0.02v0.31l-0.83,1.11l-0.31,0.28v0.38l3.88-1.03l0.48-0.33l-0.4-0.41v-0.31l0.27,0.03l0.25,0.12l0.22,0.22
		l0.2,0.31l0.23-0.24l0.16-0.11l0.15,0.07l0.22,0.28l0.05,0.76l0.11,1.03l0.16,0.91l0.35,0.39l0.41-0.22l0.25-0.5l0.23-0.57
		l0.34-0.4l-0.19-0.38l0.27-0.29l0.19-0.35l0.29-0.75l-0.33-0.8l-0.12-0.4l-0.12-0.53l0.32,0.17l0.36,0.45l0.65,1.11l0.06,0.28
		l0.01,0.36l0.04,0.3l0.15,0.13l2.35-0.04l0.77-0.23l0.76-0.42v0.35l-2.65,1.35l-0.31,0.3l-0.25,0.33l-0.5,0.97l-0.19,0.24
		l-0.08,0.22l-0.11,0.48l-0.08,0.14l-0.16,0.11v0.34l0.07,0.44l-0.74,1.1l-0.08,0.87l0.26,0.66l0.39,0.17l1.47-0.29l0.51-0.35
		l0.44-0.45l1.62-2.28l0.22-0.39l0.26-0.25l0.58-0.33l0.58-0.47l0.27-0.69l0.05-1.12l0.19-0.34l1.09-0.11l0.41-0.22l1-0.85
		l0.56-0.77l0.21-0.41l0.11-0.49l-0.12-0.55l-0.01-0.33l0.45-1.26h-2.05l-0.46-0.64l-0.81-0.01l-0.77,0.29l-0.78,0.79l-1.14-0.05
		l-0.15,0.2l-0.17,0.33l-0.25,0.24l-0.39-0.04l-0.18-0.28l-0.19-0.48l-0.26-0.46l-0.41-0.2l-0.69,0.07l-0.37-0.04l-0.26-0.2
		l-0.61-0.63l-0.56,0.07l-0.61,0.31l-0.75,0.08v-0.35l0.69-0.33l0.33-0.46l-0.12-0.41l-0.63-0.18l-2.35,0.31l0.37-0.35l0.92-0.56
		l0.21-0.45l-0.18-0.37l-0.41-0.38l-0.4-0.52l-0.14-0.84l0.17-0.31l0.29-0.42l0.15-0.49l-0.24-0.53l-0.42-0.14l-0.48,0.17
		l-0.46,0.34l-0.34,0.33l0.25-0.47l0.72-0.71l0.16-0.38l0.05-0.69l0.25-1.16l0.07-0.77l-0.05-0.7l-0.27-1.53l-0.25-3.56l-0.12-0.43
		l-0.29-0.5l-0.52-0.69l-1.23-1.05l-0.09-0.24l-0.67-1.16l-0.26-0.35l-0.65-0.54l-0.24-0.32l-0.24-0.54l-0.1,0.2l-0.09,0.08
		l-0.21,0.09l-0.35-0.16l-0.2,0.36l-0.16,0.62l-0.24,0.61l-0.18,0.2l-1.1,0.71l-0.19,0.06l-0.06,0.18l0.03,0.61l0.14,0.34l0.23,0.3
		l0.15,0.41l-0.12,0.7l0.19,0.21l0.27,0.14l0.32,0.05l0.33-0.05l-0.34,1.04l-0.37,0.51l-0.1,0.52l0.46,1.07l0.95,1.13l0.38,0.64
		l-0.01,0.7l0.12,0.2l0.14,0.34l0.13,0.17v0.35l-2.09-2.79l-0.36-0.19l-0.33,1l-0.59,0.76l-0.27-0.08l0.63-1.52l-0.46,0.02
		l-0.39,0.21l-0.36,0.04l-0.39-0.43l-0.31-0.48l-0.3-0.26l-1.28-0.72l-0.19-0.15l-0.26-0.32l-0.08-0.32l-0.04-0.47l-0.11-0.42
		l-0.61-0.41l-0.31-0.46l-0.39-0.39l-0.56-0.01v0.38l0.32,0.44l-0.06,0.74l-0.29,0.75l-0.36,0.51l0.69,0.18l0.84,0.55l0.7,0.81
		l0.27,0.93l-0.81-0.38l-0.49-0.06l-0.22,0.25l-0.06,0.18l-0.25,0.1l-0.07,0.23l0.05,0.19l0.25,0.37l0.08,0.17l0.07,0.12l0.47,0.58
		l-0.13,0.09l-0.12,0.15l-0.12,0.1v0.31l0.16,0.64l-0.36-0.08l-0.5-0.39l-0.25-0.32l-0.17-0.47l-1.45-2.16l-0.26-0.17l-0.28,0.14
		l-0.37,0.56l-0.2,0.65l0.05,0.61l0.25,0.55l0.38,0.44h-1.69l0.29,1.15l1.14,0.87l0.25,1.33l0.21,0.73l0.52,0.62L360.82,322.56z
		 M378.43,404.71l-0.01-0.56l0.07-0.56l-0.45-0.21l-0.18-0.18l-0.14-0.27l0.04-0.3l0.13-0.45l0.07-0.41l-0.13-0.18l-0.26-0.16
		l-0.42-0.4l-0.38-0.49l-0.17-0.46l-0.09-1.47l-0.38-2.72l-0.11-2.09l-0.09-0.3l-0.18-0.19l-0.28-0.1l-0.25,0.3l-0.36,0.33
		l-0.41,0.26l-0.39,0.11l-0.35,0.21l-0.68,0.94l-0.99,0.58l-0.88,0.9l-0.59,1.08l0.21,0.96v0.34l-0.34-0.1l-0.21-0.36l-0.2-0.87
		v-0.31l0.34-1.39l0.21-0.31l-0.36-0.16l-0.31,0.25l-0.33,0.36l-1.5,0.68l-1,0.73l-0.21,0.39l-0.07,0.61l-0.03,0.77l-0.11,0.46
		l-0.22,0.3l-0.36,0.32l0.92,0.66l-1.23,1.84l-0.3,0.79l0.15,0.09l0.11,0.19l0.14,0.08l-0.35,0.87l-0.03,0.79l0.34,0.47l0.77-0.13
		l0.35-0.39l0.87-1.32l0.88-0.62l0.38-0.8l0.65-1.69l0.56-0.48l0.78-0.13l0.79,0.13l0.6,0.3l-1.25,1.22l-0.7,0.9l-0.11,0.88
		l0.23,0.02l1.09,0.54l0.34,0.42l0.59,1.71l-1.49,0.86l-0.6,0.69l-0.16,1.1l0.38,1.08l0.66,0.23l0.7-0.26l0.7-0.57l0.26-0.3
		l0.12-0.19l0.2-1.03l0.35-0.18l1.17,0.18l0.78-0.25l0.73-0.41l0.63-0.58l0.49-0.76l0.17,0.37l0.13-0.4l0.22-0.28l0.28-0.21
		l0.33-0.16v-0.3l-0.16-0.4L378.43,404.71z M358.21,363.21l-1.41,0.54l-0.62,0.15l-1.02,0.67l-0.62,0.23l-1.86,0.31l-0.6,0.34
		l0.28,0.83l0.16,0.77l0.24,0.58l1.73,0.8l0.57-0.03l-0.16-0.88l0.5-0.87l0.6-0.26l0.61-0.12l0.55-0.47l0.05-0.83l1.66-0.21
		l0.39-0.62l-0.35-0.87L358.21,363.21z M373.48,367.23l1.44-0.08l-0.29-0.58l-0.83-0.69l-0.4-0.44l-0.39,0.02l-0.35,0.19l-0.31,0.34
		l-0.29,0.48l0.72,0.65L373.48,367.23z M364.85,337.2l-0.32-0.28l-0.52,0.14l-0.95,0.56l-0.42,0.37l0.71,0.17l0.89,0.04l0.89-0.16
		l0.72-0.4l-0.33-0.26L364.85,337.2z"/>
</g>
<g id="copyright">
</g>
</svg>
