<?xml version="1.0" encoding="utf-8"?>
<!-- Generator: Adobe Illustrator 26.1.0, SVG Export Plug-In . SVG Version: 6.00 Build 0)  -->
<svg version="1.2" baseProfile="tiny" xmlns="http://www.w3.org/2000/svg" xmlns:xlink="http://www.w3.org/1999/xlink" x="0px"
	 y="0px" viewBox="329.17 177.69 181.7 238.78" overflow="visible" xml:space="preserve">
<g id="Background">
</g>
<g id="Ireland">
	<path fill="none" stroke="#FFFFFF" stroke-miterlimit="10" d="M510.01,234.78l0.24-0.58l-0.22-0.16l-1.13-1.75l-0.15-0.85
		l-0.21-2.43l-0.25-0.5l-0.6-0.35l-0.42-0.9l-0.56-2.16l-0.1-0.62l-0.02-0.53l-0.12-0.36l-0.38-0.14l-0.34-0.19l-0.44-0.86
		l-0.2-0.21l-4.29,0.71l-0.79-0.07l-0.56-0.44l-0.55-0.22l-0.78,0.35l-1.23,0.93l-1.26,0.62l-0.35,0.41l-0.8,1.28l-0.39,0.38
		l-0.2,0.39l-0.27,0.3l-0.45-0.04l-0.09-0.3l-0.04-0.55l-0.15-0.54l-0.43-0.29l1.31-2.43l0.68-0.93l0.94-0.86l0.96-0.53l2.13-0.64
		l1.05-0.53l0.8-0.9l0.51-1.37l0.1-1.73l-0.43-1.96l-0.67-1l-1.11-0.99l-1.08-0.29l-0.56,1.06l2.28,2.44l0.65,1.33h-0.22l-0.85-1.28
		l-1.06-0.43l-0.9-0.57l-0.38-1.71l-0.1-0.9l-0.25-0.76l-0.32-0.62l-0.33-0.48l-0.28-0.33l-0.56-0.48l-0.23-0.27l-0.21-0.47l-0.24-1
		l-0.16-0.42l-0.73-1.08l-0.85-0.8l-0.96-0.5l-1.04-0.17l-0.07-0.43l0.65-2.3l0.07-1.12l-0.27-0.58l-0.47-0.4l-0.53-0.23l-0.47-0.07
		l-0.67,0.04l-0.68-0.1l-0.28-0.55l0.53-1.35l0.24-1.03l0.13-3.48l-0.36-0.67l-1.32-1.48l-0.29-0.16l-0.3-0.47l-0.71-0.33l-1.4-0.26
		l-0.7,0.13l-1.37,0.59l-0.79,0.13l-0.57-0.16l-3.47-1.98l-0.91-0.23l-1.35,0.9l-0.86-0.26l-1.29-0.79l-0.79,0.1l-0.77,0.4
		l-0.69,0.62l-0.55,0.75l-0.59,0.46l-2.47,0.18l-4.08,1.91l-4.62,0.23l-0.71-0.28l-1.54-1.05l-0.57,0.04l-0.22,0.87l-0.22,2.83
		l-0.41,0.6l-0.42,0.44l-0.42,1.02l-0.28,1.14l0.02,0.8l-0.53,0.38l-0.78,1.02l-0.4,0.31l-1.23,0.17l-1.23-0.17l-1.56-0.82
		l-0.64-0.08l-1.19,0.36l-0.63-1.08l-0.02,0.01l0.07-0.24l0.45-1.14l0.57-1.04l1.56-2.19l0.48-0.44l0.97-0.3l1.17-0.63l1.22-1.22
		l1.13-0.74l1.19-0.52l1.01-0.19l1.06-0.65l0.12-1.28l-0.5-0.95l-0.79,0.36l-0.74-0.57l-1.62-0.7l-1.33-0.24l-1.79-0.82l-0.54-0.49
		l-1.83-2.83l-0.48-0.41l-1.38-0.76l-0.58-0.08l-2.46-0.9l-1.21-0.7l-0.64-0.15l-0.57,0.39l0.31,0.41l0.43,0.38l0.95,0.57l0.08,1.46
		l1.07,1.37l2.29,1.84l-0.71,0.52l-0.8-0.04l-0.79-0.37l-0.68-0.5l0.24,0.04l0.76-0.04l-0.55-1.14l-0.72-0.36l-0.72,0.23l-1.36,1.49
		l-0.79,0.02l-0.76-0.48l-0.71-0.62l0.07,0.33l0.02,0.18l0.03,0.14l0.1,0.21l-0.56,0.4l-0.5-0.09l-0.52-0.24l-0.6-0.07l0.38,0.99
		l-0.09,1.27l-0.39,1.09l-0.79,0.72l-0.01,0.62l0.14,0.66l0.15,0.42l0.27,0.36l0.85,0.71l1.43,2.24l0.25,0.1v1.5l-0.38,0.88
		l-0.14,0.57l0.16,0.26l0.66,0.37l0.16,0.87l-0.22,1l-0.46,0.78l-0.62,0.28l-0.82,0.2l-0.72,0.32l-0.3,0.68l-0.38,0.09l-3.39,3.31
		l-0.65,0.45l-0.71,0.22v-0.43l0.5-0.42l1.19-1.69l1.77-1.28l0.43-0.45l0.39-1.32l-0.69-0.37l-2.14,0.41v-0.43l1.95-1.28l0.65-0.79
		l0.42-0.37l0.54-0.16l0.35-0.46l0.2-1.03l-0.07-1.02l-0.49-0.48l-0.4-0.28l-0.42-0.7l-0.29-0.83l-0.02-0.74l-1.03-0.52l-0.46-0.42
		l-0.2-0.55l0.09-0.37l0.16-0.94l0.06-0.98l-0.18-0.45l-0.31-0.29l-0.29-0.62l-0.38-0.6l-0.61-0.24l-0.45,0.16l-1.28,1.12l-0.57,0.2
		l-1.27-0.2v0.35l-0.98,2l-0.12,0.78l0.43,0.4l1.05,0.31l0.33,0.38l0.29,0.45l0.35,0.36l0.49,0.1l-0.22-0.67l-0.23-0.97l-0.07-0.89
		l0.28-0.45l0.45,0.21l0.3,0.68l0.17,0.82l0.05,0.61l0.17,0.38l0.34,0.97l0.23,0.99l-0.13,0.44l-0.25,0.35l-0.57,1.66l-0.28,0.56
		l0.05-0.57l0.19-1.12l0.01-0.44l-0.1-0.45l-0.32-0.81l-0.07-0.24l-0.3-0.58l-0.68-0.63l-0.74-0.5l-0.48-0.23l-0.33,0.07l-0.35,0.41
		l-0.32-0.01l-0.25-0.2l-0.17-0.29l-0.12-0.26l-0.07-0.11l0.06-0.45l0.82-2.92l-0.14-0.14l-0.04-0.01l-0.09-0.31l-0.9,1.09
		l-0.94,0.71l-0.56,0.77l0.21,1.26l0.81,1.17l0.1,0.68l-0.42,1.13l-0.36,0.48l-0.31,0.03l-0.4-0.12l-0.65,0.02v-0.42l0.42-0.07
		l0.37-0.24l0.28-0.41l0.18-0.6l-0.55,0.18l-0.53,0.42l-0.3,0.12l0.14-0.72v-0.39l-0.49-0.9l-0.34,0.25l-0.57,0.23l-0.54,0.06
		l-0.24-0.3l-0.22-0.16l-1.51,0.82v-0.43l1.63-1.14l0.3-0.68l-0.96-0.73l-0.81,0.14l-0.43,0.91l-0.33,1.01l-0.5,0.49l-0.69,0.25
		l-2.16,1.39l-1.07,1.53l-0.42,0.36l-0.19-0.31l0.08-0.57l0.19-0.41l0.24-0.4l0.23-0.55l-0.58,0.13l-1.1,0.58l-0.65,0.14l-2.02-0.88
		l-0.56,0.03l-0.35,0.65l-0.57,1.92l-0.42,0.41l-0.15,0.48l0.13,1.09l0.41,1.83l-0.3,0.33l-0.23,1.16l-0.2,0.25l-0.34-0.3l-0.1-1.45
		l-0.33-0.37l-0.26,0.24l-0.69,1.5l-0.41,0.25l-0.36-0.04l-0.28,0.15l-0.18,0.89H404l-0.1,0.23l-0.36,0.62l-0.41-0.36l-0.41-0.07
		l-0.38,0.13l-0.3,0.3v0.46l1.36,1.69l0.8,0.8l1.06,0.44l-0.88,0.59l-0.47,0.19l-0.5,0.07l-0.46-0.19l-0.34-0.37l-0.34-0.18
		l-0.46,0.35l0.45,1.16l0.65,1.27l0.84,0.9l1.02,0.05l0.03-0.19l0.01-0.4l0.06-0.43l0.15-0.28l0.19-0.07l0.65,0.07l0.48,0.22
		l0.39,1.1l0.48,0.4l-0.53,0.15l-1.41-0.26l-0.5,0.53l-0.02,1.02l0.57,0.66l0.79,0.34l0.64,0.1v0.42l-0.74-0.01l-1.99-0.8
		l-1.68,0.32l-0.78-0.06l-0.71-0.72l-0.39,0.34l-0.48,0.65l-0.35,0.28l-0.44,0.11l-0.35-0.01l-0.26,0.15l-0.14,0.6l0.84,0.1
		l1.29,0.94l1.35,0.49l1.9,1.9l-0.66,0.35l-0.64-0.37l-0.58-0.73l-0.45-0.73l-0.41-0.16l-1.61,0.09l-0.56,0.26l0.68,0.68l2.5,0.62
		v0.39l-0.97-0.02l-1.88-0.62l-3.59-0.1l-0.91,0.36l-2.55,1.87l-0.4,0.46l-0.1,0.73l-0.28,0.45l-0.42,0.23l-0.52,0.06l-0.5,0.16
		l-0.08,0.4l0.24,0.44l0.46,0.29v0.38l-0.19,0.23l-0.1,0.2l-0.08,0.23l-0.12,0.23l0.63-0.01l2.96,1.14l0.33,0.33l-0.28,0.61
		l0.62,0.41l2.71,0.01l0.72,0.52l0.45,0.13l0.38-0.85l0.42-0.16l0.87-0.05l0.22-0.1l0.38-0.27l0.23-0.05l0.29,0.1l0.04,0.24
		l-0.04,0.28l0.16,0.43l0.34,0.49l0.38,0.32l0.18-0.37l0.29-1.16l0.6-0.84h0.46l-0.12,1.36h0.25l0.53-0.57l0.45,0.53l0.1,0.89
		l-0.48,0.46l-0.68,0.18l-0.54,0.45l-0.87,1.04v0.39l0.52-0.13l0.51-0.31l0.48-0.41l1.67-1.85l0.91-0.46l0.91-1.19l0.54-0.27
		l0.52,0.18l0.25,0.45l-0.05,0.56l-0.37,0.54v0.38l0.74-0.4l1.3-1.07l2.44-0.41l0.71-0.38l0.68-0.65l0.07,0.19l0.02,0.04l0.04,0.01
		l0.11,0.13l-0.19,0.54l-0.41,1.99l-0.45-0.1l-0.27-0.22l-0.25-0.27l-0.39-0.25l0.1,1.52l-1.66,1.52l0.09,1.2l-1.96,1.65l0.47,0.57
		l0.52,0.25l1.19,0.05v0.45l-1.14,0.26l-1.61,1.12l-3.46,0.69l-1.06,0.54l-1.04,0.74l-0.03-0.38l-0.05-0.02l-0.14-0.06l-0.1-0.38
		l-0.26-0.67l-0.27-0.19l-0.13,1.04l-0.03,1.23l-0.1,0.49l-0.22,0.19l-0.59,0.2l-4.15,2.95l-1.03,0.3l-0.44,0.28l-0.36,0.4
		l-0.16,0.46l0.05,0.65l0.19,0.19h3.55l0.77,0.21l0.76,0.48l0.26,0.57l-0.71,0.44l-0.83-0.69l-0.45-0.16l-0.19,0.62l0.1,0.5
		l0.26,0.17l0.73-0.07l0.68,0.11l0.68,0.31l0.65,0.52l0.56,0.75l-2.52-0.48l-0.41,0.26l-0.22,0.29l-0.48-0.12l-0.79-0.38l-0.32,0.23
		l-0.41,0.72l-0.25,0.3v0.45h0.55l0.66,0.2l0.55,0.35l0.22,0.48l0.24,0.68l0.56,0.33l0.65,0.2l0.51,0.27v0.41l-1.16-0.04l-0.56,0.12
		l-0.48,0.39l-0.74-1.16l-0.41-0.4l-1.02-0.41l-0.22-0.59l-0.1-0.7l-0.21-0.57l-1-0.52l-2.18,0.44l-0.99-0.75l-0.74,0.59l-0.77,0.24
		h-1.76l-0.54-0.13l-0.8-0.57l-0.57-0.21l-0.62-0.38l-0.42-0.36l-0.19,0.12l-0.2,0.2l-0.25,0.09l-2.16-0.52l-1.21,0.14l-0.53,1.02
		L380,248.8l-0.62,1.23l-0.8,0.81l-0.81,0.33l0.22,0.9l-0.05,0.86l-0.13,0.93l-0.03,1.1h-0.22v-1.2l-0.29-0.92l-0.45-0.7l-1.73-1.57
		l-0.16-0.57l0.68-0.47v-0.45l-0.78-0.39v-0.41l0.2-0.3l0.09-0.43l-0.06-0.5l-0.24-0.48l-0.07,0.17l-0.37,0.13l-0.64,0.12
		l-0.18-0.27l-0.29-1.15l-0.26-0.27l-0.32-0.03l-1.6-0.76l-0.44-0.07l-0.33,0.27l-0.27,0.36l-0.41,0.33l-0.43,0.24l-0.35,0.1
		l-2.84-0.42l-0.28-0.18l-0.49-0.54l-0.32-0.11l-0.4,0.08l-0.67,0.31l-0.39,0.06l-6.14-0.45l-0.69-0.19l-1.36-0.86l-0.76-0.2
		l-2.09,0.57l-0.07,0.45l0.22,0.88l0.38,0.62l1.88,0.42l0.67,0.4l-0.78-0.17l-0.34,0.02l-0.35,0.15v0.42l0.73,0.42l0.28,0.33
		l0.21,0.53l-0.79-0.13l-1.25-0.94l-0.77-0.22l-0.55,0.36l-0.58,0.86l-0.23,0.98l0.48,0.74l-0.53,0.34l-0.48,0.68l-0.49,0.45
		l-0.59-0.41l-0.65-0.3l-0.85-0.05l-0.55-0.37l0.22-1.18l0.91,0.84l0.89,0.12l0.85-0.69l0.8-1.52l-0.17-0.04l-0.04-0.06v-0.08
		l-0.06-0.21l-0.35,0.29h-0.32l-0.29-0.26l-0.27-0.47l-0.5,0.35l-0.64-0.07l-0.62-0.32l-0.46-0.38l-0.13-0.3l-0.05-0.4l-0.08-0.36
		l-0.21-0.21l-0.36,0.04l-0.15,0.23l-0.08,0.32l-0.15,0.26l-1.58,0.93l-0.39,0.36l-0.29,0.72l-0.2,0.8l-0.32,0.56l-0.68,0.02
		l0.4,0.54l0.45,0.23l1.11,0.03l-0.41,0.74l-0.4,0.4l-0.3,0.5l-0.12,1.09l-0.18,0.7l-0.81,1.74l-0.21,0.72l0.05,1.16l0.33,0.61
		l0.54,0.25l0.66,0.06l0.62-0.24l-0.08-0.54l-0.44-0.56l-0.47-0.33l0.69-0.4l0.31-0.02l-0.09-1.17l-0.18-0.36l-0.47-0.18v-0.38
		l0.77-0.43l0.44-0.1l0.51,0.08v-0.42l-0.16-0.2l-0.32-0.62l0.69,0.16l0.59-0.25l0.2-0.52l-0.51-0.65l0.52-0.64l0.81,0.31l1.86,1.58
		l-0.23,0.5l-0.33,0.26l-0.42-0.01l-0.49-0.33l1.24,1.39l0.45,0.73l-0.23-0.14l-0.49-0.16l-0.23-0.15l0.2,0.72l0.43,0.58l1.09,0.82
		l-0.65,0.37l-1.61,0.49l-0.69-0.03l0.72,1.59l0.9,0.75l1.01-0.21l1.03-1.29h-0.24v-0.42l0.37-0.06l0.19-0.08l0.04-0.22L351.1,257
		l0.93-0.31l0.41,0.02l0.34,0.29l-1,0.87l0.27,0.42l-0.47,0.26l-0.31,0.37l0,0.36l0.51,0.21l-0.42,0.55l-0.48,0.15l-0.39,0.28
		l-0.16,0.91l0.12,0.9l0.26,0.49l0.26,0.33l0.12,0.38l0.12,0.21l0.6-0.07l0.23,0.04l0.17,0.3v0.25l-0.03,0.29l0.42,1.51l0.25,0.44
		l0.41,0.15l-0.22-0.45v-0.38l0.5,0.07l0.34,0.36l0.29,0.45l0.33,0.37l-0.14,0.72l0.06,0.66l0.01,0.5l-0.31,0.19l-0.42-0.32
		l-0.15-1.42l-0.42-0.32l-0.49-0.12l-0.8-0.58l-0.31-0.16l-1.71,0.45v0.41h0.27v0.38l-0.12,0.42l0.01,0.26l0.1,0.57l-0.6,0.44
		l-0.22,1.7l-0.45,0.34l1.18,1.26l1.94-0.46l3.52-2l5.1,0.02l1.03,0.39l0.2-0.2l0.14-0.11l0.16-0.06l0.24-0.04l-0.08,0.57
		l-0.16,0.46l-0.22,0.38l-0.28,0.25l0.66,0.39l0.29,0.02l-1.24,1.02l-0.38,0.55l0.16,0.5v0.41l-0.23,0.04l-0.16,0.11l-0.15,0.14
		l-0.19,0.11l1.44,0.74l0.54,0.09v0.45l-6.64,1.21l-0.39-0.18l-0.73-0.46l-0.21,0.02l-0.36,0.39l-0.39,0.13l-0.85,0.11l-0.97,0.37
		l-1.36,0.25l-0.34,0.24l0.32,1.1l-0.22,0.94l-0.39,0.98l-0.22,1.29l0.51,2.69l2.9,1.79l1.56,0.61l2.49-0.21l0.62,0.32v0.38
		l-2.8-0.19l-1.71-0.3l-0.75-0.55l-0.37-0.15l-0.48,0.04l-1.23,0.78l-1.02,0.28l-2.79-0.28l-1.36,0.31l0.53,0.72l2.17,1.47
		l-0.38,0.24l-0.5,0.75l-0.34,0.16l-0.53-0.93l-0.2-0.23l-1.61-0.43l-1.59-0.02l0.07,0.28l0.11,0.68L343,291l-0.9-0.04l-0.86-0.27
		l-0.84-0.02l-0.83,0.71l0.35,0.33l0.42-0.04l1.04-0.29l0.34,0.31l0.3,0.68l0.2,0.71l0.04,0.38l0.74,0.86l1.35,0.58l1.35,0.27
		l0.71-0.07l-0.3,0.67l-0.73-0.13l-0.88-0.4l-0.78-0.14l0.2,0.55l0.27,0.4l0.34,0.23l0.41,0.06v0.44l-0.54,0.59l-0.54,0.07
		l-1.36-0.28l-0.75,0.1l-0.52,0.37l-0.38,0.65l-0.32,0.97l0.66-0.01l0.29-0.13l0.29-0.27l0.51,0.57l0.86,0.08l1.44-0.25l0.5,0.17
		l0.26,0.42l0.22,0.54l0.37,0.5l0.41,0.25l0.46,0.11l1.42-0.02l0.61-0.28l0.41-0.07l0.39-0.22l-0.01-0.57l-0.1-0.67l0.1-0.58
		l0.41-0.39l0.32,0.04l0.3,0.22l0.33,0.13l0.35-0.15l0.25-0.33l0.28-0.3l0.46-0.06l-0.3,0.59l-0.71,0.5l-0.19,0.54l0.2,0.67
		l0.55,0.06l0.47-0.3l-0.03-0.43l0.8-0.61l0.4-0.16h0.53v0.41l-0.75,0.37v0.45h1.24v0.37l-0.54,0.5l-1.46,0.99l-0.6,0.19l-0.48,0.01
		l-0.32,0.09l-0.25,0.24l-0.12,0.44l-0.07,0.67l-0.18,0.77l-0.16,0.24l0.55,0.39l1.56-0.35l0.7,0.59l0.59,0.7h0.58l1.69-0.77
		l0.56-0.69l0.85-1.55l0.39-0.95l0.29-0.45l0.43-0.19l0.49-0.64l0.22-0.22l0.16,0.1l0.15,0.22l0.21,0.12l0.02,0.47l-0.36,1.06
		l-0.16,1.12l0.64,0.65l0.68-0.27l0.32-0.87l-0.07-1.04l-0.47-0.71l0.54-0.37l0.63-0.11l1.29,0.06l-1.34,0.78l-0.39,0.45l1.45,1.41
		l-0.09,0.22l-0.11,0.13l-0.23,0.56l-0.14,0.13l-0.26-0.06l-0.36-0.25l-0.12-0.07l-0.71,0.52l0.3,2.7l-0.69,1.23v0.45l0.58,0.71
		l0.55-0.1l0.42-0.76l0.16-1.29l0.33-1.09l0.6-0.02l0.26,0.69l-0.68,1.04l0.47,0.51l0.31,0.58l0.41,0.55l0.76,0.36l1.49,0.01
		l0.8-0.22l0.53-0.4l1.13-0.56l11.6-0.96l1.24-0.56l0.72-0.12l2.84,0.4v0.41l-0.47,0.24l-0.93,0.28l-0.33,0.3v0.36h1v0.41
		l-0.71,0.04l-1.62,0.41l-0.63,0.4l0.51,0.25l3.53,0.12l0.31-0.08l0.66-0.28l0.38-0.01l-1.2,0.88l-0.57,0.65l-0.46,0.91l0.24,0.37
		l0.17,0.44l0.32,1.22l-0.52-0.12l-0.44-0.24l-0.39-0.37l-0.36-0.5l0.19-0.57l-0.28-0.07l-0.41,0.19l-0.41,0.46l-0.46-0.07
		l-0.83-0.38v0.44l1.49,0.85v0.37l-0.7-0.09l-1.09-0.91l-0.56-0.22l-2.1,0.41v0.44l1.57,0.51l0.51,0.54l-0.1,0.95l-0.85-0.51
		l-0.8,0.2l-0.74,0.48l-0.68,0.27l-0.78-0.34l-1.68-1.6l-0.84-0.49l-0.76,0.31l-0.62,1.04l-0.49,1.27l-0.59,0.99l-0.78,0.84
		l-1.91,3.66l0.26,0.39l-0.39,0.27l-0.34,0.42l-1.06,1.79l-0.42,0.55l-1.01,1.01l0.94,0.34l2.81-0.14l0.67,0.22l-0.4,1.14
		l-2.23,2.14l-0.06,0.79v0.4l-0.29,0.26l-0.14,0.37l-0.12,0.46l-0.2,0.53l-0.34,0.53l-0.36,0.49l-0.39,0.38l-0.38,0.22l0.27,0.44
		l-0.1,0.41l-0.09,0.07l0,0.04l0.19,0.25l-0.27,0.55l-0.12,0.67l-0.14,0.56l-0.35,0.24l-0.4,0.06l-0.67,0.31l-0.4,0.07l-1.12-0.14
		l-0.46,0.14l-0.34,0.18l-0.51,0.43l-0.39,0.18l0.15,0.58l0.09,0.23l-7.24,6.97l-1.84,0.49l-1.52,1.09l-0.65,0.31v0.36l6.39-0.9
		l0.95-0.7l0.26,0.1l0.33,0.22l0.27-0.1l0.12-0.82l0.33-0.67l0.77-0.36l1.58-0.35l2.71-1.27l-0.15-0.46l-0.23-0.35l-0.29-0.25
		l-0.33-0.12v-0.4l1.3-0.03l0.39,0.33l-0.19,0.91l0.48,0.49l1.22,0.17l0.25,0.33l0.3,0.52l0.69,0.3l0.78,0.15l1.82-0.08l2.61-0.83
		l1.13-0.7l0.01,0.8l-0.59,0.61l-0.78,0.53l-0.57,0.51l0.37,0.26l0.43,0.16l0.45,0.05l0.44-0.07l0.36-0.25l0.57-0.79l0.18-0.16
		l3.19-0.37l0.68-0.37l3.17-4.29l1.16-2.2l0.08-0.76l0.84-0.78l1.12-0.62l0.94-0.25l-0.27,0.34l-0.39,0.77l-0.3,0.48l0.55,0.22
		l0.09,0.61l-0.05,0.7l0.15,0.52v0.4l-0.46,0.41l0.04,0.36l0.4,0.28l0.61,0.11l2.33-0.37l1.18,0.25l2.33,0.94l0.65,0.01l-1.21,0.41
		l-6.26,0.81l-0.39,0.22l-0.29,0.51l-0.23,0.54l-0.2,0.33l-0.52,0.25l-0.73,0.15l-0.65-0.15l-0.29-0.65l-0.65,0.45l-4.35,1.39
		l-0.51,0.37l-0.48,0.51l-0.58,0.24l-1.27,0.26l-2.28-0.05l-0.51,0.25l-0.3-0.09l-2.85-0.11l-0.29,0.06l-0.23,0.18l-0.26,0.38
		l-0.36,0.28l-0.36-0.12l-0.33-0.25l-0.28-0.13h-2.84l-1.46-0.4l-0.38,0.14l-0.29,0.28l-0.23,0.16l-0.2-0.19l-0.84,1.03l-0.13,0.42
		l0.09,0.7l-0.06,0.33l-0.29,0.36v0.4l0.22,0.3l0.06,0.3l-0.07,0.3l-0.2,0.3l0.59-0.06l0.57,0.11l0.42,0.4l0.15,0.79l-0.6-0.31
		l-0.93-0.25l-0.94-0.02l-0.61,0.37l-0.53,0.8l-0.48,0.41l-3.56,1.66l-2.41,0.15l-0.68,0.25l-0.54,0.55l0.65,0.71l1,0.48l1.89,0.36
		l0.59,0.59l-0.11,2.86l0.39,0.97l-0.91,0.36l-0.35,0.01v0.43l0.31,0.04l0.23,0.09l0.46,0.27l-0.54,0.26h-0.37l-0.33-0.24
		l-0.44-0.42l0.08,0.54l0.14,0.44l0.2,0.35l0.27,0.29l0.54-0.4l0.54,0.14l1.17,0.65l1.13,0.02l0.51,0.15l0.56,0.58l-2.59,0.36
		l-0.59-0.36l0.22-0.21l0.24-0.17l-0.44-0.19l-0.42,0.23l-0.74,0.97l-0.51,0.29l-1.49-0.02l-1.2-0.27l-1.1-0.52l-0.58-0.1
		l-0.51-0.29l-0.15-0.73l-0.02-0.91l-0.17-0.86l0.17-0.6l-0.4-0.21l-1.26,0.02l0.85,1.13l-0.32,1.22l-0.95,1.06l-1.05,0.61
		l-2.34,0.36l-0.07-0.34l0.43-2.22l-0.56-0.48l-3.72,1.09l-0.4,0.27l-0.79,1.26l-0.41,0.42l-0.68,0.16l-0.54-0.02l-0.42,0.23
		l-0.33,0.9l0.16,0.09l0.36,0.28l-0.42,0.51l0.02,0.43l0.12,0.4l-0.1,0.46l-0.36,0.21l-0.45-0.16l-0.79-0.66l0.26-0.8l-0.67,0.2
		l-0.77,0.42l-0.42,0.53l0.37,0.47v0.36l-0.66,0.61l-0.31,0.18l0.32,1.16l0.06,0.99l0.24,0.7l0.87,0.33l0.76-0.14l1.42-0.67
		l0.77-0.02l-0.37-0.18l-0.11-0.18l-0.03-0.39h0.84l1.7,0.59l0.9,0.16v-0.36l-0.59-0.31l-0.3-0.09h-0.36v-0.37l1-0.31l0.4,0.03
		l0.91,0.94l0.27-0.16l0.24-0.34l0.37-0.15l0.37,0.35l0.36,0.56l0.39,0.35l0.85-0.54l4.8-1.21l1.08,0.06l0.51,0.15l0.47,0.24
		l0.35,0.4l0.22,0.94l0.16-0.26l0.23-0.67l-0.47-1.2l7.1-0.39l-1.25,0.79l0.2,0.17l0.31,0.4l0.25,0.23l-2.66,0.36l-1.12-0.06
		l-1.1-0.67l-0.76,3.43l0.12,0.54l-0.51,0.02l-0.5-0.11l-0.33-0.45l0-1.04h-0.27l-0.77,1.97l-1.46,0.86l-3.39,0.73l-2.28,1.08
		l-0.91,0.64l-1,0.22l-0.74,0.39l0.27,0.84l-0.43,0.24l-0.88,0.33l-0.42,0.27v0.36l0.68,0.08l0.36,0.57l0.31,0.65l0.51,0.31
		l0.13,0.17l0.02,0.4l-0.11,0.39l-0.29,0.18h-0.62l-2.97,1.07l-1.18,0.15v0.4l0.12,0.01l0.25-0.03l0.12,0.02l-0.03,0.28l-0.07,0.15
		l-0.07,0.14l-0.07,0.22l0.05,0.03l0.09,0.01l0.08,0.07l0.02,0.27l-0.25,0.64l0.46,0.1l0.72-0.06l0.53,0.12l0.22,0.77l-0.42,1.68
		l0.2,0.73l0.54-0.33l1.11-1.05l0.43-0.23l0.41-0.31l0.89-1.38l0.42-0.31l1.44,0.68l0.61,1.48l-0.32,1.38l-1.37,0.43l3.39,1.6
		l-0.21,0.76l0.87-0.28l0.96-0.57l0.9-0.73l0.72-0.78l0.81,0.43l0.83-0.36l1.56-1.25l0.42-0.14l0.85-0.13l0.43-0.16l0.22-0.24
		l0.2-0.31l0.3-0.24h0.5l-0.07,0.29l-0.1,0.66l-0.07,0.27l0.39-0.1l1.07-0.69l-0.22-0.43l0.55-0.18h1.18l0.22-0.38l0.3-0.37
		l0.68-0.42l3.75-1.44l2.59-0.33v0.43l-1.14,0.39l-2.09,1.19l-1.17,0.36l-0.94-0.08l-0.28,0.08l-0.19,0.25l-0.42,0.76l-0.71,0.4
		l-0.91,1.07l-0.48,0.31v0.36l0.71,0.35l0.28,0.05v0.39l-1.37,0.04l-0.62-0.1l-0.47-0.33l-0.08,0.96l-0.4,0.57l-0.59,0.31
		l-0.63,0.13l0.19-0.31l0.19-0.6l0.11-0.26l-0.94,0.24l-1.23,0.6l-1.12,0.88l-0.61,1.03h1.46v0.43l-1.68,1.63l-0.78,0.33l-1.46-0.12
		l-0.77,0.16l-0.46,0.71l0.55-0.03l0.52,0.16l0.29,0.41l-0.14,0.71l0.11,0.06l0.08-0.01l0.05,0.06l-0.01,0.25l-0.54,0.34l-2.44,0.67
		l-0.22,0.16l-0.13,0.32l-0.02,0.35l-0.07,0.32l-0.27,0.19l0.24,0.43l0.62-0.64l0.81-0.36l1.64-0.21l0.36,0.07l0.7,0.29l0.41,0.07
		l0.86-0.69l2.25-0.74l0.2-0.14l0.12-0.19l0.03-0.23l0.01-0.21l0.06-0.16l0.52-0.41l1.48-0.67l4.51-0.64l1.23-0.53l2.34-0.25
		l0.75-0.24l0.7-0.44l0.99-1.03l0.49-0.36l0.72-0.19l-0.38-0.62l-0.03-0.5l0.05-0.53l-0.16-0.74l0.36,0.12l0.35,0.22l0.3,0.25
		l0.23,0.23l0.03,0.23l-0.07,0.73l0.03,0.23l0.14,0.07l0.31-0.02l0.83,0.65l0.61-0.24l0.55-0.34l0.52,0.26v0.36l-0.17,0.17
		l-0.16,0.33l-0.16,0.28l-0.07,0.94l-1.05,0.46l-1.32,0.32l-1.33,0.7l-1.17,0.15l-0.48,0.76l-4.41,2.38l-1.4,0.5l-0.32,0.54
		l-0.25,0.54l-0.35,0.25l-0.33,0.14l-1.51,1l2.24-0.19l6.9-3.5l1.65,0.16l-0.75,0.5l-1.29,0.59l-0.67,0.53l-1.57,1.79l-0.63,0.53
		l-0.78,0.39l-1.25,0.33l-0.65,0.45l-1.28,1.28l-0.65,0.45l-0.78,0.25l0.27,0.55l0.15,0.13l0.31,0.11v0.36l-0.13,0.23l-0.07,0.27
		l-0.05,0.73l0.24-0.43l0.25,0.43l1.03-0.95l0.32-0.11l-0.1,0.62l2.44-1.16l-0.16-0.06l-0.1-0.09l-0.23-0.26l1.95-1.77l0.24-0.51
		l0.5,0.29l0.44,0.64l0.04,0.57l0.61,0.01l0.41-0.17l0.69-0.66l0.24-0.03l0.63,0.04l0.13-0.19l0.05-0.56l0.14-0.24l2.53-0.57
		l1.03-0.48l-0.3-0.69l0.48-0.22l0.65,0.1l0.58,0.31l0.25,0.36l-0.14,0.82l-0.24,0.63l-0.05,0.55l0.43,0.58l0.75-0.66l0.33-0.4
		l0.14-0.34l1.14-0.69l0.31-0.3l0.08,0.19l0.04,0.06l0.04,0.03l0.11,0.12l-0.45,0.44l-0.88,0.59l-0.39,0.51l-0.32,0.78l0.14,0.2
		l0.42-0.2l0.51-0.35l-0.23,0.57l-0.27,0.4l-0.33,0.3l-0.42,0.29l1.15-0.02l0.5-0.17l0.42-0.4l0.3-0.21l0.28,0.01l0.21-0.07
		l0.07-0.51l0.98-0.62l0.07,0.31l0.1,0.24l0.07,0.26l0.02,0.4l0.42-0.21l0.33,0.1l0.32,0.17l0.39-0.05l0.29-0.36l0.18-0.48
		l0.25-0.36l0.51-0.02v-0.36l-0.1-0.57l0.29-0.09l0.92,0.24l0.55-0.11l0.54-0.32l0.45-0.49l0.28-0.65l-0.31-0.28l-0.16-0.09v-0.42
		l0.45,0.12l0.8,0.49l0.46,0.17l1.97-0.43l0.53-0.31l0.42-0.04l0.4,0.13l0.71,0.53l0.25,0.13l0.09,0.24l0.3,0.42l0.32,0.14
		l0.15-0.62l0.2-0.12l1.26-0.43l0.34-0.67l0.38-0.99l0.51-0.66l0.74,0.33l0.24-0.28l0.23,0.03l0.27,0.16l0.38,0.09h1.32l0.29,0.25
		l0.25,0.38l0.26,0.23l0.31-0.24l1.36,0.17l-0.17-0.66l0.04-0.52l0.22-0.43l0.39-0.36l-0.73-0.35l0.23-0.23l0.24-0.16v-0.43h-1.31
		l-0.6-0.23l-0.51-0.56l4.27,0.43l1.75-0.49l0.59,0.06l0.5,0.4l0.51,1.16l0.45,0.41l-0.07-0.66l-0.16-0.86l-0.04-0.64l0.1-0.36
		l0.55-1.37l0.22-0.06l0.3-0.16l0.25-0.26l0.08-0.33l-0.17-0.44l-0.22,0.06l-0.33,0.38l-0.38-0.14l-0.73-0.07l-0.36-0.21v-0.36
		l1.64,0.02l0.76,0.42l0.26,1.16l0.53-0.32l0.17-0.64l-0.18-0.67l-0.52-0.41l0.43-0.14l0.58,0.23l0.51,0.49l0.22,0.65l0.47-0.66
		l0.44-0.32l1.34-0.33l0.96-0.53l0.39-0.61l1.18-1.33l0.16-0.45l-0.08-0.32l-0.15-0.28l-0.05-0.32l0.11-0.21l0.62-0.96h-1.25
		l0.23-0.17l0.23-0.13l0.52-0.13l-0.15-0.08l-0.32-0.27v-0.43h0.25v-0.35l-0.42-0.13l-1.34,0.13l0.65-1.82l-0.89-0.67l-1.5-0.21
		l-1.19-0.45l0.73-0.42l0.73-0.09l1.47,0.07l0.66-0.19l0.66-0.31l0.61-0.15l0.31,0.3v0.36l1.47-0.04l0.73,0.15l0.47,0.32l0.3-0.44
		l0.28-0.19l0.24,0.13l0.17,0.5l-0.29,0.2l-0.18,0.25l-0.26,0.74l0.35,0.02l0.22,0.1l0.19,0.14l0.22,0.12l-0.45,0.54l-0.48,0.34
		l-0.5,0.21l-0.52,0.1l0.16,0.55l0.08,0.2l-0.33,0.1l-0.32,0.2l-0.24,0.3l-0.09,0.41l0.16,0.21l0.36,0.04l0.41-0.03l0.98,0.1
		l2.25-0.22l1.36-0.54l2.7-0.56l0.58-0.35l-0.68-0.8l0.54-0.7l1.87-0.83l1.49-0.32l0.81-0.36l0.39-0.58l-0.43-0.16l-1.06-0.98
		l0.76-0.06l0.61-0.36l0.51-0.61l0.47-0.77l0.09-0.49l0.04-1.38l0.11-0.29l0.41,0.25l0.16,0.53l0.05,0.53l0.11,0.25l3.79,0.5
		l0.21-0.29l-0.01-0.59l0.3-0.81l0.74-0.38l1.9,0.2l0.68-0.4l0.3-0.23l0.35-0.08l0.3-0.12l0.13-0.39l0.13-1.76l1.13-0.83l0.21-0.71
		l-0.06-0.25l-0.26-0.05l-1.06-0.48l-0.65-0.19l-0.55,0.09l-0.35,0.44l-0.13-0.95l0.43-0.77l0.68-0.52l0.62-0.18l0.12,0.17l0.1,0.39
		l0.16,0.4l0.24,0.23l0.36-0.07l0.19-0.28l0.13-0.3l0.17-0.14l1.33-0.31l2.46-1.34l6.85-0.74l1.35,0.33l0.67-0.01l0.71-0.33
		l0.23-0.3l0.17-0.4l0.24-0.35l0.43-0.14l0.29,0.06l0.46,0.28l0.37,0.06l-0.13-0.25l-0.08-0.21l-0.1-0.17l-0.2-0.17v-0.36l0.49-0.07
		l0.45,0.08l0.79,0.35l-1.01,1.37l-0.21,0.65l0.77-0.19l1.61-0.05l0.79-0.19l0.62-0.48l1.04-1.43l0.56-0.47v-0.39l-0.89,0.01
		l-0.08-0.57l0.46-1.43l-0.13-0.57l-0.49-0.97l-0.12-0.28l-0.03-0.58l-0.24-1.61l0.45,0.62l0.53,1.82l0.4,0.39l0.38,0.21l0.41,0.47
		l0.35,0.55l0.21,0.39l0.62,2.37l-0.01,0.57l-0.4,0.44l-0.45,0.29l-0.42,0.38l-0.33,0.71l0.6,0.37l0.49-0.49l0.4-0.72l0.36-0.38
		l2.59-1.59l-0.27-0.39l0.12-0.01l0.25,0.02l0.12-0.01v-0.44l-0.24,0.03l-0.24-0.03l0.26-0.37l0.11-0.33l0.12-0.85h-0.22l-0.13,0.16
		l-0.39,0.27l0.1-0.42l-0.01-0.18l-0.05-0.19l-0.04-0.46l0.25-0.36l0.7,0.33l0.7-0.3l0.6-0.61l0.43-0.61l-0.07,0.91l-0.36,0.74
		l-0.52,0.5l-0.54,0.24v0.43l0.69,0.17l2.53-0.39l2.65,0.81l0.65,0.34l0.93,1l0.62,0.07l1.51-0.89l1.71-0.36l0.61-0.42l0.37-0.01
		l0.49,0.43h-0.73v0.36l1.56-0.01l0.1-0.05l0.07-0.11l0.44-0.38l0.31-0.45l0.21-0.12l0.42,0.05l0.05,0.26l-0.32,0.71l-0.27,0.27
		l-0.07,0.3l0.46,0.36l0.34,0.06l0.26-0.1l0.36-0.36l0.46-0.65l1.03-2.54l-1.84-1.85l-0.71-1.34l0.6-1.22v-0.37l-0.85,1.43
		l-0.44,0.52l-0.19-0.62l-0.33-0.47l-1.12-0.26l0.22-0.61l-0.26-0.76l-0.41-0.65l-0.5-0.45l-0.54-0.21v-0.36l0.28-0.28l0.29-0.22
		l0.31-0.17l0.32-0.12l-0.21,1.05l0.74,0.24l2.08-0.16l0.32,0.12l0.28,0.27l0.25,0.44l0.07-0.77l-0.07-1.02l0.03-1.06l0.33-0.92
		l0.82-1.49l0.55-0.79l0.6-0.33l0.64-0.79l2.17-3.59l0.47-1.01l0.1-2.51l-0.1-0.91l-0.37-1.67l-0.04-0.86l0.19-1.12l1.67-2.98
		l0.73-1.74l-0.21-1.31l0.85-2.8l0.39-0.85l0.42-0.56l1.54-1.46l-0.27-0.44l1.21-2.81l0.4-0.42l0.18-0.25l0.36-1.11l0.19-0.26
		l0.46-0.21l-0.11-0.44l-1.5-1.71l-0.46-0.93l0.15-0.95l0.28-0.88l0.2-1.41l0.05-1.45l-0.17-0.97l0.12-0.11h0.04l0.02-0.04
		l0.06-0.22l-1.23-2.58l-0.48-0.71l0.25-1.07l-0.21-0.65l-0.42-0.51l-0.37-0.65l-0.21-0.88l-0.06-0.82l0.04-1.32l0.12-0.24
		l0.18-0.49v-0.47l-0.43-0.21l-0.27-0.07l-0.38-0.31l-1-0.24l-0.47-0.41l-0.7-1.05l-0.84-0.88l-0.24-0.51l0.1-0.66l2.09-1.63
		l0.26-0.06l0.62-0.31l0.34-0.06l0.14,0.13l0.44,0.58l0.15,0.14l0.51,0.28l0.48,0.41l0.45-0.02l0.4-1.08l-0.65-0.43l-1.47-0.08
		l-0.58-0.29l0.13-0.2l0.23-0.44l0.13-0.19l-0.34-0.43l-0.13-0.71l-0.17-0.66l-2.3-1.1l0.58-0.45l0.72-0.25l0.62,0.1l0.27,0.61
		l0.32-0.45l0.42-1.09l0.26-0.51l0.08-0.48l0.17-0.39l0.61-0.97l0.23-0.83l-0.08-0.89l-0.26-0.8l-0.28-0.55l-0.71-0.52l-1.07-0.53
		l-0.98-0.67l-0.62-1.47l-0.93-0.63l-0.35-0.32l-0.25-0.64l-0.24-0.86l-0.17-0.89l-0.26-4.23l0.18-1.62l0.74-0.83l-0.79-0.63
		l-0.36-0.93l0.04-1.07l0.38-1.08v-0.45l-2.65-0.36l-1.2-0.62l-0.79-1.08l-0.21-1.06l0.03-1.09l0.19-1.8l0.24-1l0.44-0.8l0.21-0.57
		l-0.43-0.29v-0.46l1.89,0.26l2.5,1.09l0.51-0.1l0.49,0.42l0.85,0.54l0.88,0.31l0.61-0.23l1.17-1.39l0.13-0.75l-0.69-1.01
		l-0.26-0.19l-0.31-0.12l-0.76-0.07l-0.21-0.19l-0.51-0.85l-0.26-0.2l-0.56-0.29l-2.25-2.2l0.22-0.42l0.76,0.32l1.07,0.07l0.95,0.34
		l0.41,1.12l0.46,0.03l2.74,1.02l-0.29,0.07l-0.71,0.34v0.39l0.62,0.45l0.56,0.1l1.39-0.12l0.48-0.22l1.52-1.17l1.11-1.17l1.49-0.76
		l0.65-0.82l0.37-0.97l0.31-1.21l0.22-1.26l0.1-1.17l-0.07-2.33l0.21-0.73l0.71-0.27l0.7-0.13l1.54-0.57l1.52-0.16l2.08,0.18
		l0.44,0.45l0.11,0.49l0.28,0.06l0.31-0.15l0.25-0.17l0.25-1.26l0.16-0.06l0.4,0.11l0.17-0.04l1.19-1.23l0.95-1.4l0.43-1.75
		l-0.35-2.33l-1.04-1.12l-1.52,0.43l-1.66,0.98l-1.44,0.54l0.38-0.64l1.31-1.07l0.28-0.57l0.99-3.21l-0.26-0.38l0.18-0.4l0.05-0.17
		l0.03-0.26l-0.46-0.16L502.6,235v-0.71l0.17-0.74l-1.09-0.61l0.23-0.28l0.78-0.15l0.58-0.22l-0.4-0.36l-1.33-0.1l-0.27-0.2
		l-0.32-0.31l-0.4-0.26l-0.5-0.03l0.34-0.37l0.31-0.51l0.1-0.62l-0.26-0.6v-0.41l1.07,0.06l0.97,0.55l2.49,2.38l0.62,1.04l0.38,1.41
		l0.13,1.91l-0.18,0.93l-0.82,1.06l-0.24,0.72l0.06,0.68l0.26,0.69l0.37,0.54l0.42,0.23l0.36,1.2l0.34,0.86l0.42,0.44l0.49-0.1
		l0.45-0.86l0.53-0.29l-0.51-0.68l0.18-0.49l0.47-0.42l0.34-0.48l0.13-1.01l-0.25-1.01l0.22-0.74l0.69-1.08l0.18-0.37l0.02-0.32
		l-0.11-0.25L510.01,234.78z M364.99,414.15l-0.98,0.64l-0.32,0.53l0.03,0.12l0.22,0.35l0.21-0.08l0.26-0.43l0.13,0.08l0.26,0.03
		l0.45-0.23l0.32-0.44l-0.01-0.53L364.99,414.15z M335.29,387.98l0.65-0.42l0.25-0.45l-0.14-0.37l-0.39-0.04l-0.2,0.03l-0.27-0.27
		l-0.25-0.06l-0.67-0.03l-0.33,0.31l-1.83,1.25l-0.61,0.82l0.11,0.44l0.72-0.1l0.34-0.33l1.24-0.13L335.29,387.98z M353.72,403.75
		l0.29-0.41l-0.28-0.2l-0.35,0.09l-0.25-0.01l-1.23-0.21l-0.83,0.08l-0.69,0.25l-0.52,0.44l-0.09,0.55l0.54,0.29l0.38,0.17
		l2.81-0.94L353.72,403.75z M481.46,183.85l0.89,0.09l0.82,0.7l-0.13,0.29l-0.04,0.23l-0.01,0.3l-0.06,0.51l0.26-0.41l0.34-0.7
		l0.22-0.79l-0.09-0.67l-0.38-0.18l-1.85-0.28l-0.47,0.05l-0.42,0.19l-0.39,0.28l-0.4,0.37l0.82,0.13L481.46,183.85z M399.51,204.39
		l1.56-0.5l-0.16-1l-0.3-0.56l-0.45-0.3l-0.57-0.25l-0.2-0.3l-0.22-0.13l-0.25,0.08l-0.31,0.35l0.06,0.1l0.11,0.16l0.07,0.16
		l-0.2,0.07l-0.53,0.39l0.08,0.48l0.03,0.09l-0.03,0.01l-0.09,0.28v0.38l0.59,0.45L399.51,204.39z M345.09,276.51l2.53-0.11
		l0.64-0.32l0.37-0.41l0.07-0.24l-0.2-0.22l-0.47-0.28l-0.38-0.39l-0.29-0.13l-0.68,0.66l-1.63,0.66l-0.09,0.19l0.04,0.23
		l-0.02,0.19L345.09,276.51z M340.05,266.03l0.98,0.14l2.71-0.6l0.74,0.22l0.38,0.54l0.05,0.56l-0.11,0.68l-0.08,0.9l0.16,0.59
		l0.38,0.09l0.49-0.09l0.46,0.04l0.8,0.72l0.68,0.85l0.67,0.37l0.78-0.71l-0.14-0.82l0.1-1.06l0.24-0.96l0.28-0.47v-0.41l-0.28-0.33
		l-0.36-0.04l-0.4,0.13l-0.42,0.24v-0.45l0.21-0.31l0.11-0.41l0.01-0.48l-0.09-0.5h0.74l-0.74-1.63l-0.68-0.31l-3.12-0.1l-0.73,0.4
		l-0.9,0.71l-0.91,0.26l-0.77-0.96l-0.31,0.34l-0.31,0.12l-0.3-0.11l-0.27-0.36l-0.42,1.21l-0.61,0.61l-0.77,0.23l-0.92,0.03v0.41
		l0.94,0.02L340.05,266.03z M356.9,308.32l0.19,0.43l0.11,0.87l0.64,0.72l1.22-0.38l0.72-1.09l-0.87-1.46l-0.32-0.32l-0.47-0.1
		l-0.51,0.11l-0.41,0.31l-0.35,0.56L356.9,308.32z M358.45,306.84l1.19-0.39l0.08-0.29l-0.35-0.18l-0.29,0.02l-0.64-0.39l-0.54-0.09
		l-0.33,0.12l-0.29,0.2l-0.17,0.22l0.4,0.76L358.45,306.84z M488.67,294.76l0.35,0.43l0.47,0.16l0.2-0.19l0.03-0.32l0.19-0.17
		l-0.21-0.36l-0.81,0.06L488.67,294.76z M353.94,315.09l-0.37,0.53l1.17,0.83l4.23,1.95l0.65-0.18l0.06-0.46l-0.15-0.07l-0.12,0.06
		l-0.83-0.44l-0.03-0.4l0.32-0.43l-0.27-0.43l-0.91-0.35l-0.68-0.11l-0.87,0.18l-0.44-0.01l-0.9-0.68L353.94,315.09z M484.6,302.09
		l-0.61,0.4l-0.15,0.06l-0.38,0.38l-0.22,0.48l0.27,0.26l0.26-0.5l0.48-0.43l0.34-0.22l0.34-0.37l0.44-0.14l-0.29-0.09L484.6,302.09
		z M351.8,306.03l0.25,0.1l0.07,0.49l0.23,0.08l0.02-0.57l-0.12-0.39l-0.16-0.11l-0.1-0.3l-0.16-0.07l-0.09,0.14h-0.18l-0.19,0.2
		l0.03,0.21l0.17,0.09L351.8,306.03z M356.25,309.2l-0.33,0.48l-0.01,0.18l-0.14,0.14l-0.21,0.02h-0.16l-0.01,0.27l0.46-0.1
		l0.79,0.19l-0.02-0.74l0.07-0.21L356.25,309.2z"/>
</g>
<g id="copyright">
</g>
</svg>
